<?xml version="1.0" standalone="no"?><!DOCTYPE svg PUBLIC "-//W3C//DTD SVG 1.1//EN" "http://www.w3.org/Graphics/SVG/1.1/DTD/svg11.dtd"><svg width="100%" height="100%" viewBox="0 0 19 21" version="1.1" xmlns="http://www.w3.org/2000/svg" xmlns:xlink="http://www.w3.org/1999/xlink" xml:space="preserve" style="fill-rule:evenodd;clip-rule:evenodd;stroke-linejoin:round;stroke-miterlimit:1.41421;"><g id="ico-refresh"><path d="M17.091,6.739c0.046,0.006 0.058,0.005 0.103,0.018c0.084,0.025 0.161,0.071 0.221,0.134c0.033,0.034 0.038,0.045 0.065,0.083c0.045,0.082 0.043,0.083 0.084,0.168c0.157,0.339 0.299,0.683 0.416,1.038c0.256,0.776 0.407,1.586 0.446,2.403c0.04,0.851 -0.042,1.707 -0.24,2.536c-0.193,0.809 -0.497,1.59 -0.903,2.316c-0.518,0.926 -1.201,1.757 -2.006,2.448c-0.798,0.685 -1.716,1.229 -2.699,1.602c-0.896,0.339 -1.844,0.535 -2.801,0.577c-1.332,0.058 -2.676,-0.183 -3.906,-0.699c-0.587,-0.246 -1.147,-0.554 -1.669,-0.918c-0.147,-0.103 -0.291,-0.21 -0.432,-0.322c-0.061,-0.047 -0.127,-0.095 -0.176,-0.155c-0.172,-0.211 -0.14,-0.532 0.071,-0.704c0.041,-0.033 0.087,-0.059 0.136,-0.078c0.114,-0.045 0.243,-0.045 0.358,-0.002c0.043,0.017 0.053,0.024 0.093,0.048c0.112,0.08 0.218,0.169 0.328,0.252c0.259,0.19 0.526,0.367 0.804,0.526c0.68,0.388 1.415,0.675 2.177,0.851c0.872,0.202 1.777,0.259 2.668,0.164c1.099,-0.116 2.173,-0.464 3.133,-1.011c1.04,-0.594 1.946,-1.417 2.631,-2.4c0.475,-0.682 0.842,-1.437 1.086,-2.232c0.272,-0.888 0.392,-1.824 0.348,-2.752c-0.036,-0.767 -0.183,-1.529 -0.436,-2.254c-0.11,-0.315 -0.241,-0.62 -0.386,-0.92l-0.02,-0.048c-0.021,-0.068 -0.034,-0.134 -0.029,-0.206c0.013,-0.177 0.122,-0.337 0.281,-0.414c0.048,-0.024 0.097,-0.035 0.149,-0.046c0.053,-0.004 0.053,-0.004 0.105,-0.003Z" style="fill:#a2a2a2;fill-rule:nonzero;"/><path d="M3.646,16.85c0.175,0.016 0.322,0.111 0.408,0.264c0.491,0.977 0.864,2.011 1.258,3.032c0.026,0.077 0.036,0.157 0.025,0.238c-0.034,0.239 -0.24,0.423 -0.48,0.431c-0.057,0.001 -0.113,-0.007 -0.167,-0.024c-0.061,-0.019 -0.119,-0.051 -0.168,-0.092c-0.057,-0.047 -0.1,-0.105 -0.133,-0.171c-0.439,-0.993 -0.855,-1.997 -1.247,-3.01c-0.02,-0.062 -0.031,-0.125 -0.028,-0.19c0.007,-0.188 0.124,-0.36 0.297,-0.436c0.059,-0.027 0.122,-0.039 0.187,-0.043c0.024,0 0.024,0 0.048,0.001Z" style="fill:#a2a2a2;fill-rule:nonzero;"/><path d="M6.905,16.832c0.077,0.003 0.151,0.019 0.22,0.054c0.06,0.03 0.114,0.073 0.158,0.125c0.038,0.045 0.067,0.097 0.087,0.153c0.082,0.23 -0.019,0.492 -0.233,0.608c-0.076,0.041 -0.158,0.059 -0.244,0.06c-1.078,-0.013 -2.158,0 -3.236,-0.04c-0.093,-0.008 -0.182,-0.037 -0.259,-0.092c-0.183,-0.131 -0.257,-0.376 -0.176,-0.586c0.018,-0.048 0.044,-0.092 0.075,-0.132c0.042,-0.053 0.095,-0.097 0.155,-0.129c0.067,-0.037 0.141,-0.055 0.218,-0.06c1.078,-0.014 2.157,0.026 3.235,0.039Z" style="fill:#a2a2a2;fill-rule:nonzero;"/><path d="M13.531,0.878c0.175,0.01 0.325,0.101 0.415,0.251c0.521,0.963 0.925,1.985 1.35,2.993c0.028,0.077 0.04,0.156 0.032,0.237c-0.026,0.24 -0.227,0.431 -0.467,0.445c-0.057,0.004 -0.113,-0.002 -0.168,-0.018c-0.062,-0.018 -0.12,-0.047 -0.171,-0.087c-0.058,-0.045 -0.102,-0.102 -0.137,-0.167c-0.47,-0.979 -0.916,-1.97 -1.338,-2.972c-0.022,-0.061 -0.035,-0.123 -0.034,-0.188c0.002,-0.189 0.113,-0.364 0.283,-0.445c0.059,-0.029 0.121,-0.043 0.186,-0.049c0.025,0 0.024,0 0.049,0Z" style="fill:#a2a2a2;fill-rule:nonzero;"/><path d="M14.773,3.864c0.092,0.005 0.18,0.03 0.258,0.081c0.042,0.028 0.079,0.061 0.111,0.1c0.141,0.17 0.152,0.421 0.026,0.603c-0.038,0.055 -0.087,0.102 -0.143,0.137c-0.064,0.041 -0.135,0.064 -0.21,0.075c-1.089,0.101 -2.189,0.069 -3.284,0.061c-0.076,-0.004 -0.148,-0.021 -0.216,-0.056c-0.059,-0.031 -0.111,-0.074 -0.154,-0.125c-0.141,-0.171 -0.152,-0.421 -0.026,-0.603c0.029,-0.041 0.063,-0.078 0.103,-0.109c0.073,-0.057 0.158,-0.09 0.25,-0.103c1.09,-0.102 2.19,-0.069 3.285,-0.061Z" style="fill:#a2a2a2;fill-rule:nonzero;"/><path d="M9.431,1.957c0.381,0.004 0.761,0.029 1.139,0.079c1.012,0.135 2,0.44 2.911,0.902c0.518,0.263 1.004,0.578 1.464,0.931l0.101,0.08c0.067,0.059 0.121,0.124 0.154,0.208c0.093,0.235 -0.009,0.51 -0.233,0.627c-0.047,0.025 -0.097,0.041 -0.148,0.05c-0.087,0.015 -0.176,0.006 -0.258,-0.024c-0.044,-0.016 -0.053,-0.024 -0.094,-0.047c-0.111,-0.079 -0.217,-0.166 -0.326,-0.248c-0.289,-0.209 -0.588,-0.403 -0.901,-0.574c-0.643,-0.35 -1.333,-0.612 -2.046,-0.776c-0.872,-0.201 -1.775,-0.258 -2.665,-0.164c-0.843,0.089 -1.67,0.314 -2.443,0.661c-1.358,0.61 -2.541,1.598 -3.377,2.831c-0.41,0.605 -0.736,1.265 -0.968,1.958c-0.301,0.899 -0.442,1.851 -0.416,2.798c0.021,0.744 0.147,1.485 0.373,2.194c0.106,0.332 0.235,0.655 0.38,0.972l0.019,0.049c0.024,0.086 0.035,0.17 0.017,0.258c-0.011,0.051 -0.029,0.101 -0.055,0.147c-0.114,0.203 -0.362,0.301 -0.585,0.232c-0.083,-0.026 -0.159,-0.075 -0.218,-0.139c-0.032,-0.034 -0.037,-0.045 -0.063,-0.084c-0.04,-0.077 -0.074,-0.157 -0.11,-0.236c-0.126,-0.293 -0.241,-0.591 -0.338,-0.895c-0.241,-0.758 -0.381,-1.549 -0.415,-2.344c-0.039,-0.915 0.063,-1.835 0.298,-2.72c0.26,-0.979 0.685,-1.912 1.254,-2.751c1.021,-1.507 2.502,-2.686 4.196,-3.351c0.648,-0.254 1.325,-0.434 2.014,-0.533c0.295,-0.043 0.592,-0.068 0.889,-0.083c0.15,-0.006 0.3,-0.008 0.45,-0.008Z" style="fill:#a2a2a2;fill-rule:nonzero;"/></g></svg>