<?xml version="1.0" standalone="no"?><!DOCTYPE svg PUBLIC "-//W3C//DTD SVG 1.1//EN" "http://www.w3.org/Graphics/SVG/1.1/DTD/svg11.dtd"><svg width="100%" height="100%" viewBox="0 0 20 20" version="1.1" xmlns="http://www.w3.org/2000/svg" xmlns:xlink="http://www.w3.org/1999/xlink" xml:space="preserve" style="fill-rule:evenodd;clip-rule:evenodd;stroke-linejoin:round;stroke-miterlimit:1.41421;"><g id="ico-minus"><path d="M9.883,0.931c0.403,0.008 0.805,0.036 1.205,0.092c0.928,0.13 1.836,0.399 2.685,0.795c0.968,0.453 1.859,1.069 2.623,1.816c0.791,0.773 1.446,1.682 1.927,2.678c0.372,0.772 0.638,1.595 0.789,2.438c0.184,1.03 0.197,2.091 0.039,3.126c-0.142,0.925 -0.422,1.829 -0.828,2.672c-0.498,1.03 -1.182,1.969 -2.01,2.758c-0.858,0.817 -1.866,1.474 -2.963,1.922c-1.137,0.464 -2.362,0.702 -3.59,0.702c-1.228,0 -2.453,-0.237 -3.589,-0.702c-1.097,-0.449 -2.107,-1.104 -2.964,-1.922c-1.278,-1.22 -2.208,-2.791 -2.648,-4.503c-0.269,-1.049 -0.357,-2.144 -0.261,-3.223c0.087,-0.978 0.327,-1.942 0.71,-2.847c0.447,-1.055 1.086,-2.026 1.877,-2.856c0.815,-0.856 1.791,-1.558 2.862,-2.059c0.813,-0.379 1.68,-0.642 2.568,-0.778c0.438,-0.067 0.879,-0.1 1.323,-0.109c0.123,-0.001 0.122,-0.001 0.245,0ZM9.65,1.931c-0.396,0.008 -0.792,0.037 -1.184,0.097c-0.793,0.122 -1.569,0.357 -2.296,0.696c-0.958,0.448 -1.831,1.077 -2.561,1.843c-0.708,0.743 -1.28,1.611 -1.681,2.556c-0.342,0.809 -0.556,1.671 -0.634,2.546c-0.089,0.999 -0.004,2.017 0.26,2.985c0.2,0.734 0.497,1.44 0.884,2.094c0.942,1.591 2.4,2.854 4.111,3.554c1.017,0.416 2.113,0.628 3.211,0.628c1.099,0 2.194,-0.213 3.212,-0.628c0.982,-0.401 1.884,-0.989 2.652,-1.72c0.716,-0.682 1.312,-1.491 1.752,-2.376c0.389,-0.78 0.654,-1.62 0.786,-2.482c0.142,-0.926 0.13,-1.876 -0.034,-2.798c-0.135,-0.754 -0.373,-1.489 -0.706,-2.179c-0.833,-1.726 -2.252,-3.146 -3.978,-3.978c-0.722,-0.348 -1.494,-0.593 -2.284,-0.724c-0.391,-0.065 -0.785,-0.099 -1.18,-0.112c-0.11,-0.002 -0.22,-0.003 -0.33,-0.002Z" style="fill:#652d91;fill-rule:nonzero;"/><rect x="6.813" y="9.947" width="5.847" height="1.043" style="fill:#652d91;fill-rule:nonzero;"/></g></svg>