<?xml version="1.0" standalone="no"?><!DOCTYPE svg PUBLIC "-//W3C//DTD SVG 1.1//EN" "http://www.w3.org/Graphics/SVG/1.1/DTD/svg11.dtd"><svg width="100%" height="100%" viewBox="0 0 6 14" version="1.1" xmlns="http://www.w3.org/2000/svg" xmlns:xlink="http://www.w3.org/1999/xlink" xml:space="preserve" style="fill-rule:evenodd;clip-rule:evenodd;stroke-linejoin:round;stroke-miterlimit:1.41421;"><g id="ico-drag"><path d="M3.089,1.564c0.045,0.008 0.087,0.017 0.129,0.035c0.125,0.054 0.224,0.157 0.272,0.284c0.016,0.043 0.024,0.086 0.03,0.131c0.157,3.494 0.002,6.994 0.002,10.492c-0.004,0.076 -0.016,0.147 -0.05,0.216c-0.107,0.223 -0.37,0.335 -0.605,0.259c-0.057,-0.018 -0.11,-0.047 -0.157,-0.085c-0.109,-0.087 -0.168,-0.209 -0.186,-0.346c-0.157,-3.493 -0.002,-6.994 -0.002,-10.491c0.003,-0.061 0.01,-0.118 0.032,-0.176c0.053,-0.141 0.17,-0.253 0.313,-0.299c0.044,-0.015 0.087,-0.02 0.132,-0.024c0.046,0 0.045,0 0.09,0.004Z" style="fill:#c3bec7;fill-rule:nonzero;"/><path d="M3.037,0.934c0.122,0.006 0.233,0.051 0.324,0.132c0.699,0.672 1.413,1.333 2.057,2.058c0.051,0.062 0.088,0.133 0.106,0.211c0.051,0.219 -0.055,0.45 -0.253,0.555c-0.052,0.028 -0.11,0.047 -0.169,0.054c-0.066,0.009 -0.133,0.004 -0.197,-0.013c-0.072,-0.02 -0.135,-0.055 -0.192,-0.102c-0.73,-0.648 -1.424,-1.341 -2.072,-2.071c-0.046,-0.057 -0.082,-0.121 -0.101,-0.192c-0.06,-0.216 0.037,-0.452 0.231,-0.565c0.063,-0.037 0.133,-0.058 0.206,-0.066c0.02,-0.001 0.04,-0.002 0.06,-0.001Z" style="fill:#c3bec7;fill-rule:nonzero;"/><path d="M3.047,0.934c0.073,0.005 0.144,0.023 0.209,0.057c0.205,0.109 0.309,0.352 0.248,0.575c-0.021,0.078 -0.061,0.147 -0.115,0.207c-0.672,0.699 -1.332,1.412 -2.058,2.056c-0.057,0.047 -0.12,0.082 -0.192,0.102c-0.064,0.017 -0.131,0.022 -0.197,0.013c-0.059,-0.007 -0.117,-0.026 -0.169,-0.054c-0.198,-0.105 -0.304,-0.336 -0.253,-0.555c0.018,-0.078 0.055,-0.149 0.106,-0.211c0.648,-0.73 1.342,-1.423 2.072,-2.071c0.078,-0.065 0.168,-0.104 0.269,-0.117c0.027,-0.002 0.053,-0.003 0.08,-0.002Z" style="fill:#c3bec7;fill-rule:nonzero;"/><path d="M5.062,10.486c0.08,0.005 0.157,0.027 0.227,0.067c0.2,0.117 0.295,0.363 0.225,0.584c-0.023,0.07 -0.061,0.133 -0.109,0.188c-0.672,0.699 -1.333,1.412 -2.059,2.056c-0.057,0.047 -0.12,0.082 -0.191,0.102c-0.064,0.017 -0.132,0.022 -0.197,0.013c-0.06,-0.007 -0.117,-0.026 -0.17,-0.054c-0.198,-0.105 -0.304,-0.336 -0.253,-0.555c0.018,-0.078 0.056,-0.149 0.106,-0.211c0.648,-0.73 1.342,-1.423 2.072,-2.071c0.079,-0.065 0.169,-0.104 0.27,-0.117c0.026,-0.002 0.052,-0.003 0.079,-0.002Z" style="fill:#c3bec7;fill-rule:nonzero;"/><path d="M1.022,10.486c0.122,0.006 0.232,0.051 0.324,0.132c0.699,0.672 1.413,1.333 2.057,2.058c0.05,0.062 0.088,0.133 0.106,0.211c0.051,0.219 -0.055,0.45 -0.253,0.555c-0.053,0.028 -0.11,0.047 -0.17,0.054c-0.065,0.009 -0.133,0.004 -0.197,-0.013c-0.071,-0.02 -0.134,-0.055 -0.191,-0.102c-0.73,-0.648 -1.424,-1.341 -2.072,-2.071c-0.046,-0.057 -0.082,-0.121 -0.101,-0.192c-0.06,-0.216 0.037,-0.452 0.23,-0.565c0.064,-0.037 0.134,-0.058 0.207,-0.066c0.02,-0.001 0.04,-0.002 0.06,-0.001Z" style="fill:#c3bec7;fill-rule:nonzero;"/></g></svg>