<?xml version="1.0" standalone="no"?><!DOCTYPE svg PUBLIC "-//W3C//DTD SVG 1.1//EN" "http://www.w3.org/Graphics/SVG/1.1/DTD/svg11.dtd"><svg width="100%" height="100%" viewBox="0 0 20 20" version="1.1" xmlns="http://www.w3.org/2000/svg" xmlns:xlink="http://www.w3.org/1999/xlink" xml:space="preserve" style="fill-rule:evenodd;clip-rule:evenodd;stroke-linejoin:round;stroke-miterlimit:1.41421;"><g id="ico-web-element"><path d="M9.699,0.02c0.443,0.009 0.885,0.042 1.323,0.109c0.888,0.136 1.755,0.399 2.568,0.779c0.899,0.42 1.731,0.982 2.457,1.658c0.921,0.858 1.672,1.898 2.19,3.045c0.321,0.711 0.554,1.461 0.691,2.228c0.184,1.03 0.198,2.092 0.039,3.126c-0.142,0.925 -0.421,1.829 -0.828,2.672c-0.498,1.031 -1.181,1.968 -2.009,2.758c-0.857,0.818 -1.867,1.473 -2.964,1.922c-1.136,0.465 -2.362,0.702 -3.59,0.702c-1.227,0 -2.453,-0.237 -3.589,-0.702c-1.097,-0.449 -2.107,-1.104 -2.964,-1.922c-0.828,-0.79 -1.511,-1.727 -2.009,-2.758c-0.407,-0.843 -0.686,-1.747 -0.828,-2.672c-0.158,-1.035 -0.145,-2.096 0.039,-3.126c0.198,-1.107 0.596,-2.178 1.169,-3.146c0.973,-1.644 2.439,-2.977 4.169,-3.785c0.813,-0.38 1.681,-0.643 2.568,-0.779c0.438,-0.067 0.88,-0.1 1.323,-0.109c0.123,-0.001 0.122,-0.001 0.245,0ZM9.467,1.02c-0.397,0.008 -0.792,0.037 -1.185,0.097c-0.793,0.122 -1.568,0.357 -2.296,0.697c-1.548,0.723 -2.861,1.917 -3.731,3.388c-0.513,0.866 -0.869,1.823 -1.046,2.813c-0.164,0.922 -0.176,1.872 -0.034,2.799c0.126,0.827 0.376,1.635 0.74,2.389c0.445,0.922 1.057,1.761 1.798,2.468c0.767,0.732 1.672,1.319 2.653,1.72c1.016,0.416 2.112,0.628 3.21,0.628c1.099,0 2.195,-0.212 3.212,-0.628c0.981,-0.401 1.885,-0.988 2.651,-1.72c0.742,-0.707 1.354,-1.546 1.799,-2.468c0.364,-0.754 0.614,-1.562 0.741,-2.389c0.141,-0.926 0.13,-1.877 -0.035,-2.799c-0.123,-0.686 -0.332,-1.357 -0.618,-1.992c-0.832,-1.842 -2.329,-3.354 -4.159,-4.209c-0.727,-0.34 -1.503,-0.575 -2.296,-0.697c-0.392,-0.06 -0.788,-0.089 -1.184,-0.097c-0.11,-0.001 -0.11,-0.001 -0.22,0Z" style="fill:#aaa;fill-rule:nonzero;"/><path d="M7.798,10.464l0.106,0.808l0.026,0.005l0.143,-0.813l1.093,-4.027l0.817,0l1.101,4.027l0.144,0.825l0.025,0l0.115,-0.825l0.88,-4.027l0.906,0l-1.49,6.165l-0.745,0l-1.232,-4.277l-0.093,-0.554l-0.026,0l-0.089,0.554l-1.249,4.277l-0.745,0l-1.486,-6.165l0.902,0l0.897,4.027Z" style="fill:#aaa;fill-rule:nonzero;"/></g></svg>