<?xml version="1.0" standalone="no"?><!DOCTYPE svg PUBLIC "-//W3C//DTD SVG 1.1//EN" "http://www.w3.org/Graphics/SVG/1.1/DTD/svg11.dtd"><svg width="100%" height="100%" viewBox="0 0 20 20" version="1.1" xmlns="http://www.w3.org/2000/svg" xmlns:xlink="http://www.w3.org/1999/xlink" xml:space="preserve" style="fill-rule:evenodd;clip-rule:evenodd;stroke-linejoin:round;stroke-miterlimit:1.41421;"><g id="ico-plus"><path d="M10.401,0.448c0.403,0.008 0.805,0.036 1.205,0.092c0.928,0.13 1.836,0.399 2.685,0.795c1.21,0.566 2.294,1.388 3.169,2.396c0.55,0.634 1.016,1.342 1.38,2.098c0.373,0.772 0.639,1.595 0.79,2.438c0.184,1.03 0.197,2.091 0.039,3.126c-0.148,0.963 -0.445,1.903 -0.879,2.775c-0.493,0.99 -1.158,1.893 -1.959,2.655c-0.858,0.817 -1.866,1.474 -2.963,1.922c-1.138,0.464 -2.362,0.702 -3.59,0.702c-1.228,0 -2.453,-0.237 -3.59,-0.702c-0.99,-0.406 -1.911,-0.98 -2.712,-1.691c-0.854,-0.758 -1.571,-1.67 -2.105,-2.681c-0.398,-0.754 -0.694,-1.563 -0.875,-2.397c-0.215,-0.982 -0.27,-1.998 -0.169,-2.999c0.095,-0.937 0.331,-1.859 0.698,-2.727c0.447,-1.055 1.087,-2.026 1.878,-2.856c0.815,-0.856 1.791,-1.558 2.862,-2.059c0.813,-0.379 1.68,-0.642 2.568,-0.778c0.438,-0.067 0.879,-0.1 1.323,-0.109c0.123,-0.001 0.122,-0.001 0.245,0ZM10.168,1.448c-0.397,0.008 -0.792,0.037 -1.184,0.097c-0.793,0.122 -1.569,0.357 -2.296,0.697c-0.959,0.447 -1.831,1.076 -2.561,1.842c-0.708,0.743 -1.281,1.611 -1.681,2.556c-0.328,0.776 -0.539,1.6 -0.624,2.438c-0.101,1 -0.028,2.019 0.224,2.992c0.199,0.77 0.505,1.511 0.91,2.195c0.942,1.591 2.4,2.854 4.111,3.554c1.017,0.416 2.113,0.628 3.211,0.628c1.099,0 2.194,-0.213 3.212,-0.628c0.982,-0.401 1.883,-0.989 2.651,-1.72c0.717,-0.682 1.313,-1.491 1.753,-2.376c0.388,-0.78 0.654,-1.62 0.786,-2.482c0.142,-0.926 0.13,-1.876 -0.035,-2.798c-0.134,-0.754 -0.372,-1.49 -0.705,-2.179c-0.327,-0.676 -0.743,-1.31 -1.235,-1.878c-0.784,-0.902 -1.754,-1.638 -2.837,-2.144c-0.759,-0.355 -1.571,-0.596 -2.401,-0.712c-0.358,-0.05 -0.718,-0.075 -1.079,-0.082c-0.11,-0.001 -0.109,-0.001 -0.22,0Z" style="fill:#652d91;fill-rule:nonzero;"/><path d="M10.84,9.464l2.338,0l0,1.043l-2.338,0l0,2.69l-1.154,0l0,-2.69l-2.355,0l0,-1.043l2.355,0l0,-2.478l1.154,0l0,2.478Z" style="fill:#652d91;fill-rule:nonzero;"/></g></svg>