<?xml version="1.0" standalone="no"?><!DOCTYPE svg PUBLIC "-//W3C//DTD SVG 1.1//EN" "http://www.w3.org/Graphics/SVG/1.1/DTD/svg11.dtd"><svg width="100%" height="100%" viewBox="0 0 42 42" version="1.1" xmlns="http://www.w3.org/2000/svg" xmlns:xlink="http://www.w3.org/1999/xlink" xml:space="preserve" style="fill-rule:evenodd;clip-rule:evenodd;stroke-linecap:round;stroke-linejoin:round;stroke-miterlimit:1.41421;"><g id="webpage"><circle cx="21" cy="21" r="18.604" style="fill:none;stroke-width:1.62px;stroke:#3e1b5a;"/><g><path d="M15.464,3.74c0,0 -3.535,5.84 -3.535,17.26c0,11.42 3.535,17.537 3.535,17.537" style="fill:none;stroke-width:1.62px;stroke:#3e1b5a;"/><path d="M34.672,33.583c0,0 -4.589,-2.778 -13.563,-2.778c-8.974,0 -13.781,2.778 -13.781,2.778" style="fill:none;stroke-width:1.62px;stroke:#3e1b5a;"/><path d="M34.672,8.522c0,0 -4.589,2.778 -13.563,2.778c-8.974,0 -13.781,-2.778 -13.781,-2.778" style="fill:none;stroke-width:1.62px;stroke:#3e1b5a;"/><path d="M26.536,3.74c0,0 3.535,5.84 3.535,17.26c0,11.42 -3.535,17.537 -3.535,17.537" style="fill:none;stroke-width:1.62px;stroke:#3e1b5a;"/></g><path d="M2.396,21l37.208,0" style="fill:none;stroke-width:1.62px;stroke:#3e1b5a;"/></g></svg>