<?xml version="1.0" standalone="no"?><!DOCTYPE svg PUBLIC "-//W3C//DTD SVG 1.1//EN" "http://www.w3.org/Graphics/SVG/1.1/DTD/svg11.dtd"><svg width="100%" height="100%" viewBox="0 0 46 42" version="1.1" xmlns="http://www.w3.org/2000/svg" xmlns:xlink="http://www.w3.org/1999/xlink" xml:space="preserve" style="fill-rule:evenodd;clip-rule:evenodd;stroke-linecap:round;stroke-linejoin:round;stroke-miterlimit:1.41421;"><g id="calendar01"><path d="M44.187,30.358l0,-5.665l0,-14.228c0,-2.542 -2.063,-4.606 -4.606,-4.606l-1.87,0" style="fill:none;stroke-width:1.84px;stroke:#3e1b5a;"/><path d="M30.394,5.859l-14.797,0" style="fill:none;stroke-width:1.84px;stroke:#3e1b5a;"/><path d="M8.298,5.859l-1.879,0c-2.543,0 -4.606,2.064 -4.606,4.606l0,24.872c0,2.542 2.063,4.606 4.606,4.606l33.162,0c2.543,0 4.606,-2.064 4.606,-4.606" style="fill:none;stroke-width:1.84px;stroke:#3e1b5a;"/><path d="M11.927,29.647l0,2.272" style="fill:none;stroke-width:2px;stroke:#3e1b5a;"/><path d="M19.309,29.647l0,2.272" style="fill:none;stroke-width:2px;stroke:#3e1b5a;"/><path d="M26.691,29.647l0,2.272" style="fill:none;stroke-width:2px;stroke:#3e1b5a;"/><path d="M34.073,29.647l0,2.272" style="fill:none;stroke-width:2px;stroke:#3e1b5a;"/><path d="M11.927,21.252l0,2.273" style="fill:none;stroke-width:2px;stroke:#3e1b5a;"/><path d="M19.309,21.252l0,2.273" style="fill:none;stroke-width:2px;stroke:#3e1b5a;"/><path d="M26.691,21.252l0,2.273" style="fill:none;stroke-width:2px;stroke:#3e1b5a;"/><path d="M34.073,21.252l0,2.273" style="fill:none;stroke-width:2px;stroke:#3e1b5a;"/><path d="M11.927,2.057l0,7.391" style="fill:none;stroke-width:2px;stroke:#3e1b5a;"/><path d="M34.073,2.057l0,7.391" style="fill:none;stroke-width:2px;stroke:#3e1b5a;"/></g></svg>