<?xml version="1.0" standalone="no"?><!DOCTYPE svg PUBLIC "-//W3C//DTD SVG 1.1//EN" "http://www.w3.org/Graphics/SVG/1.1/DTD/svg11.dtd"><svg width="100%" height="100%" viewBox="0 0 49 32" version="1.1" xmlns="http://www.w3.org/2000/svg" xmlns:xlink="http://www.w3.org/1999/xlink" xml:space="preserve" style="fill-rule:evenodd;clip-rule:evenodd;stroke-linecap:round;stroke-linejoin:bevel;stroke-miterlimit:1.41421;"><g id="ico-in-app-coupon"><path d="M42.422,1.609c2.76,0 5,2.24 5,5l0,6.513c-1.472,0 -2.668,1.195 -2.668,2.668c0,1.473 1.196,2.669 2.668,2.669l0,6.513c0,2.759 -2.24,5 -5,5l-36,0c-2.759,0 -5,-2.241 -5,-5l0,-6.513c1.473,0 2.669,-1.196 2.669,-2.669c0,-1.473 -1.196,-2.668 -2.669,-2.668l0,-6.513c0,-2.76 2.241,-5 5,-5l36,0Z" style="fill:none;stroke-width:1.2px;stroke:#fff;"/><path d="M14.33,2.455l0,27.15" style="fill:none;stroke-width:1.2px;stroke-linejoin:round;stroke-dasharray:1.2,3.6,0,0;stroke:#fff;"/><path d="M27.413,12.567c0,1.098 -0.242,1.913 -0.724,2.448c-0.483,0.534 -1.143,0.801 -1.982,0.801c-0.517,0 -0.981,-0.113 -1.392,-0.34c-0.411,-0.227 -0.731,-0.582 -0.961,-1.065c-0.23,-0.482 -0.345,-1.071 -0.345,-1.766c0,-0.747 0.089,-1.371 0.268,-1.87c0.178,-0.5 0.466,-0.879 0.866,-1.138c0.399,-0.258 0.909,-0.388 1.529,-0.388c0.448,0 0.842,0.069 1.181,0.207c0.339,0.138 0.626,0.349 0.862,0.634c0.235,0.284 0.411,0.63 0.525,1.038c0.115,0.408 0.173,0.888 0.173,1.439ZM25.801,12.481c0,-0.753 -0.08,-1.3 -0.241,-1.642c-0.161,-0.342 -0.445,-0.513 -0.853,-0.513c-0.276,0 -0.496,0.082 -0.66,0.246c-0.163,0.164 -0.275,0.405 -0.336,0.724c-0.06,0.319 -0.09,0.725 -0.09,1.219c0,0.512 0.03,0.928 0.09,1.25c0.061,0.322 0.171,0.565 0.332,0.728c0.161,0.164 0.382,0.246 0.664,0.246c0.425,0 0.714,-0.181 0.866,-0.543c0.152,-0.362 0.228,-0.934 0.228,-1.715ZM36.238,18.798c0,1.097 -0.242,1.913 -0.724,2.447c-0.483,0.535 -1.144,0.802 -1.983,0.802c-0.522,0 -0.989,-0.115 -1.4,-0.345c-0.411,-0.23 -0.732,-0.583 -0.965,-1.06c-0.233,-0.477 -0.349,-1.066 -0.349,-1.767c0,-1.12 0.214,-1.963 0.642,-2.529c0.428,-0.566 1.107,-0.849 2.038,-0.849c0.448,0 0.84,0.069 1.176,0.207c0.336,0.138 0.624,0.345 0.862,0.621c0.239,0.275 0.415,0.619 0.53,1.029c0.115,0.411 0.173,0.892 0.173,1.444ZM34.626,18.712c0,-0.741 -0.08,-1.283 -0.241,-1.625c-0.161,-0.342 -0.446,-0.513 -0.854,-0.513c-0.287,0 -0.511,0.081 -0.672,0.242c-0.161,0.161 -0.274,0.398 -0.34,0.711c-0.066,0.313 -0.099,0.719 -0.099,1.219c0,0.77 0.082,1.333 0.245,1.689c0.164,0.357 0.453,0.535 0.866,0.535c0.42,0 0.707,-0.183 0.862,-0.548c0.155,-0.364 0.233,-0.935 0.233,-1.71ZM33.161,10.387l-7.179,11.574c-0.184,0.316 -0.39,0.474 -0.62,0.474c-0.132,0 -0.265,-0.051 -0.397,-0.151c-0.132,-0.101 -0.198,-0.231 -0.198,-0.392c0,-0.121 0.058,-0.267 0.172,-0.44l7.222,-11.668c0.127,-0.213 0.237,-0.372 0.332,-0.479c0.095,-0.106 0.231,-0.159 0.409,-0.159c0.173,0 0.312,0.05 0.418,0.151c0.107,0.1 0.16,0.234 0.16,0.4c0,0.121 -0.106,0.351 -0.319,0.69Z" style="fill:#fff;fill-rule:nonzero;"/></g></svg>