<?xml version="1.0" standalone="no"?><!DOCTYPE svg PUBLIC "-//W3C//DTD SVG 1.1//EN" "http://www.w3.org/Graphics/SVG/1.1/DTD/svg11.dtd"><svg width="100%" height="100%" viewBox="0 0 23 42" version="1.1" xmlns="http://www.w3.org/2000/svg" xmlns:xlink="http://www.w3.org/1999/xlink" xml:space="preserve" style="fill-rule:evenodd;clip-rule:evenodd;stroke-linejoin:round;stroke-miterlimit:1.41421;"><path id="facebook" d="M21.505,2.487l0,5.96l-3.545,0c-1.294,0 -2.167,0.271 -2.619,0.813c-0.452,0.542 -0.677,1.354 -0.677,2.438l0,4.267l6.615,0l-0.881,6.683l-5.734,0l0,17.136l-6.909,0l0,-17.136l-5.757,0l0,-6.683l5.757,0l0,-4.922c0,-2.799 0.783,-4.97 2.348,-6.513c1.565,-1.543 3.65,-2.314 6.254,-2.314c2.213,0 3.928,0.09 5.148,0.271Z" style="fill:none;stroke-width:1.6px;stroke:#3e1b5a;"/></svg>