<?xml version="1.0" standalone="no"?><!DOCTYPE svg PUBLIC "-//W3C//DTD SVG 1.1//EN" "http://www.w3.org/Graphics/SVG/1.1/DTD/svg11.dtd"><svg width="100%" height="100%" viewBox="0 0 40 42" version="1.1" xmlns="http://www.w3.org/2000/svg" xmlns:xlink="http://www.w3.org/1999/xlink" xml:space="preserve" style="fill-rule:evenodd;clip-rule:evenodd;stroke-linecap:round;stroke-linejoin:round;stroke-miterlimit:1.41421;"><g id="gallery"><g><path d="M38.497,31.531l0,-4.946l0,-20.463c0,-2.219 -1.802,-4.021 -4.021,-4.021l-28.952,0c-2.219,0 -4.021,1.802 -4.021,4.021l0,29.756c0,2.219 1.802,4.021 4.021,4.021l28.952,0c2.219,0 4.021,-1.802 4.021,-4.021" style="fill:none;stroke-width:1.61px;stroke:#3e1b5a;"/></g><circle cx="13.566" cy="13.57" r="3.907" style="fill:none;stroke-width:1.61px;stroke-linecap:butt;stroke:#3e1b5a;"/><path d="M10.104,32.745l-0.078,-0.001l-0.092,-0.005l-0.091,-0.008l-0.091,-0.011l-0.09,-0.014l-0.088,-0.018l-0.088,-0.02l-0.087,-0.023l-0.086,-0.027l-0.085,-0.029l-0.085,-0.032l-0.081,-0.035l-0.08,-0.037l-0.08,-0.04l-0.079,-0.043l-0.076,-0.046l-0.076,-0.048l-0.073,-0.051l-0.071,-0.053l-0.07,-0.055l-0.067,-0.058l-0.068,-0.062l-0.064,-0.063l-0.061,-0.064l-0.06,-0.068l-0.057,-0.069l-0.055,-0.072l-0.054,-0.074l-0.05,-0.076l-0.048,-0.077l-0.045,-0.08l-0.043,-0.082l-0.04,-0.084l-0.037,-0.085l-0.033,-0.084l-0.031,-0.086l-0.027,-0.086l-0.024,-0.087l-0.022,-0.09l-0.018,-0.088l-0.014,-0.087l-0.012,-0.09l-0.009,-0.089l-0.006,-0.088l-0.002,-0.089l0,-0.091l0.004,-0.09l0.006,-0.086l0.009,-0.089l0.013,-0.089l0.016,-0.088l0.018,-0.088l0.022,-0.086l0.024,-0.086l0.028,-0.086l0.03,-0.084l0.034,-0.084l0.036,-0.082l0.04,-0.081l0.042,-0.081l0.046,-0.08l0.049,-0.078l0.051,-0.076l0.045,-0.063l4.609,-6.146l0.073,-0.09l0.079,-0.085l0.086,-0.079l0.09,-0.072l0.096,-0.066l0.1,-0.058l0.104,-0.052l0.107,-0.043l0.111,-0.036l0.112,-0.028l0.115,-0.02l0.115,-0.011l0.116,-0.003l0.116,0.005l0.115,0.014l0.114,0.022l0.112,0.031l0.11,0.038l0.106,0.046l0.103,0.053l0.099,0.061l4.395,2.93l5.195,-8.696l0.064,-0.099l0.071,-0.094l0.078,-0.089l0.085,-0.082l0.09,-0.077l0.095,-0.069l0.1,-0.062l0.104,-0.055l0.109,-0.047l0.111,-0.039l0.114,-0.03l0.116,-0.022l0.117,-0.014l0.117,-0.005l0.118,0.004l0.117,0.012l0.117,0.021l0.114,0.029l0.111,0.038l0.109,0.045l0.105,0.054l0.101,0.061l0.096,0.068l0.091,0.075l0.085,0.081l0.079,0.088l0.073,0.093l0.065,0.098l0.058,0.103l0.05,0.107l5.397,12.633l0.026,0.064l0.029,0.077l0.025,0.076l0.024,0.078l0.021,0.079l0.019,0.078l0.016,0.078l0.013,0.079l0.012,0.081l0.008,0.079l0.007,0.079l0.003,0.082l0.002,0.079l-0.001,0.078l-0.004,0.08l-0.006,0.081l-0.008,0.08l-0.011,0.078l-0.013,0.077l-0.016,0.079l-0.018,0.078l-0.02,0.077l-0.023,0.077l-0.026,0.077l-0.027,0.075l-0.03,0.075l-0.032,0.073l-0.034,0.073l-0.038,0.073l-0.039,0.071l-0.041,0.069l-0.045,0.07l-0.046,0.068l-0.048,0.066l-0.051,0.064l-0.052,0.064l-0.053,0.059l-0.055,0.059l-0.057,0.056l-0.058,0.055l-0.061,0.054l-0.061,0.051l-0.064,0.049l-0.065,0.048l-0.065,0.044l-0.067,0.043l-0.068,0.041l-0.07,0.039l-0.071,0.037l-0.071,0.034l-0.073,0.032l-0.074,0.031l-0.075,0.028l-0.076,0.025l-0.077,0.023l-0.077,0.021l-0.078,0.019l-0.079,0.016l-0.08,0.014l-0.08,0.011l-0.08,0.009l-0.082,0.006l-0.081,0.004l-0.069,0.001l-20.163,0ZM10.118,31.137l20.136,0l0.032,-0.001l0.031,-0.001l0.031,-0.002l0.031,-0.004l0.031,-0.004l0.03,-0.005l0.03,-0.007l0.03,-0.007l0.03,-0.008l0.029,-0.009l0.029,-0.01l0.029,-0.01l0.028,-0.012l0.028,-0.012l0.028,-0.013l0.027,-0.014l0.027,-0.015l0.026,-0.016l0.026,-0.017l0.025,-0.017l0.025,-0.018l0.024,-0.019l0.023,-0.019l0.023,-0.021l0.023,-0.021l0.022,-0.022l0.021,-0.022l0.02,-0.023l0.02,-0.024l0.019,-0.025l0.019,-0.025l0.018,-0.026l0.017,-0.027l0.016,-0.026l0.015,-0.028l0.014,-0.027l0.013,-0.028l0.012,-0.029l0.012,-0.028l0.011,-0.029l0.009,-0.03l0.009,-0.029l0.008,-0.03l0.007,-0.029l0.006,-0.03l0.005,-0.031l0.004,-0.03l0.003,-0.03l0.002,-0.031l0.002,-0.03l0,-0.031l0,-0.03l-0.002,-0.031l-0.002,-0.031l-0.004,-0.03l-0.004,-0.031l-0.005,-0.03l-0.006,-0.03l-0.007,-0.03l-0.008,-0.03l-0.01,-0.03l-0.009,-0.029l-0.011,-0.03l-0.012,-0.029l-5.392,-12.622l-6.062,10.148l-5.801,-3.868l-4.601,6.135l-0.021,0.029l-0.019,0.029l-0.019,0.03l-0.017,0.03l-0.016,0.031l-0.016,0.031l-0.014,0.032l-0.012,0.032l-0.012,0.032l-0.011,0.033l-0.009,0.033l-0.008,0.033l-0.007,0.034l-0.006,0.033l-0.005,0.034l-0.004,0.034l-0.002,0.034l-0.002,0.034l0,0.035l0.001,0.034l0.002,0.034l0.004,0.034l0.004,0.034l0.006,0.034l0.007,0.034l0.008,0.034l0.009,0.033l0.011,0.033l0.011,0.033l0.013,0.033l0.014,0.032l0.016,0.032l0.016,0.032l0.017,0.03l0.019,0.03l0.019,0.029l0.02,0.028l0.022,0.028l0.022,0.027l0.023,0.025l0.023,0.025l0.025,0.024l0.025,0.024l0.026,0.022l0.027,0.021l0.027,0.021l0.029,0.019l0.028,0.019l0.03,0.017l0.03,0.017l0.03,0.015l0.031,0.014l0.032,0.014l0.032,0.012l0.032,0.011l0.033,0.01l0.034,0.009l0.033,0.008l0.034,0.007l0.035,0.005l0.035,0.004l0.034,0.003l0.036,0.002l0.035,0.001Z" style="fill:#3e1b5a;"/></g></svg>