<?xml version="1.0" standalone="no"?><!DOCTYPE svg PUBLIC "-//W3C//DTD SVG 1.1//EN" "http://www.w3.org/Graphics/SVG/1.1/DTD/svg11.dtd"><svg width="100%" height="100%" viewBox="0 0 35 35" version="1.1" xmlns="http://www.w3.org/2000/svg" xmlns:xlink="http://www.w3.org/1999/xlink" xml:space="preserve" style="fill-rule:evenodd;clip-rule:evenodd;stroke-linecap:round;stroke-linejoin:round;stroke-miterlimit:1.41421;"><g id="help"><path d="M27.565,29.333c-2.72,2.24 -6.204,3.586 -10,3.586c-8.692,0 -15.749,-7.057 -15.749,-15.75c0,-8.692 7.057,-15.749 15.749,-15.749c8.692,0 15.749,7.057 15.749,15.749c0,3.63 -1.23,6.975 -3.296,9.639" style="fill:none;stroke-width:1.6px;stroke:#3e1b5a;"/><path d="M17.566,20.55c-0.215,0.001 -0.42,-0.093 -0.562,-0.255c-0.142,-0.163 -0.206,-0.378 -0.177,-0.592c0.039,-0.344 0.094,-0.606 0.171,-0.784c0.13,-0.303 0.47,-0.703 1.022,-1.201c0.536,-0.633 0.918,-1.12 1.145,-1.461c0.227,-0.341 0.341,-0.752 0.341,-1.234c0,-0.574 -0.153,-1.015 -0.459,-1.323c-0.306,-0.308 -0.743,-0.463 -1.311,-0.463c-0.492,0 -0.912,0.134 -1.258,0.402c-0.233,0.18 -0.387,0.417 -0.463,0.711c-0.072,0.262 -0.313,0.44 -0.585,0.432c-0.049,0.02 -0.1,0.018 -0.15,0.017c-0.264,-0.008 -0.506,-0.143 -0.652,-0.363c-0.146,-0.219 -0.176,-0.495 -0.081,-0.741c0.184,-0.384 0.434,-0.727 0.783,-1.018c0.63,-0.525 1.432,-0.787 2.406,-0.787c1.066,0 1.894,0.272 2.484,0.816c0.59,0.544 0.885,1.302 0.885,2.276c0,0.698 -0.191,1.337 -0.573,1.916c-0.381,0.579 -0.886,1.171 -1.513,1.777c-0.293,0.293 -0.47,0.555 -0.532,0.788c-0.025,0.092 -0.045,0.206 -0.06,0.339c-0.062,0.428 -0.428,0.745 -0.86,0.745c0,0.003 0,0.003 -0.001,0.003ZM18.451,23.042c0,0.222 -0.089,0.435 -0.245,0.591c-0.157,0.157 -0.37,0.245 -0.591,0.245c-0.222,0 -0.435,-0.088 -0.592,-0.245c-0.156,-0.156 -0.245,-0.369 -0.245,-0.591c0,-0.005 0,-0.011 0,-0.016c0,-0.222 0.089,-0.434 0.245,-0.591c0.157,-0.157 0.37,-0.245 0.592,-0.245c0.221,0 0.434,0.088 0.591,0.245c0.156,0.157 0.245,0.369 0.245,0.591c0,0.005 0,0.011 0,0.016Z" style="fill:#3e1b5a;fill-rule:nonzero;"/></g></svg>