<?xml version="1.0" standalone="no"?><!DOCTYPE svg PUBLIC "-//W3C//DTD SVG 1.1//EN" "http://www.w3.org/Graphics/SVG/1.1/DTD/svg11.dtd"><svg width="100%" height="100%" viewBox="0 0 35 37" version="1.1" xmlns="http://www.w3.org/2000/svg" xmlns:xlink="http://www.w3.org/1999/xlink" xml:space="preserve" style="fill-rule:evenodd;clip-rule:evenodd;stroke-linejoin:round;stroke-miterlimit:1.41421;"><g id="ico-scratch-card"><path d="M30.684,8.089c0.408,0.015 0.808,0.086 1.193,0.226c0.623,0.228 1.18,0.625 1.603,1.136c0.27,0.327 0.483,0.699 0.629,1.096c0.097,0.263 0.164,0.538 0.199,0.815c0.016,0.126 0.023,0.252 0.029,0.379c0.07,6.842 0.07,13.686 0,20.528c-0.006,0.127 -0.013,0.253 -0.029,0.379c-0.035,0.278 -0.102,0.552 -0.199,0.815c-0.135,0.369 -0.329,0.715 -0.571,1.024c-0.428,0.546 -1.01,0.969 -1.661,1.208c-0.385,0.14 -0.785,0.211 -1.193,0.226c-8.73,0.114 -17.463,0.114 -26.193,0c-0.408,-0.015 -0.808,-0.086 -1.192,-0.226c-0.567,-0.208 -1.081,-0.555 -1.487,-1.001c-0.325,-0.358 -0.579,-0.778 -0.746,-1.231c-0.097,-0.262 -0.163,-0.536 -0.198,-0.813c-0.017,-0.127 -0.024,-0.253 -0.029,-0.381c-0.071,-6.842 -0.071,-13.686 0,-20.528c0.005,-0.128 0.012,-0.254 0.029,-0.381c0.035,-0.277 0.101,-0.551 0.198,-0.813c0.167,-0.453 0.421,-0.873 0.746,-1.231c0.406,-0.446 0.92,-0.793 1.487,-1.001c0.384,-0.14 0.784,-0.211 1.192,-0.226c8.731,-0.108 17.463,-0.108 26.193,0ZM4.592,9.588c-0.266,0.003 -0.527,0.044 -0.778,0.136c-0.617,0.226 -1.113,0.726 -1.341,1.342c-0.084,0.229 -0.125,0.47 -0.135,0.714c-0.07,6.816 -0.07,13.634 0,20.451c0.01,0.243 0.051,0.484 0.135,0.713c0.228,0.616 0.724,1.116 1.341,1.342c0.231,0.084 0.471,0.127 0.715,0.136c8.705,0.113 17.412,0.113 26.117,0c0.245,-0.009 0.485,-0.052 0.715,-0.136c0.618,-0.226 1.113,-0.725 1.341,-1.342c0.085,-0.23 0.125,-0.469 0.135,-0.713c0.07,-6.817 0.07,-13.635 0,-20.451c-0.01,-0.245 -0.05,-0.484 -0.135,-0.714c-0.227,-0.616 -0.723,-1.116 -1.341,-1.342c-0.23,-0.084 -0.47,-0.126 -0.715,-0.136c-8.684,-0.107 -17.369,0 -26.054,0Z" style="fill:#3e1b5a;fill-rule:nonzero;"/><path d="M24.871,1.549c0.157,0.007 0.313,0.018 0.468,0.04c0.332,0.047 0.659,0.135 0.966,0.27c0.22,0.098 0.431,0.219 0.625,0.363c0.201,0.149 0.384,0.323 0.561,0.501c0.078,0.079 0.155,0.161 0.229,0.244c0.47,0.524 0.871,1.163 0.941,1.879c0.012,0.127 0.014,0.255 0.005,0.382c-0.011,0.147 -0.037,0.293 -0.077,0.435c-0.055,0.197 -0.137,0.386 -0.242,0.563c-0.163,0.275 -0.377,0.522 -0.617,0.733c-0.407,0.358 -0.875,0.637 -1.362,0.872c-0.571,0.274 -1.17,0.489 -1.775,0.673c-0.959,0.291 -1.94,0.505 -2.927,0.679c-0.998,0.177 -2.004,0.313 -3.014,0.402l-0.053,0.002c-0.091,-0.001 -0.178,-0.012 -0.263,-0.043c-0.221,-0.078 -0.396,-0.26 -0.465,-0.484c-0.027,-0.085 -0.035,-0.171 -0.033,-0.259c-0.045,-0.043 -0.087,-0.088 -0.128,-0.135c-0.116,-0.138 -0.216,-0.286 -0.293,-0.45c-0.053,-0.112 -0.094,-0.23 -0.125,-0.35c-0.177,-0.706 0.05,-1.44 0.397,-2.057c0.052,-0.093 0.108,-0.184 0.166,-0.273c0.078,-0.122 0.162,-0.241 0.249,-0.357c0.473,-0.629 1.053,-1.177 1.673,-1.658c0.696,-0.539 1.458,-0.999 2.265,-1.35c0.637,-0.277 1.309,-0.487 1.999,-0.578c0.197,-0.026 0.395,-0.039 0.594,-0.045c0.118,-0.001 0.117,-0.001 0.236,0.001ZM24.663,3.048c-0.772,0.024 -1.521,0.262 -2.216,0.586c-0.622,0.289 -1.209,0.653 -1.751,1.073c-0.399,0.309 -0.776,0.649 -1.109,1.028c-0.188,0.213 -0.364,0.439 -0.514,0.681c-0.106,0.171 -0.199,0.351 -0.266,0.541c-0.014,0.041 -0.02,0.059 -0.031,0.101c-0.046,0.164 -0.08,0.368 0.003,0.528c0.061,0.12 0.167,0.192 0.273,0.27l0.041,0.035c0.039,0.038 0.073,0.077 0.106,0.12l0.007,0.011c0.818,-0.092 1.633,-0.21 2.442,-0.359c0.719,-0.133 1.434,-0.29 2.139,-0.487c0.516,-0.144 1.027,-0.31 1.523,-0.515c0.381,-0.158 0.756,-0.34 1.098,-0.572c0.071,-0.048 0.139,-0.098 0.206,-0.151c0.228,-0.181 0.463,-0.411 0.537,-0.703c0.065,-0.253 -0.034,-0.517 -0.157,-0.736c-0.029,-0.051 -0.06,-0.101 -0.092,-0.15c-0.038,-0.056 -0.077,-0.11 -0.118,-0.164c-0.124,-0.161 -0.262,-0.311 -0.406,-0.453c-0.109,-0.107 -0.219,-0.214 -0.342,-0.305c-0.177,-0.131 -0.379,-0.226 -0.591,-0.287c-0.202,-0.058 -0.411,-0.082 -0.62,-0.091c-0.081,-0.002 -0.081,-0.002 -0.162,-0.001Z" style="fill:#3e1b5a;fill-rule:nonzero;"/><path d="M9.49,0.899c1.074,0.017 2.119,0.359 3.084,0.811c0.875,0.411 1.702,0.925 2.471,1.511c0.652,0.496 1.267,1.046 1.807,1.662c0.146,0.165 0.285,0.335 0.417,0.511c0.101,0.134 0.197,0.271 0.287,0.412c0.065,0.102 0.127,0.206 0.185,0.312c0.291,0.528 0.503,1.144 0.408,1.754c-0.012,0.076 -0.03,0.151 -0.051,0.225l0.05,0.01c0.049,0.013 0.062,0.015 0.11,0.034c0.124,0.05 0.235,0.133 0.317,0.24c0.046,0.06 0.084,0.128 0.11,0.2c0.121,0.334 -0.015,0.717 -0.319,0.9c-0.101,0.06 -0.21,0.09 -0.326,0.104c-0.104,0.004 -0.104,0.003 -0.208,0.003c-1.235,-0.007 -2.472,-0.079 -3.7,-0.221c-1.121,-0.128 -2.239,-0.314 -3.33,-0.606c-0.707,-0.19 -1.406,-0.425 -2.067,-0.741c-0.497,-0.239 -0.976,-0.525 -1.397,-0.884c-0.55,-0.468 -0.994,-1.068 -1.191,-1.77c-0.188,-0.67 -0.141,-1.377 0.058,-2.039c0.104,-0.345 0.243,-0.681 0.436,-0.987c0.275,-0.435 0.653,-0.8 1.107,-1.045c0.475,-0.257 1.004,-0.371 1.54,-0.394c0.067,-0.002 0.135,-0.003 0.202,-0.002ZM9.385,2.399c-0.361,0.01 -0.732,0.078 -1.037,0.283c-0.356,0.239 -0.563,0.623 -0.689,1.023c-0.129,0.406 -0.183,0.84 -0.067,1.256c0.142,0.51 0.529,0.909 0.947,1.212c0.328,0.239 0.69,0.43 1.061,0.593c0.472,0.208 0.962,0.372 1.459,0.51c0.712,0.198 1.438,0.343 2.167,0.456c0.994,0.155 1.996,0.248 3.001,0.307l0.091,0.005c0.017,-0.029 0.018,-0.028 0.041,-0.059l0.037,-0.044l0.04,-0.041c0.057,-0.05 0.122,-0.089 0.175,-0.142c0.082,-0.091 0.065,-0.229 0.044,-0.339c-0.004,-0.023 -0.009,-0.046 -0.015,-0.069c-0.01,-0.037 -0.02,-0.073 -0.033,-0.109c-0.019,-0.056 -0.025,-0.072 -0.047,-0.127c-0.098,-0.233 -0.23,-0.451 -0.374,-0.658c-0.208,-0.3 -0.446,-0.579 -0.698,-0.842c-0.479,-0.503 -1.01,-0.954 -1.57,-1.363c-0.657,-0.479 -1.359,-0.902 -2.1,-1.238c-0.375,-0.17 -0.762,-0.318 -1.159,-0.428c-0.386,-0.108 -0.782,-0.18 -1.183,-0.186c-0.046,0 -0.046,-0.001 -0.091,0Z" style="fill:#3e1b5a;fill-rule:nonzero;"/><path d="M17.672,9.025c0.084,0.015 0.163,0.032 0.241,0.07c0.178,0.086 0.317,0.242 0.382,0.428c0.029,0.082 0.038,0.162 0.043,0.248l0,25.402c-0.002,0.028 -0.002,0.056 -0.005,0.084c-0.013,0.111 -0.051,0.22 -0.11,0.315c-0.152,0.241 -0.436,0.378 -0.719,0.346c-0.084,-0.01 -0.166,-0.033 -0.242,-0.07c-0.076,-0.036 -0.145,-0.086 -0.205,-0.145c-0.099,-0.099 -0.169,-0.226 -0.201,-0.363c-0.016,-0.074 -0.014,-0.093 -0.018,-0.167l0,-25.402c0.004,-0.086 0.013,-0.166 0.042,-0.248c0.074,-0.214 0.246,-0.385 0.46,-0.46c0.082,-0.029 0.162,-0.037 0.248,-0.042c0.028,0.001 0.056,0.003 0.084,0.004Z" style="fill:#3e1b5a;fill-rule:nonzero;"/><path d="M33.682,21.261c0.082,0.016 0.104,0.016 0.182,0.047c0.117,0.046 0.221,0.122 0.301,0.219c0.227,0.274 0.227,0.682 0,0.956c-0.06,0.073 -0.133,0.134 -0.216,0.179c-0.083,0.046 -0.174,0.075 -0.267,0.087c-0.032,0.004 -0.063,0.004 -0.094,0.006l-32,0c-0.032,-0.002 -0.063,-0.002 -0.094,-0.006c-0.094,-0.012 -0.185,-0.041 -0.268,-0.087c-0.252,-0.138 -0.405,-0.417 -0.387,-0.704c0.006,-0.094 0.03,-0.187 0.07,-0.272c0.04,-0.086 0.096,-0.163 0.165,-0.228c0.092,-0.086 0.205,-0.148 0.327,-0.179c0.081,-0.021 0.103,-0.019 0.187,-0.024l32,0c0.031,0.002 0.062,0.004 0.094,0.006Z" style="fill:#3e1b5a;fill-rule:nonzero;"/><path d="M17.621,9.021c0.077,0.006 0.149,0.02 0.222,0.045c1.676,0.656 3.336,1.355 4.976,2.096c0.103,0.053 0.193,0.121 0.265,0.212c0.062,0.08 0.108,0.173 0.134,0.271c0.087,0.326 -0.062,0.68 -0.356,0.846c-0.066,0.037 -0.138,0.064 -0.212,0.08c-0.139,0.03 -0.278,0.016 -0.412,-0.028c-1.676,-0.657 -3.336,-1.356 -4.976,-2.097c-0.126,-0.064 -0.232,-0.154 -0.308,-0.274c-0.041,-0.065 -0.072,-0.135 -0.091,-0.208c-0.087,-0.327 0.062,-0.681 0.356,-0.847c0.101,-0.056 0.211,-0.086 0.326,-0.095c0.038,-0.001 0.038,-0.001 0.076,-0.001Z" style="fill:#3e1b5a;fill-rule:nonzero;"/><path d="M17.621,9.021c0.119,0.009 0.232,0.038 0.336,0.097c0.28,0.159 0.43,0.488 0.365,0.803c-0.015,0.077 -0.043,0.151 -0.082,0.22c-0.072,0.127 -0.179,0.225 -0.307,0.295c-1.738,0.847 -3.5,1.648 -5.281,2.402c-0.137,0.05 -0.28,0.066 -0.424,0.037c-0.329,-0.067 -0.578,-0.355 -0.599,-0.69c-0.004,-0.078 0.003,-0.157 0.023,-0.233c0.023,-0.089 0.063,-0.173 0.116,-0.248c0.069,-0.097 0.16,-0.172 0.264,-0.229c1.739,-0.847 3.5,-1.648 5.281,-2.402c0.075,-0.028 0.15,-0.044 0.229,-0.051c0.04,-0.001 0.039,-0.001 0.079,-0.001Z" style="fill:#3e1b5a;fill-rule:nonzero;"/></g></svg>