<?xml version="1.0" standalone="no"?><!DOCTYPE svg PUBLIC "-//W3C//DTD SVG 1.1//EN" "http://www.w3.org/Graphics/SVG/1.1/DTD/svg11.dtd"><svg width="100%" height="100%" viewBox="0 0 41 39" version="1.1" xmlns="http://www.w3.org/2000/svg" xmlns:xlink="http://www.w3.org/1999/xlink" xml:space="preserve" style="fill-rule:evenodd;clip-rule:evenodd;stroke-linejoin:round;stroke-miterlimit:1.41421;"><g id="ico-notifications"><path d="M37.007,0.855c0.355,0.013 0.704,0.075 1.039,0.197c0.919,0.337 1.655,1.091 1.969,2.018c0.114,0.337 0.167,0.687 0.172,1.042l0,18.993c-0.003,0.034 -0.003,0.068 -0.007,0.102c-0.014,0.102 -0.049,0.2 -0.102,0.288c-0.183,0.3 -0.562,0.434 -0.892,0.317c-0.097,-0.035 -0.186,-0.089 -0.261,-0.159c-0.1,-0.093 -0.173,-0.214 -0.21,-0.346c-0.025,-0.088 -0.022,-0.112 -0.028,-0.202c0,-6.345 0.091,-12.69 -0.001,-19.034c-0.006,-0.176 -0.035,-0.351 -0.092,-0.519c-0.169,-0.501 -0.568,-0.909 -1.065,-1.091c-0.18,-0.066 -0.368,-0.099 -0.56,-0.107c-10.92,-0.139 -21.843,-0.139 -32.763,0c-0.192,0.008 -0.38,0.041 -0.56,0.107c-0.497,0.182 -0.895,0.59 -1.065,1.091c-0.057,0.168 -0.085,0.342 -0.092,0.519c-0.112,7.699 -0.112,15.399 0,23.097c0.007,0.177 0.035,0.352 0.092,0.52c0.17,0.501 0.568,0.909 1.065,1.091c0.196,0.072 0.401,0.104 0.61,0.107l7.149,0c0.032,0.002 0.065,0.002 0.098,0.006c0.065,0.009 0.128,0.026 0.189,0.051c0.213,0.089 0.377,0.275 0.437,0.499c0.023,0.084 0.02,0.107 0.026,0.194l0,6.431l6.961,-6.961l0.074,-0.065c0.072,-0.048 0.089,-0.064 0.17,-0.098c0.06,-0.025 0.124,-0.042 0.189,-0.051c0.032,-0.004 0.065,-0.004 0.098,-0.006c5.774,0 11.549,0.073 17.322,-0.001c0.192,-0.007 0.38,-0.04 0.56,-0.106c0.468,-0.171 0.854,-0.545 1.035,-1.009c0.083,-0.212 0.12,-0.432 0.123,-0.658l0.008,-0.102c0.02,-0.089 0.021,-0.113 0.058,-0.196c0.057,-0.125 0.147,-0.233 0.26,-0.31c0.085,-0.058 0.181,-0.098 0.282,-0.118c0.345,-0.066 0.699,0.124 0.834,0.448c0.061,0.147 0.062,0.301 0.054,0.457c-0.014,0.272 -0.062,0.542 -0.143,0.802c-0.095,0.303 -0.233,0.592 -0.411,0.855c-0.383,0.565 -0.942,1.005 -1.583,1.24c-0.36,0.131 -0.736,0.193 -1.117,0.198l-16.972,0l-8.022,8.022l-0.078,0.069c-0.029,0.018 -0.057,0.039 -0.087,0.056c-0.061,0.034 -0.126,0.059 -0.194,0.075c-0.347,0.082 -0.713,-0.101 -0.857,-0.427c-0.028,-0.064 -0.047,-0.131 -0.057,-0.199c-0.005,-0.035 -0.005,-0.069 -0.007,-0.104l0,-7.492c-2.162,0 -4.325,0.027 -6.487,-0.001c-0.083,-0.003 -0.083,-0.003 -0.167,-0.008c-0.378,-0.034 -0.746,-0.123 -1.093,-0.28c-0.817,-0.37 -1.46,-1.078 -1.748,-1.928c-0.106,-0.311 -0.158,-0.634 -0.17,-0.962c-0.113,-7.724 -0.113,-15.45 0,-23.174c0.012,-0.328 0.064,-0.651 0.17,-0.963c0.314,-0.927 1.05,-1.681 1.97,-2.018c0.334,-0.122 0.683,-0.184 1.038,-0.197c10.946,-0.14 21.894,-0.14 32.839,0Z" style="fill:#3e1b5a;fill-rule:nonzero;"/><g><circle cx="14.066" cy="16.103" r="1.933" style="fill:#3e1b5a;"/><circle cx="20.588" cy="16.103" r="1.933" style="fill:#3e1b5a;"/><circle cx="27.109" cy="16.103" r="1.933" style="fill:#3e1b5a;"/></g></g></svg>