<?xml version="1.0" standalone="no"?><!DOCTYPE svg PUBLIC "-//W3C//DTD SVG 1.1//EN" "http://www.w3.org/Graphics/SVG/1.1/DTD/svg11.dtd"><svg width="100%" height="100%" viewBox="0 0 43 43" version="1.1" xmlns="http://www.w3.org/2000/svg" xmlns:xlink="http://www.w3.org/1999/xlink" xml:space="preserve" style="fill-rule:evenodd;clip-rule:evenodd;stroke-linecap:round;stroke-linejoin:round;stroke-miterlimit:1.41421;"><g id="ico-store"><path d="M13.501,25.373c0,0 12.971,-1.399 18.677,-2.015c1.642,-0.177 3.076,-1.19 3.792,-2.678c1.152,-2.395 2.924,-6.079 4.144,-8.616c0.294,-0.611 0.254,-1.33 -0.107,-1.904c-0.361,-0.574 -0.991,-0.922 -1.669,-0.922c-8.005,0 -28.568,0 -28.568,0" style="fill:none;stroke-width:1.6px;stroke:#352542;"/><path d="M1.542,2.131c0,0 3.372,0.716 5.316,1.128c0.815,0.173 1.453,0.808 1.629,1.623c0.96,4.443 4.044,18.708 5.142,23.785c0.228,1.059 1.165,1.815 2.249,1.815c5.234,0 19.733,0 19.733,0" style="fill:none;stroke-width:1.6px;stroke:#352542;"/><path d="M19.061,32.216l0.113,0.005l0.11,0.007l0.114,0.01l0.112,0.013l0.11,0.015l0.109,0.018l0.109,0.021l0.108,0.024l0.105,0.025l0.106,0.029l0.106,0.031l0.107,0.035l0.104,0.037l0.097,0.037l0.097,0.039l0.101,0.044l0.102,0.048l0.095,0.048l0.092,0.048l0.094,0.052l0.095,0.057l0.088,0.055l0.093,0.06l0.085,0.06l0.084,0.061l0.086,0.066l0.082,0.066l0.084,0.071l0.076,0.068l0.077,0.072l0.078,0.075l0.075,0.078l0.072,0.077l0.067,0.075l0.07,0.083l0.069,0.086l0.063,0.082l0.064,0.088l0.059,0.085l0.057,0.086l0.061,0.097l0.054,0.092l0.049,0.088l0.053,0.1l0.047,0.096l0.043,0.091l0.045,0.103l0.043,0.104l0.037,0.1l0.035,0.098l0.035,0.107l0.032,0.107l0.027,0.102l0.027,0.107l0.023,0.109l0.022,0.109l0.017,0.11l0.016,0.109l0.013,0.116l0.01,0.11l0.007,0.111l0.004,0.11l0.002,0.117l-0.002,0.116l-0.004,0.111l-0.007,0.11l-0.01,0.11l-0.013,0.116l-0.016,0.109l-0.017,0.11l-0.022,0.109l-0.023,0.109l-0.027,0.107l-0.027,0.102l-0.032,0.108l-0.035,0.106l-0.035,0.098l-0.037,0.1l-0.043,0.105l-0.045,0.102l-0.043,0.091l-0.046,0.095l-0.054,0.101l-0.05,0.09l-0.053,0.09l-0.061,0.097l-0.057,0.086l-0.059,0.085l-0.064,0.088l-0.063,0.082l-0.069,0.086l-0.07,0.083l-0.066,0.074l-0.073,0.079l-0.077,0.079l-0.076,0.074l-0.077,0.071l-0.076,0.068l-0.082,0.069l-0.084,0.068l-0.086,0.066l-0.084,0.061l-0.088,0.061l-0.09,0.059l-0.088,0.056l-0.095,0.056l-0.094,0.052l-0.092,0.048l-0.095,0.048l-0.102,0.048l-0.101,0.044l-0.097,0.039l-0.097,0.037l-0.104,0.037l-0.107,0.035l-0.103,0.031l-0.109,0.029l-0.108,0.026l-0.105,0.023l-0.109,0.021l-0.109,0.018l-0.11,0.015l-0.112,0.014l-0.111,0.009l-0.113,0.008l-0.113,0.004l-0.114,0.001l-0.114,-0.001l-0.113,-0.004l-0.114,-0.008l-0.109,-0.009l-0.114,-0.014l-0.109,-0.015l-0.11,-0.018l-0.108,-0.021l-0.106,-0.023l-0.109,-0.026l-0.107,-0.029l-0.103,-0.031l-0.105,-0.034l-0.104,-0.037l-0.1,-0.038l-0.099,-0.04l-0.1,-0.044l-0.097,-0.046l-0.096,-0.047l-0.098,-0.052l-0.093,-0.052l-0.092,-0.054l-0.088,-0.056l-0.087,-0.057l-0.091,-0.063l-0.087,-0.063l-0.083,-0.064l-0.081,-0.065l-0.086,-0.072l-0.078,-0.071l-0.074,-0.068l-0.076,-0.074l-0.074,-0.076l-0.077,-0.082l-0.068,-0.078l-0.067,-0.079l-0.069,-0.086l-0.063,-0.082l-0.061,-0.083l-0.062,-0.09l-0.06,-0.09l-0.058,-0.093l-0.053,-0.09l-0.05,-0.09l-0.051,-0.096l-0.05,-0.1l-0.045,-0.097l-0.042,-0.096l-0.04,-0.099l-0.041,-0.106l-0.036,-0.104l-0.033,-0.1l-0.03,-0.102l-0.03,-0.108l-0.027,-0.113l-0.022,-0.103l-0.022,-0.109l-0.017,-0.11l-0.016,-0.109l-0.012,-0.11l-0.011,-0.11l-0.007,-0.116l-0.005,-0.117l-0.001,-0.11l0.001,-0.111l0.005,-0.116l0.007,-0.117l0.011,-0.11l0.012,-0.11l0.016,-0.109l0.017,-0.11l0.022,-0.109l0.022,-0.103l0.027,-0.113l0.03,-0.107l0.03,-0.102l0.033,-0.101l0.036,-0.104l0.041,-0.106l0.04,-0.098l0.042,-0.097l0.045,-0.097l0.051,-0.101l0.05,-0.095l0.049,-0.088l0.054,-0.092l0.058,-0.093l0.06,-0.09l0.062,-0.09l0.061,-0.083l0.063,-0.082l0.069,-0.086l0.067,-0.079l0.07,-0.079l0.075,-0.081l0.072,-0.074l0.078,-0.075l0.074,-0.069l0.078,-0.071l0.088,-0.074l0.079,-0.063l0.083,-0.064l0.087,-0.063l0.089,-0.062l0.089,-0.058l0.088,-0.055l0.092,-0.055l0.093,-0.052l0.098,-0.052l0.096,-0.047l0.097,-0.046l0.1,-0.044l0.099,-0.04l0.1,-0.038l0.104,-0.037l0.105,-0.034l0.106,-0.031l0.104,-0.028l0.106,-0.026l0.109,-0.024l0.108,-0.021l0.11,-0.018l0.109,-0.015l0.114,-0.013l0.113,-0.01l0.11,-0.007l0.113,-0.005l0.114,-0.001l0.114,0.001ZM18.874,33.816l-0.073,0.003l-0.072,0.004l-0.071,0.007l-0.071,0.008l-0.071,0.01l-0.07,0.011l-0.069,0.014l-0.069,0.015l-0.068,0.016l-0.068,0.018l-0.066,0.02l-0.066,0.022l-0.066,0.023l-0.064,0.025l-0.064,0.026l-0.063,0.027l-0.063,0.029l-0.061,0.031l-0.061,0.032l-0.059,0.033l-0.059,0.035l-0.058,0.036l-0.057,0.038l-0.056,0.039l-0.055,0.04l-0.054,0.041l-0.053,0.043l-0.052,0.044l-0.051,0.045l-0.05,0.046l-0.048,0.047l-0.048,0.049l-0.046,0.05l-0.045,0.051l-0.044,0.052l-0.043,0.052l-0.041,0.054l-0.04,0.055l-0.039,0.056l-0.037,0.057l-0.037,0.058l-0.034,0.059l-0.034,0.06l-0.032,0.06l-0.03,0.062l-0.029,0.062l-0.028,0.063l-0.026,0.064l-0.025,0.065l-0.023,0.065l-0.021,0.066l-0.02,0.067l-0.018,0.068l-0.017,0.068l-0.015,0.068l-0.013,0.07l-0.012,0.07l-0.01,0.07l-0.008,0.071l-0.006,0.072l-0.005,0.072l-0.003,0.073l-0.001,0.073l0.001,0.073l0.003,0.072l0.005,0.072l0.006,0.072l0.008,0.071l0.01,0.07l0.012,0.07l0.013,0.07l0.015,0.068l0.017,0.069l0.018,0.067l0.02,0.067l0.021,0.066l0.023,0.065l0.025,0.065l0.026,0.064l0.028,0.063l0.029,0.062l0.03,0.062l0.032,0.06l0.034,0.06l0.034,0.059l0.037,0.058l0.037,0.057l0.039,0.056l0.04,0.055l0.041,0.054l0.043,0.053l0.044,0.052l0.045,0.05l0.046,0.05l0.048,0.049l0.048,0.047l0.05,0.046l0.051,0.046l0.052,0.043l0.053,0.043l0.054,0.041l0.055,0.041l0.056,0.038l0.057,0.038l0.058,0.036l0.059,0.035l0.059,0.033l0.061,0.032l0.061,0.031l0.063,0.029l0.063,0.028l0.064,0.026l0.064,0.024l0.066,0.023l0.066,0.022l0.066,0.02l0.068,0.018l0.068,0.017l0.069,0.015l0.069,0.013l0.07,0.011l0.071,0.01l0.071,0.008l0.071,0.007l0.072,0.004l0.073,0.003l0.073,0.001l0.073,-0.001l0.073,-0.003l0.072,-0.004l0.071,-0.007l0.071,-0.008l0.071,-0.01l0.07,-0.011l0.069,-0.013l0.069,-0.015l0.068,-0.017l0.067,-0.018l0.067,-0.02l0.066,-0.022l0.066,-0.023l0.064,-0.024l0.064,-0.026l0.063,-0.028l0.063,-0.029l0.061,-0.031l0.061,-0.032l0.059,-0.033l0.059,-0.035l0.058,-0.036l0.057,-0.038l0.056,-0.038l0.055,-0.041l0.054,-0.041l0.053,-0.043l0.052,-0.043l0.051,-0.046l0.049,-0.046l0.049,-0.047l0.048,-0.049l0.046,-0.05l0.045,-0.05l0.044,-0.052l0.042,-0.053l0.042,-0.054l0.04,-0.055l0.039,-0.056l0.037,-0.057l0.036,-0.058l0.035,-0.059l0.034,-0.06l0.032,-0.06l0.03,-0.062l0.029,-0.062l0.028,-0.063l0.026,-0.064l0.025,-0.065l0.023,-0.065l0.021,-0.066l0.02,-0.067l0.018,-0.067l0.017,-0.069l0.015,-0.068l0.013,-0.07l0.012,-0.07l0.01,-0.07l0.008,-0.071l0.006,-0.072l0.005,-0.072l0.003,-0.072l0,-0.073l0,-0.073l-0.003,-0.073l-0.005,-0.072l-0.006,-0.072l-0.008,-0.071l-0.01,-0.07l-0.012,-0.07l-0.013,-0.07l-0.015,-0.068l-0.017,-0.068l-0.018,-0.068l-0.02,-0.067l-0.021,-0.066l-0.023,-0.065l-0.025,-0.065l-0.026,-0.064l-0.028,-0.063l-0.029,-0.062l-0.03,-0.062l-0.032,-0.06l-0.034,-0.06l-0.035,-0.059l-0.036,-0.058l-0.037,-0.057l-0.039,-0.056l-0.04,-0.055l-0.042,-0.054l-0.042,-0.052l-0.044,-0.052l-0.045,-0.051l-0.046,-0.05l-0.048,-0.049l-0.049,-0.047l-0.049,-0.046l-0.051,-0.045l-0.052,-0.044l-0.053,-0.043l-0.054,-0.041l-0.055,-0.04l-0.056,-0.039l-0.057,-0.038l-0.058,-0.036l-0.059,-0.035l-0.059,-0.033l-0.061,-0.032l-0.061,-0.031l-0.063,-0.029l-0.063,-0.027l-0.064,-0.026l-0.064,-0.025l-0.066,-0.023l-0.066,-0.022l-0.067,-0.02l-0.067,-0.018l-0.068,-0.016l-0.069,-0.015l-0.069,-0.014l-0.07,-0.011l-0.071,-0.01l-0.071,-0.008l-0.071,-0.007l-0.072,-0.004l-0.073,-0.003l-0.073,-0.001l-0.073,0.001Z" style="fill:#352542;"/><path d="M30.248,32.216l0.114,0.005l0.111,0.007l0.112,0.01l0.114,0.013l0.109,0.015l0.109,0.018l0.11,0.021l0.109,0.024l0.103,0.025l0.105,0.028l0.109,0.033l0.105,0.034l0.102,0.036l0.1,0.038l0.099,0.04l0.1,0.044l0.097,0.046l0.096,0.047l0.098,0.052l0.093,0.052l0.089,0.053l0.092,0.057l0.092,0.06l0.085,0.06l0.084,0.061l0.086,0.066l0.082,0.066l0.081,0.069l0.083,0.073l0.077,0.072l0.074,0.072l0.072,0.074l0.072,0.077l0.074,0.083l0.069,0.083l0.063,0.078l0.067,0.086l0.063,0.088l0.059,0.085l0.06,0.09l0.055,0.088l0.054,0.092l0.056,0.098l0.049,0.095l0.048,0.096l0.045,0.097l0.042,0.097l0.041,0.098l0.038,0.1l0.037,0.104l0.035,0.107l0.032,0.107l0.028,0.108l0.025,0.101l0.024,0.109l0.021,0.109l0.018,0.11l0.015,0.109l0.013,0.11l0.01,0.116l0.007,0.111l0.005,0.116l0.001,0.111l-0.001,0.11l-0.005,0.117l-0.007,0.11l-0.01,0.116l-0.013,0.11l-0.015,0.109l-0.019,0.11l-0.02,0.109l-0.024,0.109l-0.025,0.101l-0.028,0.108l-0.032,0.108l-0.035,0.106l-0.037,0.104l-0.038,0.1l-0.041,0.099l-0.042,0.096l-0.045,0.097l-0.047,0.095l-0.051,0.096l-0.055,0.1l-0.054,0.09l-0.055,0.088l-0.06,0.09l-0.059,0.085l-0.063,0.088l-0.067,0.086l-0.063,0.078l-0.069,0.083l-0.072,0.081l-0.074,0.079l-0.074,0.076l-0.072,0.07l-0.077,0.072l-0.083,0.074l-0.079,0.067l-0.084,0.067l-0.086,0.066l-0.084,0.061l-0.088,0.061l-0.089,0.059l-0.092,0.057l-0.089,0.053l-0.093,0.052l-0.098,0.052l-0.096,0.047l-0.097,0.046l-0.1,0.044l-0.099,0.04l-0.1,0.038l-0.102,0.036l-0.105,0.034l-0.106,0.032l-0.108,0.029l-0.106,0.026l-0.106,0.023l-0.11,0.021l-0.109,0.018l-0.109,0.015l-0.114,0.014l-0.109,0.009l-0.114,0.008l-0.114,0.004l-0.113,0.001l-0.114,-0.001l-0.113,-0.004l-0.113,-0.008l-0.11,-0.009l-0.112,-0.013l-0.111,-0.016l-0.109,-0.018l-0.109,-0.021l-0.107,-0.023l-0.106,-0.026l-0.107,-0.029l-0.107,-0.032l-0.105,-0.034l-0.101,-0.036l-0.1,-0.038l-0.099,-0.04l-0.101,-0.044l-0.097,-0.046l-0.096,-0.047l-0.097,-0.052l-0.093,-0.052l-0.089,-0.053l-0.092,-0.057l-0.09,-0.059l-0.088,-0.061l-0.083,-0.061l-0.087,-0.066l-0.083,-0.067l-0.08,-0.067l-0.079,-0.071l-0.081,-0.075l-0.075,-0.074l-0.07,-0.072l-0.074,-0.079l-0.072,-0.081l-0.066,-0.079l-0.067,-0.082l-0.066,-0.086l-0.064,-0.088l-0.062,-0.089l-0.056,-0.086l-0.055,-0.088l-0.054,-0.09l-0.056,-0.1l-0.05,-0.096l-0.044,-0.089l-0.049,-0.103l-0.044,-0.102l-0.038,-0.093l-0.038,-0.1l-0.037,-0.104l-0.035,-0.106l-0.032,-0.108l-0.029,-0.108l-0.024,-0.101l-0.024,-0.109l-0.021,-0.109l-0.018,-0.11l-0.015,-0.109l-0.014,-0.11l-0.01,-0.116l-0.007,-0.11l-0.004,-0.111l-0.002,-0.116l0.002,-0.117l0.004,-0.11l0.007,-0.111l0.01,-0.116l0.014,-0.11l0.015,-0.109l0.018,-0.11l0.021,-0.109l0.024,-0.109l0.024,-0.101l0.029,-0.108l0.032,-0.107l0.035,-0.107l0.037,-0.104l0.038,-0.1l0.038,-0.093l0.044,-0.102l0.049,-0.102l0.045,-0.091l0.049,-0.095l0.055,-0.098l0.055,-0.092l0.055,-0.088l0.056,-0.086l0.062,-0.089l0.064,-0.088l0.066,-0.086l0.067,-0.082l0.066,-0.079l0.074,-0.083l0.072,-0.077l0.069,-0.071l0.076,-0.075l0.081,-0.075l0.079,-0.07l0.082,-0.069l0.081,-0.066l0.087,-0.066l0.083,-0.061l0.086,-0.06l0.092,-0.06l0.092,-0.057l0.089,-0.053l0.093,-0.052l0.097,-0.052l0.096,-0.047l0.097,-0.046l0.101,-0.044l0.099,-0.04l0.1,-0.038l0.101,-0.036l0.105,-0.034l0.11,-0.033l0.104,-0.028l0.103,-0.025l0.11,-0.024l0.109,-0.021l0.109,-0.018l0.111,-0.015l0.112,-0.013l0.113,-0.01l0.11,-0.007l0.113,-0.005l0.114,-0.001l0.113,0.001ZM30.062,33.816l-0.072,0.003l-0.072,0.004l-0.072,0.007l-0.071,0.008l-0.071,0.01l-0.069,0.011l-0.07,0.014l-0.069,0.015l-0.068,0.016l-0.067,0.018l-0.067,0.02l-0.066,0.022l-0.066,0.023l-0.064,0.025l-0.064,0.026l-0.063,0.027l-0.062,0.029l-0.062,0.031l-0.06,0.032l-0.06,0.033l-0.059,0.035l-0.058,0.036l-0.057,0.038l-0.056,0.039l-0.055,0.04l-0.054,0.041l-0.053,0.043l-0.052,0.044l-0.05,0.045l-0.05,0.046l-0.049,0.047l-0.047,0.049l-0.047,0.05l-0.045,0.051l-0.044,0.052l-0.042,0.052l-0.042,0.054l-0.04,0.055l-0.039,0.056l-0.037,0.057l-0.036,0.058l-0.035,0.059l-0.033,0.06l-0.032,0.06l-0.031,0.062l-0.029,0.062l-0.028,0.063l-0.026,0.064l-0.024,0.065l-0.023,0.065l-0.022,0.066l-0.02,0.067l-0.018,0.068l-0.017,0.068l-0.015,0.068l-0.013,0.07l-0.012,0.07l-0.009,0.07l-0.009,0.071l-0.006,0.072l-0.005,0.072l-0.002,0.073l-0.001,0.073l0.001,0.073l0.002,0.072l0.005,0.072l0.006,0.072l0.009,0.071l0.009,0.07l0.012,0.07l0.013,0.07l0.015,0.068l0.017,0.069l0.018,0.067l0.02,0.067l0.022,0.066l0.023,0.065l0.024,0.065l0.026,0.064l0.028,0.063l0.029,0.062l0.031,0.062l0.032,0.06l0.033,0.06l0.035,0.059l0.036,0.058l0.037,0.057l0.039,0.056l0.04,0.055l0.042,0.054l0.042,0.053l0.044,0.052l0.045,0.05l0.047,0.05l0.047,0.049l0.049,0.047l0.05,0.046l0.05,0.046l0.052,0.043l0.053,0.043l0.054,0.041l0.055,0.041l0.056,0.038l0.057,0.038l0.058,0.036l0.059,0.035l0.06,0.033l0.06,0.032l0.062,0.031l0.062,0.029l0.063,0.028l0.064,0.026l0.064,0.024l0.066,0.023l0.066,0.022l0.067,0.02l0.067,0.018l0.068,0.017l0.069,0.015l0.07,0.013l0.069,0.011l0.071,0.01l0.071,0.008l0.072,0.007l0.072,0.004l0.072,0.003l0.073,0.001l0.073,-0.001l0.073,-0.003l0.072,-0.004l0.072,-0.007l0.071,-0.008l0.07,-0.01l0.07,-0.011l0.069,-0.013l0.069,-0.015l0.068,-0.017l0.068,-0.018l0.067,-0.02l0.066,-0.022l0.065,-0.023l0.065,-0.024l0.064,-0.026l0.063,-0.028l0.062,-0.029l0.061,-0.031l0.061,-0.032l0.06,-0.033l0.059,-0.035l0.057,-0.036l0.057,-0.038l0.056,-0.038l0.055,-0.041l0.054,-0.041l0.053,-0.043l0.052,-0.043l0.051,-0.046l0.05,-0.046l0.048,-0.047l0.048,-0.049l0.046,-0.05l0.045,-0.05l0.044,-0.052l0.043,-0.053l0.041,-0.054l0.04,-0.055l0.039,-0.056l0.038,-0.057l0.036,-0.058l0.035,-0.059l0.033,-0.06l0.032,-0.06l0.031,-0.062l0.029,-0.062l0.027,-0.063l0.026,-0.064l0.025,-0.065l0.023,-0.065l0.021,-0.066l0.02,-0.067l0.019,-0.067l0.016,-0.069l0.015,-0.068l0.014,-0.07l0.011,-0.07l0.01,-0.07l0.008,-0.071l0.007,-0.072l0.004,-0.072l0.003,-0.072l0.001,-0.073l-0.001,-0.073l-0.003,-0.073l-0.004,-0.072l-0.007,-0.072l-0.008,-0.071l-0.01,-0.07l-0.011,-0.07l-0.014,-0.07l-0.015,-0.068l-0.016,-0.068l-0.019,-0.068l-0.02,-0.067l-0.021,-0.066l-0.023,-0.065l-0.025,-0.065l-0.026,-0.064l-0.027,-0.063l-0.029,-0.062l-0.031,-0.062l-0.032,-0.06l-0.033,-0.06l-0.035,-0.059l-0.036,-0.058l-0.038,-0.057l-0.039,-0.056l-0.04,-0.055l-0.041,-0.054l-0.043,-0.052l-0.044,-0.052l-0.045,-0.051l-0.046,-0.05l-0.048,-0.049l-0.048,-0.047l-0.05,-0.046l-0.051,-0.045l-0.052,-0.044l-0.053,-0.043l-0.054,-0.041l-0.055,-0.04l-0.056,-0.039l-0.057,-0.038l-0.057,-0.036l-0.059,-0.035l-0.06,-0.033l-0.061,-0.032l-0.061,-0.031l-0.062,-0.029l-0.063,-0.027l-0.064,-0.026l-0.065,-0.025l-0.065,-0.023l-0.066,-0.022l-0.067,-0.02l-0.068,-0.018l-0.068,-0.016l-0.069,-0.015l-0.069,-0.014l-0.07,-0.011l-0.07,-0.01l-0.071,-0.008l-0.072,-0.007l-0.072,-0.004l-0.073,-0.003l-0.073,-0.001l-0.073,0.001Z" style="fill:#352542;"/></g></svg>