<?xml version="1.0" standalone="no"?><!DOCTYPE svg PUBLIC "-//W3C//DTD SVG 1.1//EN" "http://www.w3.org/Graphics/SVG/1.1/DTD/svg11.dtd"><svg width="100%" height="100%" viewBox="0 0 49 31" version="1.1" xmlns="http://www.w3.org/2000/svg" xmlns:xlink="http://www.w3.org/1999/xlink" xml:space="preserve" style="fill-rule:evenodd;clip-rule:evenodd;stroke-linejoin:round;stroke-miterlimit:1.41421;"><g id="ico-coupons"><path d="M42.662,0.569c0.743,0.014 1.478,0.162 2.164,0.452c0.979,0.414 1.833,1.103 2.45,1.969c0.282,0.396 0.513,0.83 0.687,1.285c0.241,0.628 0.362,1.297 0.374,1.969l0.001,0.071l0,6.516l-0.741,0.75c-0.052,0.001 -0.105,0.003 -0.157,0.006c-0.049,0.004 -0.097,0.01 -0.145,0.016c-0.233,0.039 -0.456,0.114 -0.661,0.232c-0.417,0.24 -0.735,0.635 -0.879,1.095c-0.072,0.231 -0.099,0.477 -0.08,0.718c0.015,0.206 0.065,0.408 0.145,0.598c0.09,0.213 0.219,0.41 0.379,0.577c0.17,0.178 0.374,0.325 0.6,0.426c0.252,0.114 0.522,0.166 0.798,0.17l0.741,0.75c0,2.219 0.037,4.439 -0.002,6.658c-0.003,0.099 -0.009,0.198 -0.015,0.297c-0.024,0.264 -0.058,0.526 -0.115,0.785c-0.115,0.528 -0.305,1.039 -0.563,1.513c-0.676,1.243 -1.81,2.214 -3.145,2.684c-0.591,0.208 -1.21,0.313 -1.836,0.325c-12.074,0.08 -24.151,0.228 -36.223,-0.001c-0.765,-0.025 -1.519,-0.191 -2.218,-0.507c-0.883,-0.4 -1.658,-1.025 -2.24,-1.801c-0.306,-0.408 -0.553,-0.857 -0.743,-1.33c-0.26,-0.646 -0.387,-1.342 -0.4,-2.036l0,-0.071l0,-6.516l0.74,-0.75c0.053,-0.001 0.105,-0.003 0.158,-0.006c0.048,-0.004 0.096,-0.01 0.144,-0.016c0.249,-0.042 0.486,-0.125 0.702,-0.256c0.412,-0.25 0.719,-0.655 0.852,-1.117c0.062,-0.217 0.084,-0.447 0.067,-0.672c-0.016,-0.206 -0.065,-0.408 -0.145,-0.598c-0.09,-0.213 -0.22,-0.41 -0.379,-0.577c-0.171,-0.179 -0.376,-0.324 -0.602,-0.427c-0.252,-0.114 -0.521,-0.165 -0.797,-0.169l-0.74,-0.75c0,-2.219 -0.038,-4.439 0.002,-6.658c0.002,-0.098 0.008,-0.196 0.014,-0.293c0.047,-0.571 0.169,-1.139 0.384,-1.672c0.19,-0.473 0.437,-0.922 0.743,-1.33c0.582,-0.776 1.357,-1.401 2.24,-1.801c0.699,-0.316 1.453,-0.482 2.218,-0.507c12.072,-0.229 24.149,-0.075 36.223,-0.001ZM6.59,2.069c-0.603,0.003 -1.2,0.126 -1.75,0.375c-0.684,0.309 -1.283,0.803 -1.718,1.415c-0.199,0.281 -0.362,0.585 -0.491,0.904c-0.192,0.476 -0.284,0.99 -0.293,1.501l0,0.058l0,5.842c0.062,0.014 0.124,0.031 0.185,0.047c0.135,0.04 0.267,0.085 0.396,0.14c0.279,0.118 0.542,0.273 0.78,0.461c0.366,0.287 0.673,0.65 0.895,1.059c0.256,0.472 0.398,1.004 0.412,1.541c0.008,0.317 -0.028,0.634 -0.107,0.941c-0.09,0.35 -0.237,0.686 -0.432,0.99c-0.222,0.346 -0.506,0.651 -0.834,0.896c-0.266,0.198 -0.559,0.358 -0.87,0.472c-0.132,0.048 -0.267,0.086 -0.403,0.12l-0.022,0.005c0,1.986 -0.034,3.972 0.001,5.958c0.003,0.089 0.008,0.178 0.015,0.267c0.018,0.178 0.043,0.354 0.081,0.529c0.085,0.389 0.225,0.766 0.415,1.116c0.483,0.887 1.283,1.591 2.228,1.949c0.466,0.177 0.957,0.267 1.455,0.276c12.054,0.08 24.112,0.228 36.165,-0.001c0.444,-0.014 0.882,-0.091 1.301,-0.239c1.053,-0.37 1.936,-1.163 2.419,-2.168c0.182,-0.377 0.307,-0.78 0.371,-1.194c0.033,-0.216 0.047,-0.433 0.049,-0.651l0,-5.842c-0.062,-0.014 -0.124,-0.03 -0.185,-0.047c-0.082,-0.024 -0.081,-0.024 -0.162,-0.05c-0.131,-0.047 -0.26,-0.097 -0.386,-0.158c-0.296,-0.143 -0.572,-0.329 -0.816,-0.551c-0.304,-0.276 -0.559,-0.608 -0.746,-0.975c-0.166,-0.325 -0.28,-0.675 -0.335,-1.036c-0.056,-0.372 -0.052,-0.753 0.014,-1.124c0.167,-0.93 0.727,-1.764 1.522,-2.274c0.33,-0.212 0.692,-0.359 1.072,-0.452l0.022,-0.005c0,-1.986 0.034,-3.972 -0.002,-5.958c-0.002,-0.089 -0.007,-0.178 -0.015,-0.267c-0.047,-0.508 -0.181,-1.003 -0.402,-1.462c-0.401,-0.832 -1.076,-1.523 -1.898,-1.944c-0.582,-0.298 -1.224,-0.452 -1.878,-0.464c-12.017,-0.073 -24.035,-0.001 -36.053,-0.001Z" style="fill:#3e1b5a;fill-rule:nonzero;"/><path d="M14.625,25.426c0.076,0.018 0.096,0.019 0.167,0.05c0.188,0.081 0.338,0.24 0.408,0.432c0.031,0.085 0.04,0.168 0.045,0.257l0,1.5c-0.004,0.077 -0.002,0.097 -0.02,0.173c-0.034,0.142 -0.109,0.272 -0.215,0.372c-0.064,0.06 -0.138,0.109 -0.218,0.144c-0.08,0.034 -0.166,0.055 -0.253,0.06c-0.296,0.017 -0.581,-0.148 -0.714,-0.413c-0.039,-0.078 -0.065,-0.162 -0.075,-0.249c-0.003,-0.029 -0.003,-0.058 -0.005,-0.087l0,-1.5c0.005,-0.089 0.015,-0.172 0.045,-0.257c0.081,-0.221 0.265,-0.394 0.49,-0.462c0.086,-0.025 0.169,-0.03 0.259,-0.03c0.029,0.003 0.058,0.007 0.086,0.01ZM14.625,19.426c0.087,0.021 0.167,0.044 0.245,0.089c0.178,0.103 0.308,0.277 0.355,0.477c0.018,0.076 0.016,0.096 0.02,0.173l0,1.5c-0.004,0.077 -0.002,0.097 -0.02,0.173c-0.034,0.142 -0.109,0.272 -0.215,0.372c-0.064,0.06 -0.138,0.109 -0.218,0.144c-0.272,0.117 -0.596,0.06 -0.811,-0.144c-0.064,-0.06 -0.117,-0.131 -0.156,-0.209c-0.039,-0.078 -0.065,-0.162 -0.075,-0.249c-0.003,-0.029 -0.003,-0.058 -0.005,-0.087l0,-1.5c0.005,-0.089 0.015,-0.172 0.045,-0.257c0.081,-0.221 0.265,-0.394 0.49,-0.462c0.086,-0.025 0.169,-0.03 0.259,-0.03c0.029,0.003 0.058,0.007 0.086,0.01ZM14.625,13.426c0.087,0.021 0.167,0.044 0.245,0.089c0.178,0.103 0.308,0.277 0.355,0.477c0.018,0.076 0.016,0.096 0.02,0.173l0,1.5c-0.004,0.077 -0.002,0.097 -0.02,0.173c-0.034,0.142 -0.109,0.272 -0.215,0.372c-0.064,0.06 -0.138,0.109 -0.218,0.144c-0.08,0.034 -0.166,0.055 -0.253,0.06c-0.296,0.017 -0.581,-0.148 -0.714,-0.413c-0.039,-0.078 -0.065,-0.162 -0.075,-0.249c-0.003,-0.029 -0.003,-0.058 -0.005,-0.087l0,-1.5c0.005,-0.089 0.015,-0.172 0.045,-0.257c0.081,-0.221 0.265,-0.394 0.49,-0.462c0.086,-0.025 0.169,-0.03 0.259,-0.03c0.029,0.003 0.058,0.007 0.086,0.01ZM14.625,7.426c0.087,0.021 0.167,0.044 0.245,0.089c0.178,0.103 0.308,0.277 0.355,0.477c0.018,0.076 0.016,0.096 0.02,0.173l0,1.5c-0.001,0.029 -0.001,0.058 -0.005,0.087c-0.01,0.087 -0.035,0.171 -0.075,0.249c-0.039,0.078 -0.092,0.149 -0.155,0.209c-0.064,0.06 -0.138,0.109 -0.218,0.144c-0.272,0.117 -0.596,0.06 -0.811,-0.144c-0.107,-0.1 -0.182,-0.23 -0.216,-0.372c-0.018,-0.076 -0.015,-0.096 -0.02,-0.173l0,-1.5c0.005,-0.089 0.015,-0.172 0.045,-0.257c0.081,-0.221 0.265,-0.394 0.49,-0.462c0.086,-0.025 0.169,-0.03 0.259,-0.03c0.029,0.003 0.058,0.007 0.086,0.01ZM14.625,1.426c0.087,0.021 0.167,0.044 0.245,0.089c0.178,0.103 0.308,0.277 0.355,0.477c0.018,0.076 0.016,0.096 0.02,0.173l0,1.5c-0.004,0.077 -0.002,0.097 -0.02,0.173c-0.034,0.142 -0.109,0.272 -0.215,0.372c-0.064,0.06 -0.138,0.109 -0.218,0.144c-0.08,0.034 -0.166,0.055 -0.253,0.06c-0.296,0.017 -0.581,-0.148 -0.714,-0.413c-0.039,-0.078 -0.065,-0.162 -0.075,-0.249c-0.003,-0.029 -0.003,-0.058 -0.005,-0.087l0,-1.5c0.005,-0.089 0.015,-0.172 0.045,-0.257c0.081,-0.221 0.265,-0.394 0.49,-0.462c0.086,-0.025 0.169,-0.03 0.259,-0.03c0.029,0.003 0.058,0.007 0.086,0.01Z" style="fill:#3e1b5a;fill-rule:nonzero;"/><path d="M27.578,12.277c0,1.097 -0.241,1.913 -0.724,2.447c-0.483,0.535 -1.143,0.802 -1.982,0.802c-0.517,0 -0.981,-0.114 -1.392,-0.341c-0.411,-0.226 -0.731,-0.581 -0.961,-1.064c-0.23,-0.482 -0.345,-1.071 -0.345,-1.767c0,-0.746 0.09,-1.37 0.268,-1.87c0.178,-0.499 0.466,-0.879 0.866,-1.137c0.399,-0.259 0.909,-0.388 1.529,-0.388c0.449,0 0.842,0.069 1.181,0.207c0.339,0.138 0.626,0.349 0.862,0.633c0.235,0.285 0.411,0.631 0.526,1.039c0.114,0.408 0.172,0.887 0.172,1.439ZM25.966,12.191c0,-0.753 -0.08,-1.3 -0.241,-1.642c-0.161,-0.342 -0.445,-0.513 -0.853,-0.513c-0.276,0 -0.496,0.082 -0.659,0.246c-0.164,0.164 -0.276,0.405 -0.336,0.724c-0.061,0.319 -0.091,0.725 -0.091,1.219c0,0.512 0.03,0.928 0.091,1.25c0.06,0.322 0.17,0.564 0.331,0.728c0.161,0.164 0.382,0.246 0.664,0.246c0.425,0 0.714,-0.181 0.866,-0.543c0.152,-0.362 0.228,-0.934 0.228,-1.715ZM36.403,18.508c0,1.097 -0.242,1.913 -0.724,2.447c-0.483,0.534 -1.144,0.802 -1.982,0.802c-0.523,0 -0.99,-0.115 -1.401,-0.345c-0.411,-0.23 -0.732,-0.583 -0.965,-1.06c-0.233,-0.477 -0.349,-1.066 -0.349,-1.767c0,-1.12 0.214,-1.963 0.642,-2.529c0.428,-0.566 1.107,-0.849 2.038,-0.849c0.448,0 0.84,0.069 1.176,0.207c0.337,0.138 0.624,0.345 0.862,0.62c0.239,0.276 0.415,0.619 0.53,1.03c0.115,0.411 0.173,0.892 0.173,1.444ZM34.791,18.421c0,-0.741 -0.08,-1.282 -0.241,-1.624c-0.161,-0.342 -0.445,-0.513 -0.853,-0.513c-0.288,0 -0.512,0.081 -0.673,0.242c-0.16,0.16 -0.274,0.397 -0.34,0.711c-0.066,0.313 -0.099,0.719 -0.099,1.219c0,0.77 0.082,1.333 0.246,1.689c0.163,0.356 0.452,0.534 0.866,0.534c0.419,0 0.706,-0.182 0.861,-0.547c0.156,-0.365 0.233,-0.935 0.233,-1.711ZM33.326,10.097l-7.179,11.573c-0.184,0.316 -0.39,0.474 -0.62,0.474c-0.132,0 -0.264,-0.05 -0.397,-0.15c-0.132,-0.101 -0.198,-0.232 -0.198,-0.393c0,-0.12 0.058,-0.267 0.173,-0.439l7.221,-11.669c0.127,-0.212 0.237,-0.372 0.332,-0.478c0.095,-0.106 0.231,-0.159 0.41,-0.159c0.172,0 0.311,0.05 0.417,0.15c0.107,0.101 0.16,0.235 0.16,0.401c0,0.121 -0.106,0.351 -0.319,0.69Z" style="fill:#3e1b5a;fill-rule:nonzero;"/></g></svg>