<?xml version="1.0" standalone="no"?><!DOCTYPE svg PUBLIC "-//W3C//DTD SVG 1.1//EN" "http://www.w3.org/Graphics/SVG/1.1/DTD/svg11.dtd"><svg width="100%" height="100%" viewBox="0 0 26 23" version="1.1" xmlns="http://www.w3.org/2000/svg" xmlns:xlink="http://www.w3.org/1999/xlink" xml:space="preserve" style="fill-rule:evenodd;clip-rule:evenodd;stroke-linecap:round;stroke-linejoin:round;stroke-miterlimit:1.41421;"><g id="list"><path d="M0.716,14.584c0,-1.001 0.812,-1.814 1.813,-1.814c1.001,0 1.814,0.813 1.814,1.814c0,1.001 -0.813,1.814 -1.814,1.814c-1.001,0 -1.813,-0.813 -1.813,-1.814Z" style="fill:#3e1b5a;"/><path d="M7.486,14.584l17.048,0" style="fill:none;stroke-width:1.6px;stroke:#3e1b5a;"/><path d="M0.716,8.238c0,-1.001 0.812,-1.814 1.813,-1.814c1.001,0 1.814,0.813 1.814,1.814c0,1.001 -0.813,1.813 -1.814,1.813c-1.001,0 -1.813,-0.812 -1.813,-1.813Z" style="fill:#3e1b5a;"/><path d="M7.486,8.238l17.048,0" style="fill:none;stroke-width:1.6px;stroke:#3e1b5a;"/><path d="M0.716,1.892c0,-1.001 0.812,-1.814 1.813,-1.814c1.001,0 1.814,0.813 1.814,1.814c0,1.001 -0.813,1.813 -1.814,1.813c-1.001,0 -1.813,-0.812 -1.813,-1.813Z" style="fill:#3e1b5a;"/><path d="M7.486,1.892l17.048,0" style="fill:none;stroke-width:1.6px;stroke:#3e1b5a;"/><path d="M0.716,20.93c0,-1.001 0.812,-1.813 1.813,-1.813c1.001,0 1.814,0.812 1.814,1.813c0,1.001 -0.813,1.814 -1.814,1.814c-1.001,0 -1.813,-0.813 -1.813,-1.814Z" style="fill:#3e1b5a;"/><path d="M7.486,20.93l17.048,0" style="fill:none;stroke-width:1.6px;stroke:#3e1b5a;"/></g></svg>