<?xml version="1.0" standalone="no"?><!DOCTYPE svg PUBLIC "-//W3C//DTD SVG 1.1//EN" "http://www.w3.org/Graphics/SVG/1.1/DTD/svg11.dtd"><svg width="100%" height="100%" viewBox="0 0 27 38" version="1.1" xmlns="http://www.w3.org/2000/svg" xmlns:xlink="http://www.w3.org/1999/xlink" xml:space="preserve" style="fill-rule:evenodd;clip-rule:evenodd;stroke-linejoin:round;stroke-miterlimit:1.41421;"><g id="location"><path d="M13.377,2.109l0.152,0.003l0.151,0.004l0.152,0.007l0.15,0.009l0.15,0.01l0.15,0.013l0.149,0.014l0.148,0.016l0.149,0.018l0.147,0.02l0.147,0.021l0.147,0.023l0.146,0.026l0.145,0.027l0.144,0.028l0.144,0.031l0.144,0.032l0.142,0.034l0.143,0.035l0.141,0.038l0.141,0.039l0.14,0.04l0.139,0.043l0.139,0.044l0.137,0.046l0.137,0.047l0.137,0.049l0.135,0.051l0.135,0.052l0.134,0.054l0.133,0.055l0.132,0.057l0.131,0.058l0.131,0.06l0.13,0.062l0.128,0.063l0.128,0.065l0.127,0.066l0.127,0.067l0.125,0.069l0.124,0.071l0.123,0.072l0.122,0.073l0.122,0.075l0.12,0.076l0.119,0.078l0.119,0.078l0.117,0.081l0.117,0.082l0.115,0.083l0.114,0.084l0.113,0.086l0.112,0.087l0.111,0.088l0.11,0.09l0.109,0.091l0.108,0.092l0.106,0.093l0.106,0.095l0.104,0.096l0.103,0.097l0.102,0.099l0.101,0.099l0.1,0.101l0.098,0.102l0.097,0.103l0.096,0.104l0.095,0.106l0.093,0.106l0.092,0.108l0.091,0.109l0.09,0.11l0.088,0.111l0.087,0.112l0.086,0.113l0.084,0.114l0.083,0.116l0.082,0.116l0.08,0.117l0.079,0.118l0.078,0.12l0.076,0.12l0.075,0.122l0.073,0.122l0.072,0.123l0.071,0.125l0.069,0.125l0.067,0.126l0.066,0.127l0.065,0.128l0.063,0.128l0.062,0.13l0.06,0.131l0.058,0.131l0.057,0.132l0.055,0.133l0.054,0.134l0.052,0.135l0.051,0.135l0.049,0.137l0.047,0.137l0.046,0.137l0.044,0.139l0.042,0.139l0.041,0.14l0.039,0.141l0.038,0.141l0.035,0.143l0.034,0.142l0.032,0.143l0.031,0.144l0.028,0.145l0.027,0.145l0.026,0.146l0.023,0.147l0.021,0.147l0.02,0.147l0.018,0.148l0.016,0.149l0.014,0.149l0.013,0.15l0.01,0.15l0.009,0.15l0.006,0.151l0.005,0.152l0.003,0.152l0.001,0.153l-0.001,0.088l-0.001,0.089l-0.003,0.089l-0.005,0.089l-0.005,0.089l-0.006,0.09l-0.008,0.089l-0.008,0.09l-0.01,0.09l-0.01,0.09l-0.012,0.091l-0.013,0.094l-0.026,0.178l-0.032,0.183l-0.034,0.185l-0.038,0.186l-0.041,0.186l-0.045,0.188l-0.047,0.19l-0.051,0.19l-0.053,0.192l-0.056,0.194l-0.059,0.194l-0.061,0.196l-0.064,0.198l-0.067,0.198l-0.069,0.2l-0.071,0.202l-0.074,0.202l-0.077,0.204l-0.078,0.205l-0.081,0.206l-0.082,0.207l-0.085,0.208l-0.087,0.209l-0.089,0.21l-0.091,0.211l-0.092,0.212l-0.094,0.213l-0.096,0.214l-0.098,0.214l-0.099,0.215l-0.101,0.215l-0.103,0.217l-0.103,0.216l-0.106,0.217l-0.106,0.218l-0.108,0.218l-0.109,0.218l-0.11,0.218l-0.112,0.219l-0.112,0.219l-0.113,0.218l-0.115,0.219l-0.115,0.218l-0.116,0.22l-0.234,0.435l-0.237,0.435l-0.239,0.433l-0.24,0.431l-0.242,0.427l-0.243,0.425l-0.243,0.42l-0.243,0.416l-0.242,0.411l-0.241,0.406l-0.24,0.4l-0.238,0.393l-0.235,0.386l-0.232,0.378l-0.229,0.37l-0.225,0.362l-0.221,0.352l-0.216,0.343l-0.211,0.332l-0.205,0.321l-0.199,0.31l-0.193,0.298l-0.185,0.287l-0.348,0.531l-0.313,0.475l-0.276,0.415l-0.235,0.35l-0.189,0.28l-0.141,0.207l-0.117,0.17l-0.081,0.108l-0.089,0.101l-0.098,0.093l-0.106,0.084l-0.112,0.075l-0.118,0.065l-0.123,0.055l-0.127,0.045l-0.13,0.034l-0.133,0.022l-0.135,0.012l-0.135,0l-0.134,-0.012l-0.133,-0.022l-0.13,-0.034l-0.128,-0.045l-0.123,-0.055l-0.118,-0.065l-0.112,-0.075l-0.105,-0.084l-0.098,-0.093l-0.09,-0.101l-0.08,-0.108l-0.117,-0.169l-0.141,-0.208l-0.189,-0.28l-0.235,-0.35l-0.276,-0.415l-0.314,-0.475l-0.347,-0.531l-0.185,-0.287l-0.193,-0.298l-0.199,-0.31l-0.205,-0.321l-0.211,-0.332l-0.216,-0.343l-0.221,-0.352l-0.225,-0.362l-0.229,-0.37l-0.232,-0.378l-0.236,-0.386l-0.237,-0.393l-0.24,-0.4l-0.241,-0.406l-0.242,-0.411l-0.243,-0.416l-0.243,-0.42l-0.243,-0.425l-0.242,-0.427l-0.24,-0.431l-0.239,-0.433l-0.237,-0.435l-0.234,-0.435l-0.116,-0.22l-0.116,-0.218l-0.114,-0.219l-0.113,-0.218l-0.113,-0.219l-0.111,-0.219l-0.11,-0.218l-0.109,-0.218l-0.108,-0.218l-0.107,-0.218l-0.105,-0.217l-0.104,-0.216l-0.102,-0.217l-0.101,-0.215l-0.099,-0.215l-0.098,-0.214l-0.096,-0.214l-0.094,-0.213l-0.093,-0.212l-0.09,-0.211l-0.089,-0.21l-0.087,-0.209l-0.085,-0.208l-0.083,-0.207l-0.08,-0.206l-0.079,-0.205l-0.076,-0.204l-0.074,-0.202l-0.071,-0.202l-0.069,-0.2l-0.067,-0.198l-0.064,-0.198l-0.062,-0.196l-0.058,-0.194l-0.056,-0.194l-0.054,-0.192l-0.05,-0.19l-0.047,-0.19l-0.045,-0.188l-0.041,-0.186l-0.038,-0.186l-0.035,-0.184l-0.031,-0.184l-0.027,-0.178l-0.013,-0.094l-0.011,-0.091l-0.011,-0.09l-0.009,-0.09l-0.009,-0.09l-0.007,-0.089l-0.006,-0.09l-0.006,-0.089l-0.004,-0.09l-0.003,-0.088l-0.002,-0.089l0,-0.089l0.001,-0.152l0.003,-0.152l0.004,-0.152l0.007,-0.151l0.009,-0.15l0.01,-0.15l0.013,-0.15l0.014,-0.149l0.016,-0.149l0.018,-0.148l0.019,-0.147l0.022,-0.147l0.023,-0.147l0.025,-0.146l0.027,-0.145l0.029,-0.145l0.03,-0.144l0.033,-0.143l0.034,-0.142l0.035,-0.143l0.038,-0.141l0.039,-0.141l0.04,-0.14l0.043,-0.139l0.044,-0.139l0.046,-0.137l0.047,-0.137l0.049,-0.137l0.05,-0.135l0.053,-0.135l0.054,-0.134l0.055,-0.133l0.057,-0.132l0.058,-0.132l0.06,-0.13l0.062,-0.13l0.063,-0.128l0.064,-0.128l0.067,-0.127l0.067,-0.126l0.069,-0.125l0.071,-0.125l0.072,-0.123l0.073,-0.122l0.075,-0.122l0.076,-0.12l0.077,-0.12l0.079,-0.118l0.081,-0.117l0.081,-0.117l0.083,-0.115l0.085,-0.114l0.086,-0.113l0.087,-0.112l0.088,-0.111l0.09,-0.11l0.09,-0.109l0.093,-0.108l0.093,-0.106l0.095,-0.106l0.096,-0.104l0.097,-0.103l0.098,-0.102l0.1,-0.101l0.101,-0.099l0.102,-0.099l0.103,-0.097l0.104,-0.096l0.105,-0.095l0.107,-0.093l0.108,-0.092l0.109,-0.091l0.11,-0.09l0.111,-0.088l0.112,-0.087l0.113,-0.086l0.114,-0.084l0.115,-0.083l0.117,-0.082l0.117,-0.081l0.118,-0.078l0.12,-0.078l0.12,-0.076l0.121,-0.075l0.123,-0.073l0.123,-0.072l0.124,-0.071l0.125,-0.069l0.126,-0.067l0.128,-0.066l0.128,-0.065l0.128,-0.063l0.13,-0.062l0.131,-0.06l0.131,-0.058l0.132,-0.057l0.133,-0.055l0.134,-0.054l0.135,-0.052l0.135,-0.051l0.137,-0.049l0.137,-0.047l0.137,-0.046l0.139,-0.044l0.139,-0.043l0.14,-0.04l0.141,-0.039l0.141,-0.038l0.142,-0.035l0.143,-0.034l0.143,-0.032l0.144,-0.031l0.145,-0.028l0.145,-0.027l0.146,-0.026l0.147,-0.023l0.146,-0.021l0.148,-0.02l0.148,-0.018l0.149,-0.016l0.149,-0.014l0.15,-0.013l0.15,-0.01l0.15,-0.009l0.151,-0.007l0.152,-0.004l0.152,-0.003l0.152,-0.001l0.152,0.001ZM13.093,3.709l-0.132,0.002l-0.131,0.004l-0.131,0.006l-0.13,0.008l-0.13,0.009l-0.129,0.01l-0.129,0.013l-0.129,0.014l-0.128,0.015l-0.127,0.017l-0.128,0.019l-0.126,0.02l-0.126,0.022l-0.126,0.023l-0.125,0.025l-0.124,0.026l-0.124,0.028l-0.123,0.029l-0.123,0.031l-0.122,0.032l-0.121,0.034l-0.121,0.035l-0.121,0.037l-0.119,0.038l-0.119,0.039l-0.119,0.041l-0.117,0.042l-0.117,0.044l-0.117,0.045l-0.115,0.047l-0.115,0.047l-0.115,0.05l-0.113,0.05l-0.113,0.052l-0.112,0.053l-0.111,0.055l-0.111,0.056l-0.109,0.057l-0.109,0.058l-0.109,0.06l-0.107,0.061l-0.107,0.062l-0.105,0.063l-0.105,0.065l-0.104,0.066l-0.104,0.067l-0.102,0.068l-0.102,0.07l-0.1,0.07l-0.1,0.072l-0.099,0.073l-0.098,0.074l-0.097,0.076l-0.096,0.076l-0.095,0.078l-0.094,0.078l-0.093,0.08l-0.092,0.081l-0.092,0.082l-0.09,0.083l-0.089,0.084l-0.089,0.085l-0.087,0.086l-0.086,0.088l-0.085,0.088l-0.084,0.089l-0.083,0.09l-0.082,0.092l-0.081,0.092l-0.08,0.093l-0.078,0.094l-0.078,0.095l-0.076,0.096l-0.076,0.097l-0.074,0.098l-0.073,0.099l-0.072,0.1l-0.071,0.101l-0.069,0.101l-0.068,0.102l-0.067,0.104l-0.066,0.104l-0.065,0.105l-0.063,0.105l-0.063,0.107l-0.06,0.107l-0.06,0.109l-0.058,0.109l-0.058,0.109l-0.055,0.111l-0.055,0.111l-0.053,0.112l-0.052,0.113l-0.05,0.114l-0.05,0.114l-0.047,0.115l-0.047,0.116l-0.045,0.116l-0.044,0.117l-0.042,0.118l-0.041,0.118l-0.039,0.119l-0.039,0.12l-0.036,0.12l-0.035,0.121l-0.034,0.121l-0.032,0.122l-0.031,0.123l-0.029,0.123l-0.028,0.124l-0.026,0.125l-0.025,0.125l-0.024,0.125l-0.021,0.126l-0.02,0.127l-0.019,0.127l-0.017,0.127l-0.016,0.128l-0.013,0.129l-0.013,0.129l-0.01,0.129l-0.01,0.13l-0.007,0.131l-0.006,0.13l-0.004,0.131l-0.002,0.132l-0.001,0.132l0,0.067l0.002,0.067l0.002,0.068l0.003,0.069l0.004,0.07l0.005,0.07l0.006,0.072l0.007,0.072l0.008,0.073l0.008,0.073l0.01,0.075l0.01,0.075l0.023,0.152l0.026,0.156l0.03,0.158l0.033,0.161l0.036,0.163l0.039,0.166l0.043,0.169l0.045,0.171l0.048,0.174l0.051,0.176l0.054,0.178l0.056,0.18l0.059,0.182l0.062,0.185l0.065,0.186l0.067,0.188l0.069,0.19l0.072,0.192l0.074,0.194l0.076,0.195l0.079,0.197l0.081,0.198l0.083,0.2l0.085,0.201l0.087,0.202l0.088,0.204l0.091,0.205l0.093,0.206l0.094,0.207l0.096,0.207l0.098,0.209l0.099,0.21l0.101,0.21l0.102,0.211l0.104,0.211l0.104,0.212l0.107,0.213l0.107,0.213l0.109,0.213l0.11,0.214l0.11,0.214l0.112,0.213l0.113,0.214l0.113,0.214l0.23,0.428l0.233,0.427l0.234,0.425l0.237,0.423l0.238,0.421l0.239,0.418l0.239,0.415l0.24,0.41l0.239,0.405l0.238,0.401l0.236,0.394l0.235,0.388l0.233,0.382l0.229,0.373l0.226,0.366l0.223,0.358l0.218,0.348l0.214,0.339l0.209,0.329l0.203,0.318l0.197,0.306l0.19,0.295l0.183,0.283l0.344,0.526l0.31,0.47l0.272,0.409l0.232,0.345l0.186,0.276l0.138,0.203l0.115,0.167l0.115,-0.167l0.138,-0.203l0.186,-0.276l0.231,-0.345l0.273,-0.409l0.31,-0.47l0.344,-0.526l0.183,-0.283l0.19,-0.295l0.197,-0.306l0.203,-0.318l0.209,-0.329l0.213,-0.339l0.219,-0.348l0.222,-0.358l0.227,-0.366l0.229,-0.373l0.233,-0.382l0.234,-0.388l0.237,-0.394l0.238,-0.401l0.239,-0.405l0.239,-0.41l0.24,-0.415l0.239,-0.418l0.238,-0.421l0.237,-0.423l0.234,-0.425l0.233,-0.427l0.229,-0.428l0.114,-0.214l0.113,-0.214l0.111,-0.213l0.111,-0.214l0.11,-0.214l0.109,-0.213l0.107,-0.213l0.106,-0.213l0.105,-0.212l0.104,-0.211l0.102,-0.211l0.101,-0.21l0.099,-0.21l0.098,-0.209l0.096,-0.207l0.094,-0.207l0.093,-0.206l0.09,-0.205l0.089,-0.204l0.087,-0.202l0.085,-0.201l0.083,-0.2l0.081,-0.198l0.078,-0.197l0.077,-0.195l0.074,-0.194l0.072,-0.192l0.069,-0.19l0.067,-0.188l0.065,-0.186l0.061,-0.185l0.06,-0.182l0.056,-0.18l0.054,-0.178l0.051,-0.176l0.048,-0.174l0.045,-0.171l0.042,-0.169l0.04,-0.166l0.036,-0.163l0.033,-0.161l0.029,-0.158l0.027,-0.156l0.023,-0.152l0.01,-0.075l0.01,-0.075l0.008,-0.073l0.008,-0.073l0.007,-0.072l0.005,-0.072l0.006,-0.07l0.004,-0.07l0.003,-0.069l0.002,-0.068l0.002,-0.067l0,-0.067l-0.001,-0.132l-0.002,-0.132l-0.004,-0.131l-0.006,-0.13l-0.008,-0.131l-0.009,-0.13l-0.01,-0.129l-0.013,-0.129l-0.014,-0.129l-0.015,-0.128l-0.017,-0.127l-0.019,-0.127l-0.02,-0.127l-0.022,-0.126l-0.023,-0.125l-0.025,-0.125l-0.026,-0.125l-0.028,-0.124l-0.029,-0.123l-0.031,-0.123l-0.032,-0.122l-0.034,-0.121l-0.035,-0.121l-0.037,-0.12l-0.038,-0.12l-0.039,-0.119l-0.041,-0.118l-0.042,-0.118l-0.044,-0.117l-0.045,-0.116l-0.047,-0.116l-0.048,-0.115l-0.049,-0.114l-0.05,-0.114l-0.052,-0.113l-0.053,-0.112l-0.055,-0.111l-0.056,-0.111l-0.057,-0.109l-0.058,-0.109l-0.06,-0.109l-0.061,-0.107l-0.062,-0.107l-0.063,-0.105l-0.065,-0.105l-0.066,-0.104l-0.067,-0.104l-0.068,-0.102l-0.07,-0.101l-0.07,-0.101l-0.072,-0.1l-0.073,-0.099l-0.074,-0.098l-0.076,-0.097l-0.076,-0.096l-0.078,-0.095l-0.078,-0.094l-0.08,-0.093l-0.081,-0.092l-0.082,-0.092l-0.083,-0.09l-0.084,-0.089l-0.085,-0.088l-0.086,-0.088l-0.088,-0.086l-0.088,-0.085l-0.089,-0.084l-0.09,-0.083l-0.092,-0.082l-0.092,-0.081l-0.093,-0.08l-0.094,-0.078l-0.095,-0.078l-0.097,-0.076l-0.097,-0.076l-0.097,-0.074l-0.099,-0.073l-0.1,-0.072l-0.101,-0.07l-0.101,-0.07l-0.102,-0.068l-0.104,-0.067l-0.104,-0.066l-0.105,-0.065l-0.106,-0.063l-0.106,-0.062l-0.108,-0.061l-0.108,-0.06l-0.109,-0.058l-0.109,-0.057l-0.111,-0.056l-0.111,-0.055l-0.112,-0.053l-0.113,-0.052l-0.114,-0.05l-0.114,-0.05l-0.115,-0.047l-0.116,-0.047l-0.116,-0.045l-0.117,-0.044l-0.118,-0.042l-0.118,-0.041l-0.119,-0.039l-0.12,-0.038l-0.12,-0.037l-0.121,-0.035l-0.121,-0.034l-0.122,-0.032l-0.123,-0.031l-0.123,-0.029l-0.124,-0.028l-0.125,-0.026l-0.125,-0.025l-0.125,-0.023l-0.126,-0.022l-0.127,-0.02l-0.127,-0.019l-0.127,-0.017l-0.128,-0.015l-0.129,-0.014l-0.129,-0.013l-0.129,-0.01l-0.13,-0.009l-0.131,-0.008l-0.13,-0.006l-0.132,-0.004l-0.131,-0.002l-0.132,-0.001l-0.132,0.001Z" style="fill:#3e1b5a;"/><path d="M13.366,8.049l0.141,0.005l0.14,0.009l0.139,0.012l0.138,0.016l0.137,0.019l0.136,0.023l0.136,0.026l0.133,0.029l0.133,0.032l0.132,0.036l0.13,0.039l0.129,0.042l0.128,0.045l0.125,0.047l0.124,0.051l0.124,0.054l0.121,0.057l0.119,0.059l0.118,0.062l0.117,0.066l0.114,0.067l0.112,0.07l0.111,0.073l0.109,0.076l0.107,0.078l0.104,0.08l0.103,0.083l0.101,0.085l0.099,0.088l0.096,0.089l0.095,0.092l0.092,0.095l0.09,0.096l0.087,0.099l0.085,0.101l0.083,0.102l0.081,0.106l0.077,0.106l0.076,0.109l0.073,0.111l0.07,0.112l0.068,0.114l0.065,0.117l0.062,0.118l0.059,0.119l0.057,0.122l0.054,0.122l0.051,0.125l0.048,0.126l0.045,0.127l0.041,0.129l0.039,0.13l0.036,0.132l0.032,0.133l0.03,0.134l0.025,0.135l0.023,0.136l0.019,0.137l0.016,0.138l0.012,0.14l0.009,0.14l0.006,0.14l0.001,0.141l-0.001,0.142l-0.006,0.14l-0.009,0.14l-0.012,0.139l-0.016,0.138l-0.019,0.137l-0.023,0.137l-0.025,0.135l-0.03,0.134l-0.032,0.133l-0.036,0.131l-0.039,0.13l-0.041,0.129l-0.045,0.128l-0.048,0.126l-0.051,0.124l-0.054,0.123l-0.057,0.121l-0.059,0.12l-0.062,0.118l-0.065,0.116l-0.068,0.114l-0.07,0.113l-0.073,0.111l-0.076,0.109l-0.077,0.106l-0.081,0.105l-0.083,0.103l-0.085,0.101l-0.087,0.098l-0.09,0.097l-0.092,0.094l-0.095,0.092l-0.096,0.09l-0.099,0.088l-0.101,0.085l-0.102,0.082l-0.105,0.081l-0.107,0.078l-0.109,0.075l-0.11,0.073l-0.113,0.07l-0.114,0.068l-0.117,0.065l-0.117,0.062l-0.12,0.06l-0.121,0.056l-0.123,0.054l-0.125,0.051l-0.125,0.048l-0.128,0.045l-0.129,0.042l-0.13,0.039l-0.132,0.035l-0.133,0.033l-0.134,0.029l-0.135,0.026l-0.136,0.022l-0.137,0.02l-0.139,0.015l-0.138,0.013l-0.14,0.009l-0.141,0.005l-0.141,0.002l-0.141,-0.002l-0.141,-0.005l-0.14,-0.009l-0.139,-0.013l-0.138,-0.015l-0.138,-0.02l-0.135,-0.022l-0.135,-0.026l-0.135,-0.029l-0.132,-0.033l-0.132,-0.035l-0.13,-0.039l-0.129,-0.042l-0.128,-0.045l-0.125,-0.048l-0.125,-0.051l-0.123,-0.054l-0.121,-0.056l-0.12,-0.06l-0.118,-0.062l-0.116,-0.065l-0.114,-0.068l-0.113,-0.07l-0.11,-0.073l-0.109,-0.075l-0.107,-0.078l-0.105,-0.081l-0.103,-0.082l-0.1,-0.085l-0.099,-0.088l-0.097,-0.09l-0.094,-0.092l-0.092,-0.094l-0.09,-0.097l-0.087,-0.098l-0.086,-0.101l-0.082,-0.103l-0.081,-0.105l-0.078,-0.106l-0.075,-0.109l-0.073,-0.111l-0.07,-0.113l-0.068,-0.114l-0.065,-0.116l-0.062,-0.118l-0.06,-0.12l-0.056,-0.121l-0.054,-0.123l-0.051,-0.124l-0.048,-0.126l-0.045,-0.128l-0.042,-0.129l-0.038,-0.13l-0.036,-0.131l-0.032,-0.133l-0.03,-0.134l-0.026,-0.135l-0.022,-0.136l-0.019,-0.138l-0.016,-0.138l-0.013,-0.139l-0.008,-0.14l-0.006,-0.141l-0.002,-0.141l0.002,-0.141l0.006,-0.141l0.008,-0.14l0.013,-0.138l0.016,-0.139l0.019,-0.137l0.022,-0.136l0.026,-0.135l0.029,-0.134l0.033,-0.133l0.036,-0.132l0.038,-0.13l0.042,-0.129l0.045,-0.127l0.048,-0.126l0.051,-0.125l0.054,-0.122l0.056,-0.122l0.06,-0.119l0.062,-0.118l0.065,-0.116l0.068,-0.115l0.07,-0.112l0.073,-0.111l0.075,-0.109l0.078,-0.107l0.081,-0.105l0.083,-0.102l0.085,-0.101l0.087,-0.099l0.09,-0.096l0.092,-0.095l0.095,-0.092l0.096,-0.089l0.098,-0.088l0.101,-0.085l0.103,-0.083l0.105,-0.08l0.107,-0.078l0.108,-0.076l0.112,-0.073l0.112,-0.07l0.114,-0.067l0.116,-0.066l0.118,-0.062l0.12,-0.059l0.121,-0.057l0.123,-0.054l0.125,-0.051l0.125,-0.047l0.128,-0.045l0.129,-0.042l0.13,-0.039l0.132,-0.036l0.132,-0.032l0.134,-0.029l0.136,-0.026l0.136,-0.023l0.137,-0.019l0.138,-0.016l0.139,-0.012l0.14,-0.009l0.141,-0.005l0.141,-0.002l0.141,0.002ZM13.124,9.648l-0.1,0.004l-0.099,0.006l-0.099,0.009l-0.098,0.011l-0.097,0.014l-0.097,0.016l-0.096,0.018l-0.094,0.021l-0.094,0.023l-0.093,0.025l-0.093,0.028l-0.091,0.029l-0.09,0.032l-0.089,0.034l-0.088,0.036l-0.087,0.038l-0.086,0.04l-0.085,0.042l-0.084,0.044l-0.082,0.046l-0.081,0.048l-0.08,0.05l-0.078,0.052l-0.078,0.054l-0.076,0.055l-0.074,0.057l-0.073,0.059l-0.072,0.06l-0.07,0.063l-0.068,0.064l-0.067,0.065l-0.066,0.067l-0.064,0.069l-0.062,0.07l-0.06,0.071l-0.059,0.073l-0.057,0.075l-0.056,0.076l-0.053,0.077l-0.052,0.078l-0.05,0.08l-0.048,0.081l-0.046,0.083l-0.044,0.083l-0.042,0.085l-0.04,0.086l-0.038,0.087l-0.037,0.088l-0.033,0.089l-0.032,0.091l-0.03,0.091l-0.027,0.092l-0.026,0.093l-0.022,0.094l-0.021,0.095l-0.018,0.095l-0.016,0.097l-0.014,0.097l-0.011,0.098l-0.009,0.099l-0.006,0.099l-0.004,0.101l-0.002,0.1l0.002,0.101l0.004,0.1l0.006,0.099l0.009,0.099l0.011,0.098l0.014,0.098l0.016,0.096l0.018,0.096l0.021,0.095l0.022,0.094l0.026,0.093l0.027,0.092l0.03,0.091l0.032,0.09l0.033,0.089l0.037,0.088l0.038,0.087l0.04,0.086l0.042,0.085l0.044,0.084l0.046,0.082l0.048,0.081l0.05,0.08l0.052,0.079l0.053,0.077l0.056,0.076l0.057,0.074l0.059,0.073l0.06,0.072l0.062,0.07l0.064,0.069l0.066,0.067l0.067,0.065l0.068,0.064l0.07,0.062l0.072,0.061l0.073,0.058l0.074,0.058l0.076,0.055l0.078,0.053l0.078,0.052l0.08,0.05l0.081,0.048l0.082,0.046l0.084,0.044l0.085,0.042l0.086,0.041l0.087,0.038l0.088,0.036l0.089,0.034l0.09,0.031l0.091,0.03l0.093,0.027l0.093,0.026l0.094,0.023l0.094,0.02l0.096,0.019l0.097,0.016l0.097,0.013l0.098,0.012l0.099,0.008l0.099,0.007l0.1,0.003l0.101,0.002l0.101,-0.002l0.1,-0.003l0.099,-0.007l0.099,-0.008l0.098,-0.012l0.097,-0.013l0.097,-0.016l0.095,-0.019l0.095,-0.02l0.094,-0.023l0.093,-0.026l0.092,-0.027l0.092,-0.03l0.09,-0.031l0.089,-0.034l0.088,-0.036l0.087,-0.038l0.086,-0.041l0.085,-0.042l0.083,-0.044l0.083,-0.046l0.081,-0.048l0.08,-0.05l0.078,-0.052l0.077,-0.053l0.076,-0.055l0.075,-0.058l0.073,-0.058l0.071,-0.061l0.071,-0.062l0.068,-0.064l0.067,-0.065l0.066,-0.067l0.064,-0.069l0.062,-0.07l0.06,-0.072l0.059,-0.073l0.057,-0.074l0.056,-0.076l0.053,-0.077l0.052,-0.079l0.05,-0.08l0.048,-0.081l0.046,-0.082l0.044,-0.084l0.042,-0.085l0.04,-0.086l0.038,-0.087l0.036,-0.088l0.034,-0.089l0.032,-0.09l0.03,-0.091l0.027,-0.092l0.025,-0.093l0.023,-0.094l0.021,-0.095l0.018,-0.096l0.016,-0.096l0.014,-0.098l0.011,-0.098l0.009,-0.099l0.006,-0.099l0.004,-0.1l0.001,-0.101l-0.001,-0.1l-0.004,-0.101l-0.006,-0.099l-0.009,-0.099l-0.011,-0.098l-0.014,-0.097l-0.016,-0.097l-0.018,-0.095l-0.021,-0.095l-0.023,-0.094l-0.025,-0.093l-0.027,-0.092l-0.03,-0.091l-0.032,-0.091l-0.034,-0.089l-0.036,-0.088l-0.038,-0.087l-0.04,-0.086l-0.042,-0.085l-0.044,-0.083l-0.046,-0.083l-0.048,-0.081l-0.05,-0.08l-0.052,-0.078l-0.053,-0.077l-0.056,-0.076l-0.057,-0.075l-0.059,-0.073l-0.06,-0.071l-0.062,-0.07l-0.064,-0.069l-0.066,-0.067l-0.067,-0.065l-0.068,-0.064l-0.071,-0.063l-0.071,-0.06l-0.073,-0.059l-0.075,-0.057l-0.076,-0.055l-0.077,-0.054l-0.078,-0.052l-0.08,-0.05l-0.081,-0.048l-0.083,-0.046l-0.083,-0.044l-0.085,-0.042l-0.086,-0.04l-0.087,-0.038l-0.088,-0.036l-0.089,-0.034l-0.09,-0.032l-0.092,-0.029l-0.092,-0.028l-0.093,-0.025l-0.094,-0.023l-0.095,-0.021l-0.095,-0.018l-0.097,-0.016l-0.097,-0.014l-0.098,-0.011l-0.099,-0.009l-0.099,-0.006l-0.1,-0.004l-0.101,-0.001l-0.101,0.001Z" style="fill:#3e1b5a;"/></g></svg>