<?xml version="1.0" standalone="no"?>
<!DOCTYPE svg PUBLIC "-//W3C//DTD SVG 1.1//EN" "http://www.w3.org/Graphics/SVG/1.1/DTD/svg11.dtd">
<svg width="100%" height="100%" viewBox="0 0 19 19" version="1.1" xmlns="http://www.w3.org/2000/svg" xmlns:xlink="http://www.w3.org/1999/xlink" xml:space="preserve" style="fill-rule:evenodd;clip-rule:evenodd;stroke-linejoin:round;stroke-miterlimit:1.41421;"><g id="remove-ico"><path d="M9.528,0.303c0.344,0.007 0.687,0.028 1.029,0.071c0.918,0.118 1.818,0.377 2.657,0.77c0.851,0.399 1.638,0.93 2.327,1.57c0.9,0.838 1.625,1.859 2.119,2.985c0.312,0.712 0.53,1.465 0.647,2.234c0.139,0.905 0.139,1.833 0,2.739c-0.139,0.912 -0.421,1.803 -0.832,2.629c-0.483,0.97 -1.141,1.851 -1.934,2.589c-0.795,0.74 -1.724,1.337 -2.729,1.746c-1.078,0.44 -2.237,0.666 -3.401,0.666c-1.164,0 -2.322,-0.226 -3.4,-0.666c-1.006,-0.409 -1.935,-1.006 -2.73,-1.746c-0.793,-0.738 -1.451,-1.619 -1.933,-2.589c-0.412,-0.826 -0.693,-1.717 -0.833,-2.629c-0.139,-0.906 -0.139,-1.834 0,-2.739c0.118,-0.769 0.335,-1.522 0.648,-2.234c0.493,-1.126 1.218,-2.147 2.118,-2.985c0.689,-0.64 1.476,-1.171 2.328,-1.57c0.838,-0.393 1.738,-0.652 2.657,-0.77c0.341,-0.043 0.684,-0.064 1.029,-0.071c0.116,-0.001 0.116,-0.001 0.233,0ZM9.308,1.303c-0.306,0.006 -0.612,0.025 -0.915,0.063c-0.816,0.105 -1.616,0.335 -2.36,0.684c-0.758,0.354 -1.458,0.827 -2.07,1.396c-0.706,0.657 -1.291,1.44 -1.72,2.303c-0.321,0.644 -0.553,1.332 -0.689,2.039c-0.166,0.866 -0.187,1.76 -0.065,2.633c0.113,0.814 0.355,1.608 0.711,2.348c0.404,0.839 0.957,1.606 1.624,2.256c0.714,0.697 1.556,1.259 2.475,1.648c0.949,0.403 1.977,0.617 3.008,0.629c1.07,0.012 2.136,-0.188 3.127,-0.592c0.894,-0.364 1.719,-0.895 2.426,-1.552c0.705,-0.656 1.29,-1.44 1.72,-2.302c0.365,-0.734 0.615,-1.525 0.739,-2.336c0.139,-0.904 0.121,-1.833 -0.051,-2.732c-0.203,-1.056 -0.622,-2.067 -1.224,-2.957c-0.773,-1.145 -1.843,-2.082 -3.079,-2.697c-0.675,-0.335 -1.396,-0.574 -2.138,-0.707c-0.366,-0.065 -0.735,-0.103 -1.106,-0.119c-0.138,-0.004 -0.275,-0.006 -0.413,-0.005Z" style="fill:#000;fill-rule:nonzero;"/><path d="M9.382,8.445l1.653,-1.654l0.738,0.738l-1.653,1.653l1.901,1.902l-0.816,0.816l-1.902,-1.902l-1.665,1.666l-0.738,-0.738l1.666,-1.665l-1.753,-1.753l0.817,-0.816l1.752,1.753Z" style="fill:#000;fill-rule:nonzero;"/></g></svg>