<?xml version="1.0" standalone="no"?><!DOCTYPE svg PUBLIC "-//W3C//DTD SVG 1.1//EN" "http://www.w3.org/Graphics/SVG/1.1/DTD/svg11.dtd"><svg width="100%" height="100%" viewBox="0 0 35 36" version="1.1" xmlns="http://www.w3.org/2000/svg" xmlns:xlink="http://www.w3.org/1999/xlink" xml:space="preserve" style="fill-rule:evenodd;clip-rule:evenodd;stroke-linecap:round;stroke-linejoin:round;stroke-miterlimit:1.41421;"><g id="ico-scratch-cards"><path d="M33.422,11.387c0,-1.655 -1.344,-3 -3,-3l-26,0c-1.655,0 -3,1.345 -3,3l0,20.336c0,1.655 1.345,3 3,3l26,0c1.656,0 3,-1.345 3,-3l0,-20.336Z" style="fill:none;stroke-width:1.2px;stroke:#fff;"/><path d="M18.422,8.387c0,0 13.418,-1.06 8.079,-5.863c-3.041,-2.736 -10.919,3.579 -8.079,5.47" style="fill:none;stroke-width:1.2px;stroke:#fff;"/><path d="M17.815,8.387c0,0 -13.106,0.173 -10.968,-5.558c1.91,-5.118 12.779,3.274 9.939,5.165" style="fill:none;stroke-width:1.2px;stroke:#fff;"/><path d="M17.422,9.321l0,25.402" style="fill:none;stroke-width:1.2px;stroke:#fff;"/><path d="M1.422,21.555l32,0" style="fill:none;stroke-width:1.2px;stroke:#fff;"/><path d="M17.422,9.321l4.907,2.066" style="fill:none;stroke-width:1.2px;stroke:#fff;"/><path d="M17.422,9.321l-5.209,2.369" style="fill:none;stroke-width:1.2px;stroke:#fff;"/></g></svg>