<?xml version="1.0" standalone="no"?><!DOCTYPE svg PUBLIC "-//W3C//DTD SVG 1.1//EN" "http://www.w3.org/Graphics/SVG/1.1/DTD/svg11.dtd"><svg width="100%" height="100%" viewBox="0 0 27 41" version="1.1" xmlns="http://www.w3.org/2000/svg" xmlns:xlink="http://www.w3.org/1999/xlink" xml:space="preserve" style="fill-rule:evenodd;clip-rule:evenodd;stroke-linecap:round;stroke-linejoin:round;stroke-miterlimit:1.41421;"><g id="tile-nav"><path d="M25.557,5.767c0,-2.145 -1.741,-3.886 -3.885,-3.886l-16.319,0c-2.145,0 -3.886,1.741 -3.886,3.886l0,29.354c0,2.144 1.741,3.885 3.886,3.885l16.319,0c2.144,0 3.885,-1.741 3.885,-3.885l0,-1.405" style="fill:none;stroke-width:1.55px;stroke:#3e1b5a;"/><path d="M25.557,29.202l0,-7.992l0,-15.443" style="fill:none;stroke-width:1.55px;stroke:#3e1b5a;"/><circle cx="13.512" cy="33.178" r="1.166" style="fill:#000;stroke-width:1.55px;stroke:#3e1b5a;"/><g><g><path d="M12.275,8.567c0,-0.552 -0.448,-1 -1,-1l-3.476,0c-0.552,0 -1,0.448 -1,1l0,3.44c0,0.552 0.448,1 1,1l3.476,0c0.552,0 1,-0.448 1,-1l0,-3.44Z" style="fill:none;stroke-width:0.78px;stroke:#3e1b5a;"/></g><g><path d="M20.225,8.567c0,-0.552 -0.448,-1 -1,-1l-3.475,0c-0.552,0 -1,0.448 -1,1l0,3.44c0,0.552 0.448,1 1,1l3.475,0c0.552,0 1,-0.448 1,-1l0,-3.44Z" style="fill:none;stroke-width:0.78px;stroke:#3e1b5a;"/></g></g><g><g><path d="M12.275,16.164c0,-0.552 -0.448,-1 -1,-1l-3.476,0c-0.552,0 -1,0.448 -1,1l0,3.439c0,0.552 0.448,1 1,1l3.476,0c0.552,0 1,-0.448 1,-1l0,-3.439Z" style="fill:none;stroke-width:0.78px;stroke:#3e1b5a;"/></g><g><path d="M20.225,16.164c0,-0.552 -0.448,-1 -1,-1l-3.475,0c-0.552,0 -1,0.448 -1,1l0,3.439c0,0.552 0.448,1 1,1l3.475,0c0.552,0 1,-0.448 1,-1l0,-3.439Z" style="fill:none;stroke-width:0.78px;stroke:#3e1b5a;"/></g></g><g><g><path d="M12.275,23.76c0,-0.552 -0.448,-1 -1,-1l-3.476,0c-0.552,0 -1,0.448 -1,1l0,3.44c0,0.552 0.448,1 1,1l3.476,0c0.552,0 1,-0.448 1,-1l0,-3.44Z" style="fill:none;stroke-width:0.78px;stroke:#3e1b5a;"/></g><g><path d="M20.225,23.76c0,-0.552 -0.448,-1 -1,-1l-3.475,0c-0.552,0 -1,0.448 -1,1l0,3.44c0,0.552 0.448,1 1,1l3.475,0c0.552,0 1,-0.448 1,-1l0,-3.44Z" style="fill:none;stroke-width:0.78px;stroke:#3e1b5a;"/></g></g></g></svg>