<?xml version="1.0" standalone="no"?><!DOCTYPE svg PUBLIC "-//W3C//DTD SVG 1.1//EN" "http://www.w3.org/Graphics/SVG/1.1/DTD/svg11.dtd"><svg width="100%" height="100%" viewBox="0 0 42 34" version="1.1" xmlns="http://www.w3.org/2000/svg" xmlns:xlink="http://www.w3.org/1999/xlink" xml:space="preserve" style="fill-rule:evenodd;clip-rule:evenodd;stroke-linejoin:round;stroke-miterlimit:1.41421;"><path id="twitter" d="M40.047,5.208c-1.079,1.579 -2.384,2.924 -3.914,4.036c0.016,0.225 0.024,0.563 0.024,1.014c0,2.095 -0.306,4.185 -0.918,6.271c-0.613,2.086 -1.543,4.087 -2.791,6.004c-1.249,1.917 -2.735,3.613 -4.458,5.087c-1.724,1.474 -3.802,2.65 -6.235,3.528c-2.432,0.878 -5.034,1.316 -7.804,1.316c-4.366,0 -8.361,-1.167 -11.985,-3.503c0.564,0.064 1.192,0.096 1.885,0.096c3.624,0 6.854,-1.111 9.689,-3.334c-1.691,-0.032 -3.206,-0.552 -4.543,-1.559c-1.337,-1.006 -2.255,-2.291 -2.754,-3.854c0.531,0.081 1.023,0.121 1.474,0.121c0.692,0 1.377,-0.088 2.054,-0.266c-1.805,-0.37 -3.299,-1.268 -4.483,-2.694c-1.184,-1.425 -1.776,-3.081 -1.776,-4.965l0,-0.097c1.096,0.612 2.272,0.942 3.528,0.991c-1.063,-0.709 -1.909,-1.635 -2.537,-2.779c-0.628,-1.144 -0.942,-2.384 -0.942,-3.721c0,-1.418 0.354,-2.731 1.063,-3.939c1.949,2.4 4.321,4.321 7.116,5.763c2.795,1.442 5.787,2.243 8.976,2.404c-0.128,-0.612 -0.193,-1.208 -0.193,-1.788c0,-2.158 0.761,-3.999 2.284,-5.521c1.522,-1.522 3.362,-2.283 5.521,-2.283c2.255,0 4.156,0.821 5.702,2.464c1.756,-0.338 3.407,-0.966 4.954,-1.885c-0.596,1.853 -1.74,3.287 -3.431,4.302c1.498,-0.162 2.996,-0.564 4.494,-1.209Z" style="fill:none;stroke-width:1.58px;stroke:#3e1b5a;"/></svg>