<?xml version="1.0" standalone="no"?><!DOCTYPE svg PUBLIC "-//W3C//DTD SVG 1.1//EN" "http://www.w3.org/Graphics/SVG/1.1/DTD/svg11.dtd"><svg width="100%" height="100%" viewBox="0 0 16 16" version="1.1" xmlns="http://www.w3.org/2000/svg" xmlns:xlink="http://www.w3.org/1999/xlink" xml:space="preserve" style="fill-rule:evenodd;clip-rule:evenodd;stroke-linejoin:round;stroke-miterlimit:1.41421;"><path id="upload" d="M11.949,13.359c0,-0.153 -0.056,-0.285 -0.168,-0.397c-0.111,-0.111 -0.244,-0.167 -0.396,-0.167c-0.153,0 -0.285,0.056 -0.397,0.167c-0.112,0.112 -0.167,0.244 -0.167,0.397c0,0.153 0.055,0.285 0.167,0.397c0.112,0.111 0.244,0.167 0.397,0.167c0.152,0 0.285,-0.056 0.396,-0.167c0.112,-0.112 0.168,-0.244 0.168,-0.397ZM14.205,13.359c0,-0.153 -0.056,-0.285 -0.167,-0.397c-0.112,-0.111 -0.244,-0.167 -0.397,-0.167c-0.153,0 -0.285,0.056 -0.397,0.167c-0.111,0.112 -0.167,0.244 -0.167,0.397c0,0.153 0.056,0.285 0.167,0.397c0.112,0.111 0.244,0.167 0.397,0.167c0.153,0 0.285,-0.056 0.397,-0.167c0.111,-0.112 0.167,-0.244 0.167,-0.397ZM15.333,11.385l0,2.82c0,0.235 -0.082,0.435 -0.246,0.6c-0.165,0.164 -0.365,0.246 -0.6,0.246l-12.974,0c-0.235,0 -0.435,-0.082 -0.6,-0.246c-0.164,-0.165 -0.246,-0.365 -0.246,-0.6l0,-2.82c0,-0.235 0.082,-0.435 0.246,-0.6c0.165,-0.164 0.365,-0.247 0.6,-0.247l3.763,0c0.124,0.33 0.331,0.6 0.622,0.811c0.291,0.212 0.615,0.318 0.974,0.318l2.256,0c0.359,0 0.683,-0.106 0.974,-0.318c0.291,-0.211 0.498,-0.481 0.622,-0.811l3.763,0c0.235,0 0.435,0.083 0.6,0.247c0.164,0.165 0.246,0.365 0.246,0.6ZM12.469,5.673c-0.1,0.235 -0.273,0.353 -0.52,0.353l-2.257,0l0,3.948c0,0.153 -0.055,0.285 -0.167,0.397c-0.112,0.112 -0.244,0.167 -0.397,0.167l-2.256,0c-0.153,0 -0.285,-0.055 -0.397,-0.167c-0.112,-0.112 -0.167,-0.244 -0.167,-0.397l0,-3.948l-2.257,0c-0.247,0 -0.42,-0.118 -0.52,-0.353c-0.1,-0.229 -0.059,-0.432 0.124,-0.608l3.948,-3.949c0.106,-0.112 0.238,-0.167 0.397,-0.167c0.159,0 0.291,0.055 0.397,0.167l3.948,3.949c0.183,0.176 0.224,0.379 0.124,0.608Z" style="fill:#000;fill-rule:nonzero;"/></svg>