<?xml version="1.0" standalone="no"?><!DOCTYPE svg PUBLIC "-//W3C//DTD SVG 1.1//EN" "http://www.w3.org/Graphics/SVG/1.1/DTD/svg11.dtd"><svg width="100%" height="100%" viewBox="0 0 112 198" version="1.1" xmlns="http://www.w3.org/2000/svg" xmlns:xlink="http://www.w3.org/1999/xlink" xml:space="preserve" style="fill-rule:evenodd;clip-rule:evenodd;stroke-linecap:round;stroke-linejoin:round;stroke-miterlimit:1.41421;"><rect id="hamburger-nav" x="0.999" y="0.643" width="110.593" height="196.708" style="fill:#faf9fb;"/><clipPath id="_clip1"><rect x="0.999" y="0.643" width="110.593" height="196.708"/></clipPath><g clip-path="url(#_clip1)"><rect x="0.999" y="0.643" width="89.656" height="196.708" style="fill:#f5f5f5;"/><rect x="0.999" y="68.673" width="89.656" height="128.679" style="fill:#ededed;fill-opacity:0.9;"/><rect x="90.655" y="0.643" width="20.937" height="196.708" style="fill:#352542;"/><path d="M96.472,7.686l9.303,0" style="fill:none;stroke-width:1px;stroke:#fff;"/><path d="M96.472,10.216l9.303,0" style="fill:none;stroke-width:1px;stroke:#fff;"/><path d="M96.472,12.745l9.303,0" style="fill:none;stroke-width:1px;stroke:#fff;"/><g id="User"><path d="M56.86,36.788c-0.592,-1.387 -1.447,-2.663 -2.534,-3.75c-2.234,-2.233 -5.263,-3.488 -8.423,-3.488c-0.051,0 -0.102,0 -0.153,0c-3.159,0 -6.189,1.255 -8.422,3.488c-2.234,2.234 -3.489,5.264 -3.489,8.423c0,0 0,0 0,0l23.976,0c0,0 0,0 0,0c0,-0.682 -0.059,-1.359 -0.173,-2.022" style="fill:none;stroke-width:1.1px;stroke:#352542;"/><path d="M40.947,33.439c-2.068,1.156 -3.648,3.08 -4.354,5.386" style="fill:none;stroke-width:1.1px;stroke:#352542;"/><circle cx="45.827" cy="24.698" r="7.907" style="fill:#f5f5f5;stroke-width:1.1px;stroke:#352542;"/></g><rect x="23.327" y="48.009" width="45" height="5" style="fill:#dfdfdf;"/><g><rect x="30.828" y="86.84" width="45" height="5" style="fill:#d4d4d4;"/><rect x="15.826" y="84.84" width="9" height="9" style="fill:#d4d4d4;"/></g><g><rect x="30.828" y="110.553" width="45" height="5" style="fill:#d4d4d4;"/><rect x="15.826" y="108.553" width="9" height="9" style="fill:#d4d4d4;"/></g><g><rect x="30.828" y="134.266" width="45" height="5" style="fill:#d4d4d4;"/><rect x="15.826" y="132.266" width="9" height="9" style="fill:#d4d4d4;"/></g><g><rect x="30.828" y="157.98" width="45" height="5" style="fill:#d4d4d4;"/><rect x="15.826" y="155.98" width="9" height="9" style="fill:#d4d4d4;"/></g></g></svg>