<?xml version="1.0" standalone="no"?><!DOCTYPE svg PUBLIC "-//W3C//DTD SVG 1.1//EN" "http://www.w3.org/Graphics/SVG/1.1/DTD/svg11.dtd"><svg width="100%" height="100%" viewBox="0 0 34 28" version="1.1" xmlns="http://www.w3.org/2000/svg" xmlns:xlink="http://www.w3.org/1999/xlink" xml:space="preserve" style="fill-rule:evenodd;clip-rule:evenodd;stroke-linecap:round;stroke-linejoin:round;stroke-miterlimit:1.41421;"><g id="card"><g><path d="M4.062,26.158c8.648,0 17.296,0.105 25.943,-0.001c0.063,-0.002 0.125,-0.006 0.187,-0.012c0.242,-0.027 0.478,-0.084 0.702,-0.179c0.62,-0.263 1.117,-0.783 1.349,-1.416c0.091,-0.251 0.137,-0.512 0.147,-0.779c0.084,-6.513 0.084,-13.029 0,-19.542c-0.011,-0.287 -0.063,-0.568 -0.169,-0.835c-0.254,-0.646 -0.786,-1.165 -1.438,-1.403c-0.251,-0.092 -0.512,-0.138 -0.778,-0.148c-8.669,-0.106 -17.341,-0.106 -26.01,0c-0.286,0.011 -0.567,0.063 -0.834,0.169c-0.646,0.255 -1.165,0.786 -1.404,1.438c-0.091,0.251 -0.137,0.512 -0.147,0.778c-0.08,6.514 -0.08,13.03 0,19.544c0.01,0.266 0.056,0.527 0.147,0.778c0.232,0.633 0.728,1.153 1.349,1.416c0.244,0.103 0.5,0.161 0.764,0.185c0.064,0.004 0.128,0.006 0.192,0.007ZM4.055,27.258c-0.386,-0.005 -0.768,-0.062 -1.134,-0.187c-0.981,-0.332 -1.786,-1.098 -2.166,-2.061c-0.153,-0.388 -0.229,-0.795 -0.245,-1.211c-0.08,-6.532 -0.08,-13.066 0,-19.598c0.015,-0.387 0.081,-0.766 0.214,-1.129c0.346,-0.945 1.098,-1.714 2.033,-2.084c0.388,-0.152 0.795,-0.229 1.21,-0.245c8.688,-0.106 17.378,-0.106 26.066,0c0.386,0.015 0.765,0.081 1.129,0.215c0.944,0.346 1.714,1.097 2.083,2.032c0.153,0.388 0.229,0.795 0.245,1.21c0.084,6.533 0.084,13.067 0,19.6c-0.016,0.415 -0.092,0.822 -0.245,1.21c-0.369,0.935 -1.139,1.686 -2.083,2.032c-0.364,0.134 -0.743,0.2 -1.129,0.215c-8.659,0.106 -17.319,0.001 -25.978,0.001Z" style="fill:#fff;fill-rule:nonzero;"/></g><rect x="1.258" y="7.096" width="31.261" height="4.496" style="fill:#fff;"/><path d="M24.695,21.599c-0.419,0.439 -1.01,0.713 -1.665,0.713c-1.269,0 -2.299,-1.03 -2.299,-2.3c0,-1.269 1.03,-2.299 2.299,-2.299c0.655,0 1.246,0.274 1.665,0.713c0.419,-0.439 1.01,-0.713 1.664,-0.713c1.27,0 2.3,1.03 2.3,2.299c0,1.27 -1.03,2.3 -2.3,2.3c-0.654,0 -1.245,-0.274 -1.664,-0.713Z" style="fill:none;stroke-width:1.39px;stroke:#fff;"/></g></svg>