<?xml version="1.0" standalone="no"?>
<!DOCTYPE svg PUBLIC "-//W3C//DTD SVG 1.1//EN" "http://www.w3.org/Graphics/SVG/1.1/DTD/svg11.dtd">
<svg width="100%" height="100%" viewBox="0 0 18 18" version="1.1" xmlns="http://www.w3.org/2000/svg" xmlns:xlink="http://www.w3.org/1999/xlink" xml:space="preserve" style="fill-rule:evenodd;clip-rule:evenodd;stroke-linejoin:round;stroke-miterlimit:1.41421;">
    <g transform="matrix(1,0,0,1,-991,-991)">
        <g transform="matrix(1.19492,0,0,1.19492,305.389,187.821)">
            <g transform="matrix(1.33901,0,0,1.33901,-199.335,-228.151)">
                <circle cx="583" cy="678" r="5" style="fill:rgb(101,45,145);"/>
            </g>
            <g transform="matrix(1.33901,0,0,1.33901,-199.335,-228.151)">
                <path d="M583.07,672.532C583.326,672.536 583.579,672.556 583.832,672.594C584.343,672.672 584.842,672.824 585.31,673.043C586.407,673.555 587.318,674.434 587.87,675.511C588.115,675.989 588.288,676.504 588.383,677.033C588.486,677.603 588.496,678.19 588.416,678.764C588.338,679.32 588.173,679.864 587.929,680.37C587.643,680.964 587.249,681.504 586.772,681.958C586.279,682.429 585.698,682.806 585.067,683.064C584.412,683.332 583.707,683.469 583,683.469C582.293,683.469 581.588,683.332 580.933,683.064C580.302,682.806 579.721,682.429 579.228,681.958C578.751,681.504 578.357,680.964 578.071,680.37C577.827,679.864 577.662,679.32 577.584,678.764C577.504,678.19 577.514,677.603 577.617,677.033C577.712,676.504 577.885,675.989 578.13,675.511C578.682,674.434 579.593,673.555 580.69,673.043C581.158,672.824 581.657,672.672 582.168,672.594C582.421,672.556 582.674,672.536 582.93,672.532C583,672.531 583,672.531 583.07,672.532ZM582.941,673.469C582.73,673.473 582.519,673.489 582.31,673.521C581.887,673.586 581.474,673.711 581.086,673.892C580.178,674.317 579.422,675.046 578.965,675.938C578.762,676.334 578.618,676.76 578.54,677.198C578.455,677.671 578.446,678.158 578.513,678.634C578.577,679.095 578.714,679.544 578.916,679.963C579.153,680.455 579.479,680.903 579.874,681.279C580.284,681.669 580.765,681.982 581.288,682.196C581.83,682.418 582.414,682.531 583,682.531C583.586,682.531 584.17,682.418 584.712,682.196C585.235,681.982 585.716,681.669 586.126,681.279C586.521,680.903 586.847,680.455 587.084,679.963C587.286,679.544 587.423,679.095 587.487,678.634C587.554,678.158 587.545,677.671 587.46,677.198C587.382,676.76 587.238,676.334 587.035,675.938C586.578,675.046 585.822,674.317 584.914,673.892C584.526,673.711 584.113,673.586 583.69,673.521C583.481,673.489 583.27,673.473 583.059,673.469C583,673.469 583,673.469 582.941,673.469Z" style="fill:white;fill-rule:nonzero;"/>
            </g>
            <g transform="matrix(0.428252,0,0,0.428252,510.215,669.863)">
                <path d="M164.213,27.969C163.757,27.969 163.325,27.765 163.048,27.415L159.301,22.688C158.814,22.073 158.94,21.197 159.584,20.732C160.229,20.265 161.144,20.387 161.632,21.002L164.096,24.111L170.294,18.608C170.721,17.954 171.622,17.754 172.308,18.161C172.993,18.569 173.202,19.43 172.776,20.085L165.454,27.311C165.2,27.701 164.761,27.946 164.28,27.968C164.257,27.969 164.235,27.969 164.213,27.969Z" style="fill:white;fill-rule:nonzero;"/>
            </g>
        </g>
    </g>
</svg>
