<?xml version="1.0" standalone="no"?><!DOCTYPE svg PUBLIC "-//W3C//DTD SVG 1.1//EN" "http://www.w3.org/Graphics/SVG/1.1/DTD/svg11.dtd"><svg width="100%" height="100%" viewBox="0 0 34 34" version="1.1" xmlns="http://www.w3.org/2000/svg" xmlns:xlink="http://www.w3.org/1999/xlink" xml:space="preserve" style="fill-rule:evenodd;clip-rule:evenodd;stroke-linecap:round;stroke-linejoin:round;stroke-miterlimit:10;"><g id="colors"><path d="M22.242,18.054l4.822,-4.822c1.741,-1.74 1.741,-4.561 0,-6.302c-1.74,-1.74 -4.562,-1.74 -6.302,0l-4.822,4.822" style="fill:none;stroke-width:1.11px;stroke:#652d91;"/><path d="M15.388,16.188l-8.104,8.104c-0.667,0.667 -1.146,2.229 -0.478,2.897c0.668,0.667 2.229,0.189 2.897,-0.478l8.104,-8.105" style="fill:none;stroke-width:1.11px;stroke:#652d91;"/><path d="M6.8,27.183l-1.169,1.192" style="fill:none;stroke-width:1.11px;stroke:#652d91;"/><path d="M21.227,17.639l1.593,1.592c0.217,0.217 0.217,0.571 0,0.788l-0.783,0.783c-0.216,0.217 -0.571,0.217 -0.787,0l-8.057,-8.057c-0.217,-0.217 -0.217,-0.571 0,-0.788l0.782,-0.783c0.217,-0.216 0.572,-0.216 0.788,0l1.462,1.462" style="fill:none;stroke-width:1.11px;stroke:#652d91;"/><path d="M11.219,23.341l0.927,0.926" style="fill:none;stroke-width:1.11px;stroke:#652d91;"/></g></svg>