<?xml version="1.0" standalone="no"?><!DOCTYPE svg PUBLIC "-//W3C//DTD SVG 1.1//EN" "http://www.w3.org/Graphics/SVG/1.1/DTD/svg11.dtd"><svg width="100%" height="100%" viewBox="0 0 52 28" version="1.1" xmlns="http://www.w3.org/2000/svg" xmlns:xlink="http://www.w3.org/1999/xlink" xml:space="preserve" style="fill-rule:evenodd;clip-rule:evenodd;stroke-linejoin:round;stroke-miterlimit:1.41421;"><path id="color-select" d="M13.386,24.5l0.132,-0.001l0.132,-0.002l0.132,-0.004l0.131,-0.006l0.132,-0.007l0.131,-0.008l0.132,-0.011l0.131,-0.012l0.131,-0.014l0.131,-0.015l0.131,-0.017l0.13,-0.018l0.13,-0.021l0.13,-0.021l0.13,-0.024l0.129,-0.025l0.129,-0.027l0.129,-0.028l0.108,-0.025l0.107,-0.026l0.107,-0.028l0.107,-0.028l0.106,-0.03l0.106,-0.031l0.106,-0.031l0.105,-0.033l0.105,-0.035l0.105,-0.035l0.104,-0.036l0.104,-0.037l0.104,-0.039l0.103,-0.039l0.102,-0.041l0.102,-0.042l0.102,-0.043l0.102,-0.043l0.1,-0.045l0.101,-0.046l0.1,-0.047l0.099,-0.049l0.099,-0.049l0.098,-0.05l0.098,-0.051l0.097,-0.052l0.097,-0.054l0.096,-0.054l0.096,-0.055l0.095,-0.057l0.094,-0.057l0.094,-0.058l0.079,-0.05l0.078,-0.051l0.078,-0.051l0.077,-0.052l0.076,-0.053l0.077,-0.054l0.075,-0.054l0.076,-0.055l0.074,-0.055l0.075,-0.056l0.073,-0.057l0.074,-0.057l0.145,-0.117l0.144,-0.118l0.14,-0.122l0.139,-0.123l0.066,-0.061l0.065,-0.062l0.129,-0.123l0.13,-0.123l0.066,-0.06l0.067,-0.06l0.081,-0.071l0.082,-0.069l0.083,-0.068l0.085,-0.067l0.085,-0.065l0.086,-0.065l0.087,-0.062l0.088,-0.062l0.069,-0.046l0.069,-0.046l0.069,-0.045l0.07,-0.044l0.07,-0.043l0.071,-0.042l0.072,-0.042l0.072,-0.041l0.072,-0.04l0.073,-0.039l0.073,-0.038l0.074,-0.037l0.074,-0.036l0.075,-0.036l0.075,-0.035l0.075,-0.034l0.076,-0.033l0.076,-0.032l0.077,-0.031l0.076,-0.03l0.078,-0.03l0.077,-0.028l0.078,-0.028l0.078,-0.026l0.079,-0.026l0.079,-0.025l0.079,-0.024l0.079,-0.023l0.08,-0.022l0.079,-0.022l0.081,-0.02l0.08,-0.019l0.073,-0.017l0.074,-0.016l0.073,-0.015l0.074,-0.014l0.074,-0.014l0.074,-0.012l0.074,-0.012l0.074,-0.011l0.074,-0.011l0.075,-0.009l0.149,-0.018l0.149,-0.014l0.15,-0.011l0.087,-0.005l0.086,-0.003l0.086,-0.003l0.087,-0.002l-0.036,0l-0.025,-0.002l-0.06,-0.009l0.198,0.012l0.317,0l0.317,0l0.198,-0.012l-0.06,0.009l-0.025,0.002l-0.036,0l0.087,0.002l0.086,0.003l0.086,0.003l0.087,0.005l0.15,0.011l0.149,0.014l0.149,0.018l0.075,0.009l0.074,0.011l0.074,0.011l0.074,0.012l0.074,0.012l0.074,0.014l0.074,0.014l0.073,0.015l0.074,0.016l0.073,0.017l0.08,0.019l0.081,0.02l0.079,0.022l0.08,0.022l0.079,0.023l0.079,0.024l0.079,0.025l0.079,0.026l0.078,0.026l0.078,0.028l0.077,0.028l0.078,0.03l0.076,0.03l0.077,0.031l0.076,0.032l0.076,0.033l0.075,0.034l0.075,0.035l0.075,0.036l0.074,0.036l0.074,0.037l0.073,0.038l0.073,0.039l0.072,0.04l0.072,0.041l0.072,0.042l0.071,0.042l0.07,0.043l0.07,0.044l0.069,0.045l0.069,0.046l0.069,0.046l0.088,0.062l0.087,0.062l0.086,0.065l0.085,0.065l0.085,0.067l0.083,0.068l0.082,0.069l0.081,0.071l0.067,0.06l0.066,0.06l0.13,0.123l0.129,0.123l0.065,0.062l0.066,0.061l0.139,0.123l0.14,0.122l0.144,0.118l0.145,0.117l0.074,0.057l0.073,0.057l0.075,0.056l0.074,0.055l0.076,0.055l0.075,0.054l0.077,0.054l0.076,0.053l0.077,0.052l0.078,0.051l0.078,0.051l0.079,0.05l0.094,0.058l0.094,0.057l0.095,0.057l0.096,0.055l0.096,0.054l0.097,0.054l0.097,0.052l0.098,0.051l0.098,0.05l0.099,0.049l0.099,0.049l0.1,0.047l0.101,0.046l0.1,0.045l0.102,0.043l0.102,0.043l0.102,0.042l0.102,0.041l0.103,0.039l0.104,0.039l0.104,0.037l0.104,0.036l0.105,0.035l0.105,0.035l0.105,0.033l0.106,0.031l0.106,0.031l0.106,0.03l0.107,0.028l0.107,0.028l0.107,0.026l0.108,0.025l0.129,0.028l0.129,0.027l0.129,0.025l0.13,0.024l0.13,0.021l0.13,0.021l0.13,0.018l0.131,0.017l0.131,0.015l0.131,0.014l0.131,0.012l0.132,0.011l0.131,0.008l0.132,0.007l0.131,0.006l0.132,0.004l0.132,0.002l0.132,0.001l0.131,-0.001l0.132,-0.003l0.132,-0.005l0.131,-0.006l0.132,-0.007l0.131,-0.009l0.132,-0.011l0.131,-0.013l0.131,-0.014l0.131,-0.016l0.13,-0.017l0.131,-0.019l0.13,-0.021l0.13,-0.022l0.122,-0.023l0.123,-0.024l0.122,-0.026l0.121,-0.027l0.122,-0.028l0.121,-0.03l0.12,-0.032l0.12,-0.033l0.12,-0.034l0.119,-0.036l0.119,-0.037l0.119,-0.038l0.118,-0.04l0.117,-0.042l0.117,-0.042l0.116,-0.044l0.116,-0.046l0.116,-0.047l0.115,-0.048l0.114,-0.05l0.114,-0.05l0.113,-0.053l0.112,-0.053l0.112,-0.055l0.111,-0.057l0.11,-0.057l0.11,-0.059l0.109,-0.06l0.109,-0.062l0.107,-0.063l0.107,-0.064l0.106,-0.065l0.103,-0.065l0.103,-0.067l0.101,-0.068l0.101,-0.068l0.1,-0.07l0.099,-0.072l0.099,-0.072l0.097,-0.073l0.097,-0.075l0.096,-0.076l0.095,-0.076l0.094,-0.078l0.093,-0.079l0.092,-0.08l0.091,-0.081l0.09,-0.082l0.09,-0.083l0.088,-0.084l0.088,-0.086l0.086,-0.086l0.085,-0.087l0.085,-0.088l0.083,-0.089l0.083,-0.09l0.081,-0.091l0.08,-0.092l0.079,-0.093l0.079,-0.094l0.077,-0.095l0.076,-0.095l0.074,-0.097l0.074,-0.097l0.066,-0.09l0.066,-0.09l0.064,-0.091l0.064,-0.092l0.062,-0.092l0.062,-0.093l0.06,-0.094l0.059,-0.094l0.059,-0.095l0.057,-0.095l0.057,-0.097l0.055,-0.096l0.055,-0.098l0.053,-0.098l0.052,-0.098l0.051,-0.099l0.051,-0.099l0.049,-0.101l0.048,-0.1l0.047,-0.101l0.046,-0.102l0.045,-0.102l0.043,-0.102l0.043,-0.103l0.042,-0.104l0.04,-0.104l0.04,-0.104l0.038,-0.105l0.037,-0.105l0.036,-0.105l0.035,-0.106l0.034,-0.107l0.027,-0.09l0.027,-0.091l0.026,-0.091l0.026,-0.092l0.024,-0.091l0.024,-0.092l0.022,-0.092l0.022,-0.092l0.021,-0.093l0.021,-0.092l0.019,-0.093l0.019,-0.093l0.017,-0.093l0.017,-0.093l0.016,-0.094l0.015,-0.093l0.015,-0.094l0.013,-0.094l0.013,-0.094l0.012,-0.094l0.011,-0.094l0.01,-0.094l0.009,-0.095l0.009,-0.094l0.007,-0.095l0.007,-0.094l0.006,-0.095l0.005,-0.095l0.004,-0.094l0.003,-0.095l0.003,-0.095l0.001,-0.095l0.001,-0.103l0,-0.103l-0.001,-0.103l-0.002,-0.104l-0.004,-0.103l-0.004,-0.103l-0.005,-0.103l-0.006,-0.103l-0.008,-0.103l-0.008,-0.103l-0.009,-0.103l-0.01,-0.102l-0.012,-0.103l-0.012,-0.102l-0.013,-0.103l-0.015,-0.102l-0.015,-0.102l-0.016,-0.102l-0.017,-0.102l-0.019,-0.101l-0.019,-0.102l-0.02,-0.101l-0.021,-0.101l-0.023,-0.101l-0.023,-0.1l-0.024,-0.101l-0.025,-0.1l-0.027,-0.1l-0.027,-0.099l-0.028,-0.1l-0.029,-0.099l-0.03,-0.098l-0.038,-0.118l-0.039,-0.117l-0.04,-0.117l-0.041,-0.116l-0.043,-0.115l-0.044,-0.115l-0.046,-0.115l-0.047,-0.114l-0.048,-0.113l-0.05,-0.113l-0.051,-0.112l-0.052,-0.112l-0.054,-0.111l-0.055,-0.111l-0.056,-0.109l-0.057,-0.109l-0.059,-0.109l-0.06,-0.107l-0.061,-0.107l-0.063,-0.107l-0.063,-0.105l-0.065,-0.105l-0.066,-0.104l-0.068,-0.103l-0.068,-0.103l-0.07,-0.101l-0.071,-0.101l-0.072,-0.1l-0.074,-0.099l-0.074,-0.099l-0.076,-0.097l-0.077,-0.097l-0.09,-0.11l-0.091,-0.108l-0.093,-0.108l-0.094,-0.106l-0.096,-0.105l-0.097,-0.104l-0.098,-0.102l-0.1,-0.101l-0.101,-0.1l-0.103,-0.098l-0.103,-0.097l-0.105,-0.095l-0.107,-0.094l-0.107,-0.093l-0.109,-0.091l-0.11,-0.09l-0.111,-0.088l-0.113,-0.087l-0.113,-0.085l-0.115,-0.084l-0.116,-0.082l-0.116,-0.081l-0.118,-0.079l-0.119,-0.077l-0.12,-0.076l-0.121,-0.074l-0.123,-0.073l-0.123,-0.071l-0.124,-0.069l-0.125,-0.067l-0.125,-0.066l-0.127,-0.064l-0.087,-0.043l-0.088,-0.042l-0.087,-0.041l-0.089,-0.04l-0.088,-0.04l-0.089,-0.039l-0.089,-0.037l-0.09,-0.037l-0.09,-0.037l-0.09,-0.035l-0.091,-0.034l-0.09,-0.034l-0.092,-0.033l-0.091,-0.032l-0.092,-0.031l-0.092,-0.03l-0.092,-0.03l-0.093,-0.028l-0.093,-0.028l-0.093,-0.027l-0.093,-0.026l-0.094,-0.025l-0.094,-0.024l-0.094,-0.023l-0.094,-0.023l-0.095,-0.021l-0.094,-0.021l-0.095,-0.02l-0.095,-0.019l-0.095,-0.018l-0.096,-0.017l-0.095,-0.017l-0.091,-0.014l-0.09,-0.014l-0.091,-0.013l-0.091,-0.012l-0.091,-0.011l-0.09,-0.011l-0.091,-0.009l-0.091,-0.009l-0.183,-0.016l-0.182,-0.012l-0.183,-0.01l-0.183,-0.007l-0.134,-0.002l-0.134,-0.001l-0.133,0.001l-0.134,0.002l-0.115,0.004l-0.114,0.005l-0.114,0.006l-0.114,0.008l-0.114,0.008l-0.114,0.01l-0.114,0.011l-0.113,0.011l-0.114,0.014l-0.113,0.014l-0.113,0.016l-0.113,0.016l-0.113,0.018l-0.113,0.02l-0.112,0.02l-0.113,0.022l-0.123,0.026l-0.124,0.027l-0.123,0.029l-0.122,0.03l-0.122,0.032l-0.122,0.033l-0.122,0.035l-0.12,0.036l-0.121,0.037l-0.12,0.039l-0.12,0.041l-0.119,0.042l-0.118,0.043l-0.118,0.045l-0.118,0.046l-0.116,0.048l-0.117,0.048l-0.115,0.051l-0.116,0.052l-0.114,0.053l-0.114,0.054l-0.113,0.056l-0.113,0.057l-0.111,0.059l-0.111,0.06l-0.111,0.061l-0.109,0.062l-0.109,0.064l-0.108,0.066l-0.108,0.066l-0.106,0.068l-0.106,0.069l-0.142,0.095l-0.139,0.098l-0.139,0.1l-0.136,0.102l-0.135,0.104l-0.134,0.107l-0.131,0.109l-0.13,0.11l-0.082,0.073l-0.081,0.073l-0.081,0.075l-0.08,0.075l-0.159,0.151l-0.08,0.075l-0.081,0.074l-0.064,0.057l-0.065,0.057l-0.066,0.056l-0.066,0.055l-0.101,0.08l-0.101,0.079l-0.103,0.077l-0.105,0.075l-0.105,0.073l-0.107,0.072l-0.108,0.069l-0.11,0.068l-0.064,0.038l-0.064,0.037l-0.065,0.037l-0.066,0.036l-0.065,0.036l-0.066,0.035l-0.067,0.034l-0.066,0.033l-0.068,0.033l-0.067,0.031l-0.068,0.032l-0.068,0.03l-0.068,0.03l-0.069,0.029l-0.069,0.028l-0.069,0.028l-0.07,0.027l-0.07,0.026l-0.07,0.025l-0.07,0.025l-0.071,0.024l-0.071,0.023l-0.071,0.023l-0.071,0.022l-0.072,0.021l-0.072,0.02l-0.072,0.019l-0.072,0.019l-0.073,0.018l-0.072,0.017l-0.073,0.017l-0.073,0.015l-0.091,0.018l-0.09,0.018l-0.091,0.015l-0.091,0.015l-0.091,0.013l-0.092,0.012l-0.091,0.011l-0.092,0.01l-0.091,0.009l-0.092,0.007l-0.092,0.006l-0.092,0.006l-0.092,0.004l-0.092,0.003l-0.093,0.002l-0.092,0.001l-0.138,0.008l-0.003,-0.004l-0.001,-0.002l0.028,-0.001l0.038,0l-0.069,-0.002l-0.006,-0.005l-0.005,-0.003l-0.006,-0.002l-0.006,-0.001l-0.127,0.006l-0.127,-0.006l-0.006,0.001l-0.006,0.002l-0.005,0.003l-0.006,0.005l-0.069,0.002l0.038,0l0.028,0.001l-0.001,0.002l-0.003,0.004l-0.138,-0.008l-0.092,-0.001l-0.093,-0.002l-0.092,-0.003l-0.092,-0.004l-0.092,-0.006l-0.092,-0.006l-0.092,-0.007l-0.091,-0.009l-0.092,-0.01l-0.091,-0.011l-0.092,-0.012l-0.091,-0.013l-0.091,-0.015l-0.091,-0.015l-0.09,-0.018l-0.091,-0.018l-0.073,-0.015l-0.073,-0.017l-0.072,-0.017l-0.073,-0.018l-0.072,-0.019l-0.072,-0.019l-0.072,-0.02l-0.072,-0.021l-0.071,-0.022l-0.071,-0.023l-0.071,-0.023l-0.071,-0.024l-0.07,-0.025l-0.07,-0.025l-0.07,-0.026l-0.07,-0.027l-0.069,-0.028l-0.069,-0.028l-0.069,-0.029l-0.068,-0.03l-0.068,-0.03l-0.068,-0.032l-0.067,-0.031l-0.068,-0.033l-0.066,-0.033l-0.067,-0.034l-0.066,-0.035l-0.065,-0.036l-0.066,-0.036l-0.065,-0.037l-0.064,-0.037l-0.064,-0.038l-0.11,-0.068l-0.108,-0.069l-0.107,-0.072l-0.105,-0.073l-0.105,-0.075l-0.103,-0.077l-0.101,-0.079l-0.101,-0.08l-0.066,-0.055l-0.066,-0.056l-0.065,-0.057l-0.064,-0.057l-0.081,-0.074l-0.08,-0.075l-0.159,-0.151l-0.08,-0.075l-0.081,-0.075l-0.081,-0.073l-0.082,-0.073l-0.13,-0.11l-0.131,-0.109l-0.134,-0.107l-0.135,-0.104l-0.136,-0.102l-0.139,-0.1l-0.139,-0.098l-0.142,-0.095l-0.106,-0.069l-0.106,-0.068l-0.108,-0.066l-0.108,-0.066l-0.109,-0.064l-0.109,-0.062l-0.111,-0.061l-0.111,-0.06l-0.111,-0.059l-0.113,-0.057l-0.113,-0.056l-0.114,-0.054l-0.114,-0.053l-0.116,-0.052l-0.115,-0.051l-0.117,-0.048l-0.116,-0.048l-0.118,-0.046l-0.118,-0.045l-0.118,-0.043l-0.119,-0.042l-0.12,-0.041l-0.12,-0.039l-0.121,-0.037l-0.12,-0.036l-0.122,-0.035l-0.122,-0.033l-0.122,-0.032l-0.122,-0.03l-0.123,-0.029l-0.124,-0.027l-0.123,-0.026l-0.113,-0.022l-0.112,-0.02l-0.113,-0.02l-0.113,-0.018l-0.113,-0.016l-0.113,-0.016l-0.113,-0.014l-0.114,-0.014l-0.113,-0.011l-0.114,-0.011l-0.114,-0.01l-0.114,-0.008l-0.114,-0.008l-0.114,-0.006l-0.114,-0.005l-0.115,-0.004l-0.134,-0.002l-0.133,-0.001l-0.134,0.001l-0.134,0.002l-0.183,0.007l-0.183,0.01l-0.182,0.012l-0.183,0.016l-0.091,0.009l-0.091,0.009l-0.09,0.011l-0.091,0.011l-0.091,0.012l-0.091,0.013l-0.09,0.014l-0.091,0.014l-0.095,0.017l-0.096,0.017l-0.095,0.018l-0.095,0.019l-0.095,0.02l-0.094,0.021l-0.095,0.021l-0.094,0.023l-0.094,0.023l-0.094,0.024l-0.094,0.025l-0.093,0.026l-0.093,0.027l-0.093,0.028l-0.093,0.028l-0.092,0.03l-0.092,0.03l-0.092,0.031l-0.091,0.032l-0.092,0.033l-0.09,0.034l-0.091,0.034l-0.09,0.035l-0.09,0.037l-0.09,0.037l-0.089,0.037l-0.089,0.039l-0.088,0.04l-0.089,0.04l-0.087,0.041l-0.088,0.042l-0.087,0.043l-0.127,0.064l-0.125,0.066l-0.125,0.067l-0.124,0.069l-0.123,0.071l-0.123,0.073l-0.121,0.074l-0.12,0.076l-0.119,0.077l-0.118,0.079l-0.116,0.081l-0.116,0.082l-0.115,0.084l-0.113,0.085l-0.113,0.087l-0.111,0.088l-0.11,0.09l-0.109,0.091l-0.107,0.093l-0.107,0.094l-0.105,0.095l-0.103,0.097l-0.103,0.098l-0.101,0.1l-0.1,0.101l-0.098,0.102l-0.097,0.104l-0.096,0.105l-0.094,0.106l-0.093,0.108l-0.091,0.108l-0.09,0.11l-0.077,0.097l-0.076,0.097l-0.074,0.099l-0.074,0.099l-0.072,0.1l-0.071,0.101l-0.07,0.101l-0.068,0.103l-0.068,0.103l-0.066,0.104l-0.065,0.105l-0.063,0.105l-0.063,0.107l-0.061,0.107l-0.06,0.107l-0.059,0.109l-0.057,0.109l-0.056,0.109l-0.055,0.111l-0.054,0.111l-0.052,0.112l-0.051,0.112l-0.05,0.113l-0.048,0.113l-0.047,0.114l-0.046,0.115l-0.044,0.115l-0.043,0.115l-0.041,0.116l-0.04,0.117l-0.039,0.117l-0.038,0.118l-0.03,0.098l-0.029,0.099l-0.028,0.1l-0.027,0.099l-0.027,0.1l-0.025,0.1l-0.024,0.101l-0.023,0.1l-0.023,0.101l-0.021,0.101l-0.02,0.101l-0.019,0.102l-0.019,0.101l-0.017,0.102l-0.016,0.102l-0.015,0.102l-0.015,0.102l-0.013,0.103l-0.012,0.102l-0.012,0.103l-0.01,0.102l-0.009,0.103l-0.008,0.103l-0.008,0.103l-0.006,0.103l-0.005,0.103l-0.004,0.103l-0.004,0.103l-0.002,0.104l-0.001,0.103l0,0.103l0.001,0.103l0.001,0.095l0.003,0.095l0.003,0.095l0.004,0.094l0.005,0.095l0.006,0.095l0.007,0.094l0.007,0.095l0.009,0.094l0.009,0.095l0.01,0.094l0.011,0.094l0.012,0.094l0.013,0.094l0.013,0.094l0.015,0.094l0.015,0.093l0.016,0.094l0.017,0.093l0.017,0.093l0.019,0.093l0.019,0.093l0.021,0.092l0.021,0.093l0.022,0.092l0.022,0.092l0.024,0.092l0.024,0.091l0.026,0.092l0.026,0.091l0.027,0.091l0.027,0.09l0.034,0.107l0.035,0.106l0.036,0.105l0.037,0.105l0.038,0.105l0.04,0.104l0.04,0.104l0.042,0.104l0.043,0.103l0.043,0.102l0.045,0.102l0.046,0.102l0.047,0.101l0.048,0.1l0.049,0.101l0.051,0.099l0.051,0.099l0.052,0.098l0.053,0.098l0.055,0.098l0.055,0.096l0.057,0.097l0.057,0.095l0.059,0.095l0.059,0.094l0.06,0.094l0.062,0.093l0.062,0.092l0.064,0.092l0.064,0.091l0.066,0.09l0.066,0.09l0.074,0.097l0.074,0.097l0.076,0.095l0.077,0.095l0.079,0.094l0.079,0.093l0.08,0.092l0.081,0.091l0.083,0.09l0.083,0.089l0.085,0.088l0.085,0.087l0.086,0.086l0.088,0.086l0.088,0.084l0.09,0.083l0.09,0.082l0.091,0.081l0.092,0.08l0.093,0.079l0.094,0.078l0.095,0.076l0.096,0.076l0.097,0.075l0.097,0.073l0.099,0.072l0.099,0.072l0.1,0.07l0.101,0.068l0.101,0.068l0.103,0.067l0.103,0.065l0.106,0.065l0.107,0.064l0.107,0.063l0.109,0.062l0.109,0.06l0.11,0.059l0.11,0.057l0.111,0.057l0.112,0.055l0.112,0.053l0.113,0.053l0.114,0.05l0.114,0.05l0.115,0.048l0.116,0.047l0.116,0.046l0.116,0.044l0.117,0.042l0.117,0.042l0.118,0.04l0.119,0.038l0.119,0.037l0.119,0.036l0.12,0.034l0.12,0.033l0.12,0.032l0.121,0.03l0.122,0.028l0.121,0.027l0.122,0.026l0.123,0.024l0.122,0.023l0.13,0.022l0.13,0.021l0.131,0.019l0.13,0.017l0.131,0.016l0.131,0.014l0.131,0.013l0.132,0.011l0.131,0.009l0.132,0.007l0.131,0.006l0.132,0.005l0.132,0.003l0.131,0.001ZM26.752,20.971l0.041,-0.005l0.044,-0.009l0,-0.001l-0.085,0.015ZM25.248,20.971l-0.085,-0.015l0,0.001l0.044,0.009l0.041,0.005ZM25.453,19.485l-0.007,-0.001l-0.002,0l0.009,0.001ZM26.547,19.485l0.008,-0.001l0.001,0l-0.002,0l-0.007,0.001ZM13.384,26l-0.151,-0.002l-0.15,-0.003l-0.151,-0.005l-0.15,-0.006l-0.15,-0.009l-0.15,-0.011l-0.15,-0.012l-0.15,-0.014l-0.15,-0.017l-0.149,-0.018l-0.149,-0.02l-0.15,-0.022l-0.148,-0.023l-0.149,-0.026l-0.14,-0.026l-0.14,-0.027l-0.14,-0.03l-0.139,-0.031l-0.139,-0.032l-0.138,-0.035l-0.138,-0.036l-0.137,-0.037l-0.137,-0.039l-0.137,-0.041l-0.136,-0.043l-0.135,-0.044l-0.135,-0.045l-0.134,-0.048l-0.134,-0.048l-0.133,-0.051l-0.133,-0.052l-0.131,-0.053l-0.131,-0.055l-0.131,-0.057l-0.13,-0.058l-0.129,-0.06l-0.129,-0.061l-0.128,-0.063l-0.127,-0.064l-0.126,-0.066l-0.125,-0.068l-0.125,-0.068l-0.124,-0.071l-0.123,-0.072l-0.122,-0.073l-0.122,-0.075l-0.118,-0.075l-0.117,-0.075l-0.116,-0.078l-0.115,-0.079l-0.115,-0.08l-0.113,-0.081l-0.112,-0.082l-0.112,-0.084l-0.11,-0.085l-0.109,-0.087l-0.109,-0.088l-0.107,-0.088l-0.106,-0.091l-0.106,-0.091l-0.104,-0.092l-0.103,-0.094l-0.102,-0.095l-0.101,-0.096l-0.099,-0.097l-0.099,-0.098l-0.098,-0.1l-0.096,-0.101l-0.095,-0.101l-0.094,-0.103l-0.093,-0.104l-0.092,-0.105l-0.09,-0.106l-0.089,-0.107l-0.089,-0.109l-0.087,-0.109l-0.085,-0.11l-0.084,-0.111l-0.076,-0.103l-0.075,-0.103l-0.073,-0.104l-0.073,-0.105l-0.071,-0.106l-0.071,-0.106l-0.069,-0.107l-0.067,-0.108l-0.067,-0.108l-0.066,-0.109l-0.065,-0.11l-0.063,-0.111l-0.062,-0.111l-0.061,-0.112l-0.06,-0.112l-0.058,-0.113l-0.057,-0.114l-0.057,-0.114l-0.055,-0.115l-0.053,-0.116l-0.053,-0.116l-0.051,-0.116l-0.05,-0.118l-0.049,-0.117l-0.047,-0.119l-0.047,-0.119l-0.045,-0.119l-0.043,-0.119l-0.043,-0.121l-0.041,-0.121l-0.04,-0.121l-0.039,-0.121l-0.032,-0.104l-0.03,-0.105l-0.03,-0.104l-0.029,-0.105l-0.028,-0.105l-0.027,-0.104l-0.026,-0.106l-0.025,-0.105l-0.024,-0.106l-0.024,-0.106l-0.022,-0.106l-0.021,-0.106l-0.02,-0.106l-0.019,-0.107l-0.019,-0.107l-0.017,-0.106l-0.017,-0.108l-0.015,-0.107l-0.015,-0.107l-0.013,-0.108l-0.012,-0.107l-0.012,-0.108l-0.011,-0.108l-0.009,-0.107l-0.009,-0.108l-0.008,-0.108l-0.006,-0.109l-0.006,-0.108l-0.005,-0.108l-0.004,-0.108l-0.003,-0.109l-0.001,-0.108l-0.001,-0.118l0,-0.118l0.001,-0.118l0.003,-0.117l0.004,-0.118l0.005,-0.118l0.005,-0.117l0.008,-0.119l0.008,-0.117l0.009,-0.117l0.011,-0.118l0.012,-0.117l0.013,-0.117l0.014,-0.117l0.015,-0.117l0.016,-0.117l0.018,-0.117l0.018,-0.116l0.02,-0.116l0.021,-0.116l0.022,-0.116l0.023,-0.116l0.024,-0.115l0.026,-0.116l0.026,-0.115l0.028,-0.114l0.029,-0.115l0.03,-0.114l0.031,-0.114l0.032,-0.114l0.034,-0.113l0.034,-0.114l0.043,-0.134l0.044,-0.134l0.046,-0.133l0.048,-0.133l0.049,-0.133l0.051,-0.131l0.052,-0.131l0.054,-0.13l0.055,-0.13l0.057,-0.129l0.058,-0.128l0.059,-0.128l0.062,-0.127l0.062,-0.126l0.064,-0.125l0.066,-0.125l0.067,-0.124l0.069,-0.123l0.07,-0.122l0.071,-0.122l0.073,-0.12l0.074,-0.12l0.076,-0.119l0.077,-0.117l0.078,-0.117l0.08,-0.117l0.081,-0.115l0.082,-0.114l0.084,-0.114l0.085,-0.112l0.087,-0.111l0.088,-0.111l0.102,-0.125l0.105,-0.125l0.106,-0.123l0.108,-0.121l0.109,-0.12l0.11,-0.118l0.113,-0.117l0.114,-0.116l0.116,-0.113l0.116,-0.112l0.119,-0.111l0.12,-0.109l0.121,-0.107l0.123,-0.106l0.124,-0.104l0.126,-0.103l0.127,-0.1l0.128,-0.099l0.129,-0.098l0.131,-0.095l0.133,-0.094l0.133,-0.092l0.135,-0.09l0.136,-0.089l0.137,-0.087l0.138,-0.084l0.14,-0.083l0.141,-0.081l0.141,-0.079l0.143,-0.078l0.144,-0.075l0.144,-0.073l0.101,-0.049l0.1,-0.048l0.1,-0.047l0.101,-0.047l0.102,-0.045l0.101,-0.044l0.102,-0.043l0.103,-0.043l0.102,-0.041l0.104,-0.04l0.103,-0.04l0.104,-0.038l0.104,-0.038l0.105,-0.036l0.105,-0.036l0.105,-0.034l0.106,-0.034l0.106,-0.033l0.106,-0.031l0.106,-0.031l0.107,-0.03l0.107,-0.028l0.107,-0.028l0.108,-0.027l0.108,-0.026l0.108,-0.024l0.108,-0.024l0.109,-0.023l0.108,-0.021l0.109,-0.021l0.11,-0.02l0.109,-0.019l0.104,-0.016l0.105,-0.016l0.104,-0.015l0.104,-0.014l0.104,-0.013l0.104,-0.011l0.103,-0.011l0.107,-0.011l0.203,-0.017l0.206,-0.014l0.206,-0.011l0.212,-0.009l0.159,-0.002l0.148,-0.001l0.148,0.001l0.157,0.002l0.138,0.005l0.129,0.006l0.128,0.007l0.129,0.008l0.129,0.01l0.129,0.011l0.129,0.012l0.129,0.014l0.129,0.015l0.129,0.016l0.13,0.018l0.129,0.019l0.13,0.021l0.129,0.022l0.129,0.024l0.13,0.025l0.142,0.029l0.141,0.032l0.141,0.032l0.14,0.035l0.14,0.036l0.139,0.038l0.139,0.04l0.138,0.041l0.138,0.043l0.137,0.045l0.137,0.046l0.136,0.048l0.136,0.049l0.134,0.051l0.135,0.053l0.133,0.055l0.133,0.055l0.132,0.058l0.132,0.059l0.131,0.061l0.13,0.062l0.129,0.064l0.129,0.065l0.127,0.067l0.127,0.069l0.126,0.07l0.126,0.071l0.124,0.073l0.124,0.075l0.123,0.076l0.122,0.077l0.122,0.08l0.16,0.108l0.16,0.112l0.158,0.114l0.156,0.117l0.154,0.119l0.152,0.122l0.151,0.124l0.148,0.126l0.099,0.088l0.095,0.086l0.09,0.083l0.085,0.08l0.159,0.151l0.074,0.069l0.065,0.06l0.048,0.042l0.054,0.048l0.056,0.047l0.047,0.039l0.077,0.061l0.083,0.065l0.083,0.061l0.083,0.061l0.084,0.058l0.084,0.056l0.085,0.055l0.087,0.053l0.048,0.029l0.051,0.029l0.051,0.029l0.051,0.029l0.052,0.028l0.052,0.027l0.053,0.027l0.052,0.026l0.054,0.026l0.053,0.025l0.053,0.025l0.054,0.024l0.054,0.024l0.054,0.023l0.055,0.022l0.054,0.022l0.055,0.021l0.056,0.021l0.055,0.02l0.056,0.019l0.055,0.019l0.056,0.018l0.056,0.018l0.057,0.017l0.056,0.017l0.057,0.016l0.057,0.015l0.057,0.015l0.057,0.014l0.057,0.014l0.057,0.013l0.057,0.012l0.071,0.014l0.071,0.013l0.07,0.013l0.072,0.011l0.071,0.01l0.072,0.01l0.073,0.009l0.073,0.007l0.073,0.007l0.073,0.006l0.074,0.005l0.074,0.005l0.075,0.003l0.075,0.003l0.076,0.001l0.056,0.001l0.068,-0.008l0.006,0l0.087,-0.004l0.088,0.002l0.056,0.003l0.056,-0.003l0.088,-0.002l0.087,0.004l0.006,0l0.068,0.008l0.056,-0.001l0.076,-0.001l0.075,-0.003l0.075,-0.003l0.074,-0.005l0.074,-0.005l0.073,-0.006l0.073,-0.007l0.073,-0.007l0.073,-0.009l0.072,-0.01l0.071,-0.01l0.071,-0.011l0.071,-0.013l0.071,-0.013l0.071,-0.014l0.057,-0.012l0.057,-0.013l0.057,-0.014l0.057,-0.014l0.057,-0.015l0.057,-0.015l0.057,-0.016l0.056,-0.017l0.057,-0.017l0.056,-0.018l0.056,-0.018l0.055,-0.019l0.056,-0.019l0.055,-0.02l0.055,-0.021l0.056,-0.021l0.054,-0.022l0.055,-0.022l0.054,-0.023l0.054,-0.024l0.054,-0.024l0.053,-0.025l0.053,-0.025l0.054,-0.026l0.052,-0.026l0.053,-0.027l0.052,-0.027l0.052,-0.028l0.051,-0.028l0.051,-0.03l0.051,-0.029l0.048,-0.028l0.087,-0.054l0.085,-0.055l0.084,-0.056l0.084,-0.058l0.083,-0.06l0.084,-0.063l0.083,-0.064l0.076,-0.061l0.047,-0.039l0.056,-0.047l0.054,-0.048l0.048,-0.042l0.065,-0.06l0.074,-0.069l0.159,-0.151l0.085,-0.08l0.09,-0.083l0.095,-0.086l0.099,-0.088l0.148,-0.126l0.151,-0.124l0.152,-0.122l0.154,-0.119l0.156,-0.117l0.158,-0.114l0.16,-0.112l0.16,-0.108l0.122,-0.08l0.122,-0.077l0.123,-0.076l0.124,-0.075l0.124,-0.073l0.126,-0.071l0.126,-0.07l0.127,-0.069l0.127,-0.067l0.129,-0.065l0.129,-0.064l0.131,-0.062l0.13,-0.061l0.132,-0.059l0.132,-0.058l0.133,-0.055l0.133,-0.055l0.135,-0.053l0.135,-0.051l0.135,-0.049l0.136,-0.048l0.137,-0.046l0.137,-0.045l0.138,-0.043l0.138,-0.041l0.139,-0.04l0.139,-0.038l0.14,-0.036l0.14,-0.035l0.141,-0.032l0.141,-0.032l0.142,-0.029l0.129,-0.025l0.13,-0.024l0.129,-0.022l0.13,-0.021l0.129,-0.019l0.13,-0.018l0.129,-0.016l0.129,-0.015l0.129,-0.014l0.129,-0.012l0.129,-0.011l0.129,-0.01l0.129,-0.008l0.128,-0.007l0.129,-0.006l0.138,-0.005l0.157,-0.002l0.148,-0.001l0.148,0.001l0.159,0.002l0.212,0.009l0.206,0.011l0.206,0.014l0.203,0.017l0.106,0.011l0.104,0.011l0.104,0.011l0.104,0.013l0.104,0.014l0.104,0.015l0.105,0.016l0.104,0.017l0.109,0.018l0.11,0.02l0.109,0.021l0.108,0.021l0.109,0.023l0.108,0.024l0.108,0.024l0.108,0.026l0.108,0.027l0.107,0.028l0.107,0.028l0.107,0.03l0.106,0.031l0.106,0.031l0.106,0.033l0.106,0.034l0.105,0.034l0.105,0.036l0.105,0.036l0.104,0.038l0.104,0.038l0.103,0.04l0.104,0.04l0.102,0.041l0.103,0.043l0.102,0.043l0.101,0.044l0.102,0.045l0.101,0.047l0.1,0.047l0.1,0.048l0.101,0.049l0.144,0.073l0.144,0.075l0.143,0.077l0.142,0.08l0.14,0.081l0.14,0.083l0.138,0.084l0.137,0.087l0.136,0.089l0.135,0.09l0.133,0.092l0.132,0.094l0.131,0.095l0.13,0.098l0.128,0.099l0.127,0.1l0.126,0.103l0.124,0.104l0.123,0.105l0.121,0.108l0.12,0.109l0.119,0.111l0.116,0.112l0.116,0.114l0.114,0.115l0.112,0.117l0.111,0.118l0.109,0.12l0.108,0.121l0.106,0.123l0.105,0.125l0.102,0.125l0.088,0.111l0.087,0.111l0.085,0.112l0.084,0.114l0.082,0.114l0.081,0.115l0.08,0.117l0.078,0.117l0.077,0.117l0.076,0.119l0.074,0.12l0.073,0.12l0.071,0.122l0.07,0.122l0.069,0.123l0.067,0.124l0.066,0.125l0.064,0.125l0.062,0.126l0.062,0.127l0.059,0.128l0.058,0.128l0.057,0.129l0.055,0.13l0.054,0.13l0.052,0.131l0.051,0.131l0.049,0.133l0.048,0.133l0.046,0.133l0.044,0.134l0.043,0.134l0.034,0.114l0.034,0.113l0.032,0.114l0.031,0.114l0.03,0.114l0.029,0.115l0.028,0.115l0.026,0.114l0.026,0.116l0.024,0.115l0.023,0.116l0.022,0.116l0.021,0.116l0.02,0.116l0.019,0.117l0.017,0.116l0.016,0.117l0.015,0.117l0.014,0.117l0.013,0.117l0.012,0.117l0.011,0.118l0.009,0.117l0.008,0.118l0.007,0.118l0.006,0.117l0.005,0.118l0.004,0.118l0.003,0.117l0.001,0.118l0,0.118l-0.001,0.118l-0.001,0.109l-0.003,0.108l-0.004,0.108l-0.005,0.108l-0.006,0.109l-0.006,0.108l-0.008,0.107l-0.009,0.109l-0.009,0.107l-0.011,0.108l-0.012,0.108l-0.012,0.107l-0.013,0.108l-0.015,0.107l-0.015,0.107l-0.017,0.108l-0.017,0.106l-0.019,0.107l-0.019,0.107l-0.02,0.106l-0.021,0.106l-0.023,0.107l-0.023,0.105l-0.024,0.105l-0.025,0.106l-0.026,0.106l-0.027,0.104l-0.028,0.106l-0.029,0.104l-0.03,0.104l-0.031,0.105l-0.031,0.104l-0.039,0.121l-0.04,0.121l-0.041,0.121l-0.043,0.121l-0.043,0.119l-0.045,0.119l-0.047,0.119l-0.047,0.119l-0.049,0.117l-0.05,0.118l-0.051,0.116l-0.053,0.116l-0.053,0.116l-0.055,0.115l-0.057,0.114l-0.057,0.114l-0.058,0.113l-0.06,0.112l-0.061,0.112l-0.062,0.111l-0.063,0.111l-0.065,0.11l-0.066,0.109l-0.067,0.108l-0.067,0.108l-0.07,0.107l-0.07,0.106l-0.071,0.106l-0.073,0.105l-0.073,0.104l-0.075,0.103l-0.076,0.103l-0.084,0.111l-0.086,0.11l-0.086,0.109l-0.088,0.108l-0.09,0.108l-0.09,0.106l-0.092,0.105l-0.093,0.104l-0.094,0.103l-0.095,0.101l-0.096,0.101l-0.098,0.1l-0.099,0.098l-0.099,0.097l-0.101,0.096l-0.102,0.095l-0.103,0.094l-0.104,0.092l-0.106,0.091l-0.106,0.091l-0.107,0.088l-0.108,0.088l-0.11,0.087l-0.111,0.085l-0.111,0.083l-0.112,0.083l-0.113,0.081l-0.115,0.08l-0.115,0.079l-0.116,0.078l-0.117,0.075l-0.118,0.075l-0.122,0.075l-0.122,0.073l-0.123,0.072l-0.124,0.071l-0.125,0.068l-0.125,0.068l-0.126,0.066l-0.127,0.064l-0.128,0.063l-0.129,0.061l-0.129,0.06l-0.13,0.058l-0.13,0.057l-0.132,0.055l-0.131,0.053l-0.133,0.052l-0.133,0.051l-0.134,0.048l-0.134,0.048l-0.135,0.045l-0.135,0.044l-0.136,0.043l-0.137,0.041l-0.137,0.039l-0.137,0.037l-0.138,0.036l-0.138,0.035l-0.139,0.032l-0.139,0.031l-0.14,0.03l-0.14,0.027l-0.14,0.026l-0.149,0.026l-0.148,0.023l-0.15,0.022l-0.149,0.02l-0.149,0.018l-0.15,0.017l-0.15,0.014l-0.15,0.012l-0.15,0.011l-0.15,0.009l-0.15,0.006l-0.151,0.005l-0.15,0.003l-0.151,0.002l-0.15,-0.001l-0.15,-0.003l-0.151,-0.004l-0.15,-0.006l-0.15,-0.008l-0.15,-0.01l-0.15,-0.012l-0.15,-0.014l-0.15,-0.016l-0.149,-0.017l-0.15,-0.019l-0.149,-0.022l-0.149,-0.023l-0.148,-0.025l-0.149,-0.027l-0.148,-0.028l-0.147,-0.031l-0.147,-0.032l-0.124,-0.029l-0.123,-0.03l-0.122,-0.031l-0.122,-0.033l-0.122,-0.034l-0.121,-0.035l-0.121,-0.037l-0.121,-0.037l-0.12,-0.039l-0.119,-0.04l-0.12,-0.042l-0.118,-0.043l-0.119,-0.044l-0.118,-0.045l-0.117,-0.046l-0.117,-0.048l-0.116,-0.049l-0.116,-0.05l-0.115,-0.051l-0.115,-0.053l-0.114,-0.054l-0.114,-0.055l-0.113,-0.056l-0.112,-0.057l-0.112,-0.059l-0.111,-0.06l-0.111,-0.06l-0.11,-0.063l-0.109,-0.063l-0.109,-0.064l-0.108,-0.066l-0.107,-0.066l-0.091,-0.058l-0.09,-0.059l-0.089,-0.059l-0.088,-0.059l-0.088,-0.061l-0.087,-0.061l-0.086,-0.062l-0.086,-0.062l-0.085,-0.063l-0.084,-0.064l-0.083,-0.064l-0.086,-0.066l-0.161,-0.129l-0.167,-0.138l-0.161,-0.14l-0.159,-0.141l-0.082,-0.076l-0.071,-0.067l-0.129,-0.123l-0.121,-0.114l-0.052,-0.048l-0.051,-0.046l-0.064,-0.055l-0.065,-0.055l-0.065,-0.054l-0.067,-0.052l-0.067,-0.052l-0.068,-0.051l-0.069,-0.049l-0.071,-0.05l-0.052,-0.036l-0.054,-0.036l-0.055,-0.035l-0.055,-0.035l-0.056,-0.034l-0.056,-0.033l-0.056,-0.033l-0.057,-0.032l-0.057,-0.031l-0.057,-0.031l-0.058,-0.03l-0.058,-0.03l-0.059,-0.028l-0.059,-0.028l-0.059,-0.028l-0.06,-0.027l-0.059,-0.026l-0.061,-0.025l-0.06,-0.025l-0.061,-0.024l-0.06,-0.023l-0.062,-0.022l-0.061,-0.022l-0.062,-0.021l-0.062,-0.021l-0.062,-0.019l-0.063,-0.019l-0.062,-0.018l-0.063,-0.018l-0.063,-0.016l-0.063,-0.016l-0.063,-0.016l-0.057,-0.013l-0.057,-0.012l-0.058,-0.012l-0.057,-0.011l-0.059,-0.011l-0.058,-0.01l-0.059,-0.009l-0.058,-0.009l-0.06,-0.008l-0.056,-0.007l-0.123,-0.015l-0.121,-0.011l-0.117,-0.009l-0.06,-0.003l-0.073,-0.003l-0.073,-0.002l-0.065,-0.002l-0.012,0.001l-0.362,0l-0.362,0l-0.012,-0.001l-0.065,0.002l-0.073,0.002l-0.073,0.003l-0.06,0.003l-0.117,0.009l-0.121,0.011l-0.123,0.015l-0.056,0.007l-0.06,0.008l-0.058,0.009l-0.059,0.009l-0.058,0.01l-0.059,0.011l-0.057,0.011l-0.058,0.012l-0.057,0.012l-0.057,0.013l-0.063,0.016l-0.063,0.016l-0.063,0.016l-0.063,0.018l-0.062,0.018l-0.063,0.019l-0.062,0.019l-0.062,0.021l-0.062,0.021l-0.061,0.022l-0.062,0.022l-0.06,0.023l-0.061,0.024l-0.06,0.025l-0.061,0.025l-0.059,0.026l-0.06,0.027l-0.059,0.028l-0.059,0.028l-0.058,0.028l-0.059,0.03l-0.058,0.03l-0.057,0.031l-0.057,0.031l-0.057,0.032l-0.056,0.033l-0.056,0.033l-0.056,0.034l-0.055,0.035l-0.054,0.035l-0.055,0.036l-0.053,0.036l-0.07,0.049l-0.069,0.05l-0.068,0.051l-0.067,0.052l-0.067,0.052l-0.065,0.054l-0.065,0.055l-0.064,0.055l-0.051,0.046l-0.052,0.048l-0.121,0.114l-0.129,0.123l-0.072,0.067l-0.082,0.077l-0.158,0.14l-0.161,0.14l-0.167,0.138l-0.161,0.129l-0.085,0.066l-0.084,0.064l-0.084,0.064l-0.085,0.063l-0.086,0.062l-0.086,0.062l-0.087,0.061l-0.088,0.061l-0.088,0.059l-0.089,0.059l-0.09,0.059l-0.091,0.058l-0.108,0.066l-0.107,0.066l-0.109,0.064l-0.109,0.063l-0.11,0.063l-0.111,0.06l-0.111,0.06l-0.112,0.059l-0.112,0.057l-0.113,0.056l-0.114,0.055l-0.114,0.054l-0.115,0.053l-0.115,0.051l-0.116,0.05l-0.116,0.049l-0.117,0.048l-0.118,0.046l-0.117,0.045l-0.119,0.044l-0.118,0.043l-0.12,0.042l-0.119,0.04l-0.12,0.039l-0.121,0.037l-0.121,0.037l-0.121,0.035l-0.122,0.034l-0.122,0.033l-0.122,0.031l-0.123,0.03l-0.124,0.029l-0.147,0.032l-0.147,0.031l-0.148,0.028l-0.149,0.027l-0.148,0.025l-0.149,0.023l-0.149,0.022l-0.15,0.019l-0.149,0.017l-0.15,0.016l-0.15,0.014l-0.15,0.012l-0.15,0.01l-0.15,0.008l-0.15,0.006l-0.151,0.004l-0.15,0.003l-0.15,0.001Z" style="fill:#652d91;fill-opacity:0.3;"/></svg>