<?xml version="1.0" standalone="no"?><!DOCTYPE svg PUBLIC "-//W3C//DTD SVG 1.1//EN" "http://www.w3.org/Graphics/SVG/1.1/DTD/svg11.dtd"><svg width="100%" height="100%" viewBox="0 0 18 19" version="1.1" xmlns="http://www.w3.org/2000/svg" xmlns:xlink="http://www.w3.org/1999/xlink" xml:space="preserve" style="fill-rule:evenodd;clip-rule:evenodd;stroke-linecap:round;stroke-linejoin:round;stroke-miterlimit:1.41421;"><g id="delete"><path d="M6.521,14.365l0,-4.935" style="fill:none;stroke-width:0.76px;stroke:#948e9a;"/><path d="M9,14.365l0,-4.935" style="fill:none;stroke-width:0.76px;stroke:#948e9a;"/><path d="M11.479,14.365l0,-4.935" style="fill:none;stroke-width:0.76px;stroke:#948e9a;"/><path d="M1.243,4.777l15.514,0" style="fill:none;stroke-width:0.78px;stroke:#948e9a;"/><path d="M13.26,4.777l-8.52,0c0,0 1.155,-1.792 1.764,-2.737c0.228,-0.354 0.621,-0.569 1.042,-0.569c0.796,0 2.112,0 2.908,0c0.421,0 0.814,0.215 1.042,0.569c0.609,0.945 1.764,2.737 1.764,2.737Z" style="fill:none;stroke-width:0.83px;stroke:#948e9a;"/><path d="M2.595,4.777l0,11.157c0,1.14 0.926,2.066 2.066,2.066l8.678,0c1.14,0 2.066,-0.926 2.066,-2.066l0,-7.397l0,-3.76" style="fill:none;stroke-width:0.83px;stroke:#948e9a;"/></g></svg>