<?xml version="1.0" standalone="no"?><!DOCTYPE svg PUBLIC "-//W3C//DTD SVG 1.1//EN" "http://www.w3.org/Graphics/SVG/1.1/DTD/svg11.dtd"><svg width="100%" height="100%" viewBox="0 0 41 28" version="1.1" xmlns="http://www.w3.org/2000/svg" xmlns:xlink="http://www.w3.org/1999/xlink" xml:space="preserve" style="fill-rule:evenodd;clip-rule:evenodd;stroke-linejoin:round;stroke-miterlimit:1.41421;"><g id="Discover Card"><path id="background" d="M40.387,15.536c0,-0.564 -3.509,4.806 -10.638,8.172c-8.477,4.001 -23.874,3.61 -23.214,3.61l31.632,0c1.225,0 2.22,-0.994 2.22,-2.219l0,-9.563Z" style="fill:#ff8f00;"/><path id="background1" d="M3.214,27.318l-0.057,-0.001l-0.057,-0.002l-0.057,-0.003l-0.056,-0.005l-0.056,-0.007l-0.055,-0.008l-0.055,-0.009l-0.054,-0.01l-0.054,-0.012l-0.053,-0.013l-0.053,-0.014l-0.053,-0.016l-0.052,-0.017l-0.051,-0.018l-0.05,-0.019l-0.051,-0.02l-0.049,-0.022l-0.049,-0.023l-0.048,-0.024l-0.048,-0.025l-0.046,-0.026l-0.046,-0.027l-0.046,-0.029l-0.044,-0.029l-0.044,-0.031l-0.044,-0.031l-0.042,-0.033l-0.041,-0.033l-0.041,-0.034l-0.04,-0.036l-0.039,-0.036l-0.038,-0.037l-0.037,-0.038l-0.036,-0.039l-0.036,-0.04l-0.034,-0.041l-0.034,-0.041l-0.032,-0.043l-0.032,-0.043l-0.03,-0.044l-0.029,-0.044l-0.029,-0.046l-0.027,-0.046l-0.026,-0.047l-0.025,-0.047l-0.024,-0.048l-0.023,-0.049l-0.022,-0.05l-0.02,-0.05l-0.02,-0.05l-0.018,-0.052l-0.016,-0.052l-0.016,-0.052l-0.014,-0.053l-0.013,-0.053l-0.012,-0.054l-0.011,-0.055l-0.009,-0.054l-0.007,-0.056l-0.007,-0.055l-0.005,-0.057l-0.003,-0.056l-0.003,-0.057l0,-0.057l0,-22.193l0,-0.057l0.003,-0.057l0.003,-0.057l0.005,-0.056l0.007,-0.055l0.007,-0.056l0.009,-0.055l0.011,-0.054l0.012,-0.054l0.013,-0.053l0.014,-0.053l0.016,-0.053l0.016,-0.051l0.018,-0.052l0.02,-0.05l0.02,-0.05l0.022,-0.05l0.023,-0.049l0.024,-0.048l0.025,-0.047l0.026,-0.047l0.027,-0.046l0.029,-0.046l0.029,-0.044l0.03,-0.044l0.032,-0.043l0.032,-0.043l0.034,-0.041l0.034,-0.041l0.036,-0.04l0.036,-0.039l0.037,-0.038l0.038,-0.037l0.039,-0.036l0.04,-0.036l0.041,-0.034l0.041,-0.034l0.042,-0.032l0.044,-0.032l0.044,-0.03l0.044,-0.029l0.046,-0.029l0.046,-0.027l0.046,-0.026l0.048,-0.025l0.048,-0.024l0.049,-0.023l0.049,-0.022l0.051,-0.02l0.05,-0.019l0.051,-0.018l0.052,-0.017l0.053,-0.016l0.053,-0.014l0.053,-0.013l0.054,-0.012l0.054,-0.01l0.055,-0.01l0.055,-0.007l0.056,-0.007l0.056,-0.005l0.057,-0.003l0.057,-0.002l0.057,-0.001l34.953,0l0.058,0.001l0.057,0.002l0.056,0.003l0.056,0.005l0.056,0.007l0.055,0.007l0.055,0.01l0.054,0.01l0.054,0.012l0.054,0.013l0.053,0.014l0.052,0.016l0.052,0.017l0.051,0.018l0.051,0.019l0.05,0.02l0.049,0.022l0.049,0.023l0.048,0.024l0.048,0.025l0.047,0.026l0.046,0.027l0.045,0.029l0.045,0.029l0.044,0.03l0.043,0.032l0.042,0.032l0.042,0.034l0.04,0.034l0.04,0.036l0.039,0.036l0.038,0.037l0.038,0.038l0.036,0.039l0.035,0.04l0.035,0.041l0.033,0.041l0.033,0.043l0.031,0.043l0.03,0.044l0.03,0.044l0.028,0.046l0.028,0.046l0.026,0.047l0.025,0.047l0.024,0.048l0.023,0.049l0.021,0.05l0.021,0.05l0.019,0.05l0.018,0.052l0.017,0.051l0.015,0.053l0.015,0.053l0.013,0.053l0.012,0.054l0.01,0.054l0.009,0.055l0.008,0.056l0.006,0.055l0.005,0.056l0.004,0.057l0.002,0.057l0.001,0.057l0,22.193l-0.001,0.057l-0.002,0.057l-0.004,0.056l-0.005,0.057l-0.006,0.055l-0.008,0.056l-0.009,0.054l-0.01,0.055l-0.012,0.054l-0.013,0.053l-0.015,0.053l-0.015,0.052l-0.017,0.052l-0.018,0.052l-0.019,0.05l-0.021,0.05l-0.021,0.05l-0.023,0.049l-0.024,0.048l-0.025,0.047l-0.026,0.047l-0.028,0.046l-0.028,0.046l-0.03,0.044l-0.03,0.044l-0.031,0.043l-0.033,0.043l-0.033,0.041l-0.035,0.041l-0.035,0.04l-0.036,0.039l-0.038,0.038l-0.038,0.037l-0.039,0.036l-0.04,0.036l-0.04,0.034l-0.042,0.033l-0.042,0.033l-0.043,0.031l-0.044,0.031l-0.045,0.029l-0.045,0.029l-0.046,0.027l-0.047,0.026l-0.048,0.025l-0.048,0.024l-0.049,0.023l-0.049,0.022l-0.05,0.02l-0.051,0.019l-0.051,0.018l-0.052,0.017l-0.052,0.016l-0.053,0.014l-0.054,0.013l-0.054,0.012l-0.054,0.01l-0.055,0.009l-0.055,0.008l-0.056,0.007l-0.056,0.005l-0.056,0.003l-0.057,0.002l-0.058,0.001l-34.953,0ZM3.219,26.568l34.944,0l0.043,-0.001l0.038,-0.001l0.037,-0.002l0.037,-0.004l0.037,-0.004l0.037,-0.005l0.036,-0.006l0.036,-0.007l0.036,-0.008l0.035,-0.008l0.035,-0.01l0.034,-0.01l0.034,-0.011l0.034,-0.012l0.034,-0.013l0.033,-0.013l0.032,-0.014l0.032,-0.016l0.033,-0.016l0.031,-0.016l0.031,-0.017l0.03,-0.018l0.03,-0.019l0.03,-0.02l0.029,-0.02l0.029,-0.021l0.028,-0.021l0.027,-0.022l0.027,-0.023l0.027,-0.024l0.026,-0.024l0.025,-0.024l0.025,-0.026l0.024,-0.026l0.023,-0.026l0.023,-0.027l0.023,-0.028l0.021,-0.028l0.021,-0.028l0.02,-0.03l0.019,-0.029l0.019,-0.03l0.018,-0.031l0.018,-0.031l0.016,-0.032l0.016,-0.031l0.015,-0.032l0.015,-0.033l0.013,-0.033l0.013,-0.034l0.012,-0.033l0.011,-0.035l0.01,-0.034l0.009,-0.035l0.009,-0.035l0.008,-0.036l0.007,-0.036l0.006,-0.036l0.005,-0.036l0.004,-0.037l0.003,-0.038l0.003,-0.037l0.001,-0.038l0.001,-0.043l0,-22.183l-0.001,-0.043l-0.001,-0.038l-0.003,-0.037l-0.003,-0.038l-0.004,-0.037l-0.005,-0.036l-0.006,-0.036l-0.007,-0.037l-0.008,-0.035l-0.009,-0.035l-0.009,-0.035l-0.01,-0.035l-0.011,-0.034l-0.012,-0.034l-0.013,-0.033l-0.013,-0.033l-0.015,-0.033l-0.015,-0.032l-0.016,-0.032l-0.016,-0.031l-0.018,-0.031l-0.018,-0.031l-0.019,-0.03l-0.019,-0.029l-0.02,-0.03l-0.021,-0.028l-0.021,-0.028l-0.023,-0.028l-0.023,-0.027l-0.023,-0.026l-0.024,-0.026l-0.025,-0.026l-0.025,-0.024l-0.026,-0.024l-0.027,-0.024l-0.027,-0.023l-0.027,-0.022l-0.028,-0.021l-0.029,-0.021l-0.029,-0.02l-0.03,-0.02l-0.03,-0.019l-0.03,-0.018l-0.031,-0.017l-0.031,-0.017l-0.033,-0.016l-0.032,-0.015l-0.032,-0.014l-0.033,-0.013l-0.034,-0.013l-0.034,-0.012l-0.034,-0.011l-0.034,-0.01l-0.035,-0.01l-0.035,-0.009l-0.036,-0.007l-0.036,-0.007l-0.036,-0.006l-0.037,-0.005l-0.037,-0.005l-0.037,-0.003l-0.037,-0.002l-0.038,-0.002l-0.043,0l-34.944,0l-0.043,0l-0.038,0.002l-0.038,0.002l-0.037,0.003l-0.037,0.005l-0.036,0.005l-0.037,0.006l-0.036,0.007l-0.035,0.007l-0.035,0.009l-0.035,0.01l-0.035,0.01l-0.034,0.011l-0.034,0.012l-0.033,0.013l-0.033,0.013l-0.033,0.014l-0.032,0.015l-0.032,0.016l-0.031,0.017l-0.031,0.017l-0.031,0.018l-0.03,0.019l-0.03,0.02l-0.028,0.02l-0.029,0.021l-0.028,0.021l-0.028,0.022l-0.027,0.023l-0.026,0.024l-0.026,0.024l-0.025,0.024l-0.025,0.026l-0.025,0.026l-0.023,0.026l-0.023,0.027l-0.022,0.028l-0.022,0.028l-0.02,0.029l-0.021,0.029l-0.019,0.029l-0.019,0.03l-0.018,0.031l-0.017,0.031l-0.017,0.031l-0.016,0.032l-0.015,0.032l-0.014,0.033l-0.014,0.033l-0.012,0.033l-0.012,0.034l-0.011,0.034l-0.011,0.035l-0.009,0.034l-0.009,0.036l-0.007,0.036l-0.007,0.036l-0.006,0.036l-0.005,0.036l-0.005,0.037l-0.003,0.037l-0.002,0.038l-0.002,0.038l0,0.043l0,22.183l0,0.043l0.002,0.038l0.002,0.038l0.003,0.037l0.005,0.037l0.005,0.036l0.006,0.036l0.007,0.036l0.007,0.036l0.009,0.035l0.009,0.035l0.011,0.034l0.011,0.035l0.012,0.033l0.012,0.034l0.014,0.033l0.014,0.033l0.015,0.032l0.016,0.031l0.017,0.032l0.017,0.031l0.018,0.031l0.019,0.03l0.019,0.029l0.021,0.029l0.02,0.029l0.022,0.028l0.022,0.028l0.023,0.027l0.023,0.026l0.025,0.026l0.025,0.026l0.025,0.024l0.026,0.024l0.026,0.024l0.027,0.023l0.028,0.022l0.028,0.021l0.029,0.021l0.028,0.02l0.03,0.02l0.03,0.019l0.031,0.018l0.031,0.017l0.031,0.016l0.032,0.016l0.032,0.016l0.033,0.014l0.033,0.013l0.033,0.013l0.034,0.012l0.034,0.011l0.035,0.01l0.035,0.01l0.035,0.008l0.035,0.008l0.036,0.007l0.037,0.006l0.036,0.005l0.037,0.004l0.037,0.004l0.038,0.002l0.038,0.001l0.043,0.001Z" style="fill:#000;"/><path d="M7.979,11.932l-1.252,0l0,4.141l1.252,0c0.674,0 1.156,-0.145 1.589,-0.482c0.482,-0.385 0.819,-0.963 0.819,-1.589c0,-1.203 -1.011,-2.07 -2.408,-2.07ZM8.99,15.014c-0.24,0.24 -0.625,0.337 -1.155,0.337l-0.241,0l0,-2.745l0.241,0c0.578,0 0.915,0.096 1.204,0.337c0.288,0.241 0.481,0.626 0.481,1.011c-0.048,0.434 -0.241,0.819 -0.53,1.06ZM11.061,16.073l0.867,0l0,-4.141l-0.867,0l0,4.141ZM13.902,13.521c-0.53,-0.193 -0.674,-0.289 -0.674,-0.53c0,-0.24 0.288,-0.481 0.626,-0.481c0.24,0 0.481,0.096 0.674,0.337l0.481,-0.53c-0.385,-0.289 -0.818,-0.481 -1.3,-0.481c-0.77,0 -1.396,0.529 -1.396,1.203c0,0.578 0.289,0.867 1.107,1.156c0.337,0.096 0.53,0.193 0.578,0.241c0.193,0.096 0.241,0.241 0.241,0.433c0,0.337 -0.289,0.578 -0.674,0.578c-0.434,0 -0.723,-0.193 -0.963,-0.53l-0.578,0.482c0.481,0.529 0.963,0.77 1.637,0.77c0.915,0 1.541,-0.578 1.541,-1.348c-0.048,-0.674 -0.337,-0.963 -1.3,-1.3ZM15.635,14.002c0,1.204 1.011,2.167 2.311,2.167c0.385,0 0.674,-0.048 1.059,-0.241l0,-0.963c-0.337,0.337 -0.625,0.434 -1.059,0.434c-0.866,0 -1.492,-0.578 -1.492,-1.445c0,-0.77 0.626,-1.396 1.444,-1.396c0.433,0 0.722,0.144 1.059,0.481l0,-0.963c-0.289,-0.144 -0.626,-0.24 -0.963,-0.24c-1.348,0 -2.359,0.963 -2.359,2.166ZM25.795,14.677l-1.156,-2.793l-0.963,0l1.878,4.237l0.481,0l1.926,-4.237l-0.915,0l-1.251,2.793ZM28.346,16.073l2.456,0l0,-0.722l-1.589,0l0,-1.108l1.541,0l0,-0.722l-1.541,0l0,-0.915l1.589,0l0,-0.674l-2.456,0l0,4.141ZM33.209,14.291c0.675,-0.144 1.012,-0.529 1.012,-1.203c0.048,-0.771 -0.53,-1.252 -1.541,-1.252l-1.3,0l0,4.237l0.867,0l0,-1.685l0.096,0l1.204,1.685l1.107,0l-1.445,-1.782ZM32.487,13.762l-0.24,0l0,-1.252l0.288,0c0.53,0 0.867,0.192 0.867,0.626c-0.048,0.433 -0.337,0.626 -0.915,0.626Z" style="fill:#000;fill-rule:nonzero;"/><circle cx="21.609" cy="14.002" r="2.167" style="fill:#ff8f00;"/></g></svg>