<?xml version="1.0" standalone="no"?><!DOCTYPE svg PUBLIC "-//W3C//DTD SVG 1.1//EN" "http://www.w3.org/Graphics/SVG/1.1/DTD/svg11.dtd"><svg width="100%" height="100%" viewBox="0 0 20 20" version="1.1" xmlns="http://www.w3.org/2000/svg" xmlns:xlink="http://www.w3.org/1999/xlink" xml:space="preserve" style="fill-rule:evenodd;clip-rule:evenodd;stroke-linecap:round;stroke-linejoin:round;stroke-miterlimit:1.41421;"><g id="info02"><circle cx="10" cy="10" r="9" style="fill:none;stroke-width:1px;stroke:#3e1b5a;"/><path d="M9.227,11.703c0.003,-0.566 0.052,-0.959 0.146,-1.178c0.094,-0.218 0.34,-0.507 0.738,-0.867c0.387,-0.457 0.662,-0.808 0.826,-1.054c0.165,-0.247 0.247,-0.543 0.247,-0.891c0,-0.414 -0.111,-0.733 -0.331,-0.955c-0.221,-0.223 -0.537,-0.334 -0.947,-0.334c-0.355,0 -0.658,0.097 -0.908,0.29c-0.25,0.193 -0.375,0.477 -0.375,0.852l-1.102,0l-0.017,-0.035c-0.012,-0.629 0.21,-1.133 0.665,-1.511c0.455,-0.379 1.034,-0.569 1.737,-0.569c0.77,0 1.367,0.196 1.793,0.589c0.426,0.393 0.639,0.94 0.639,1.644c0,0.504 -0.138,0.964 -0.413,1.382c-0.276,0.418 -0.64,0.846 -1.093,1.284c-0.211,0.211 -0.339,0.4 -0.384,0.568c-0.045,0.168 -0.067,0.43 -0.067,0.785l-1.154,0ZM10.422,14.105l-1.207,0l0,-1.218l1.207,0l0,1.218Z" style="fill:#3e1b5a;fill-rule:nonzero;"/></g></svg>