<svg xmlns="http://www.w3.org/2000/svg" xmlns:xlink="http://www.w3.org/1999/xlink" preserveAspectRatio="xMidYMid" width="196" height="52" viewBox="0 0 196 52">
  <defs>
    <style>
      .cls-1, .cls-2 {
        fill: #662d91;
      }

      .cls-1 {
        fill-rule: evenodd;
      }
    </style>
  </defs>
  <g>
    <path d="M28.000,52.000 L3.000,52.000 C1.343,52.000 -0.000,50.657 -0.000,49.000 L-0.000,3.000 C-0.000,1.343 1.343,0.000 3.000,0.000 L28.000,0.000 C29.657,0.000 31.000,1.343 31.000,3.000 L31.000,49.000 C31.000,50.657 29.657,52.000 28.000,52.000 ZM29.000,4.000 C29.000,2.895 28.105,2.000 27.000,2.000 L4.000,2.000 C2.895,2.000 2.000,2.895 2.000,4.000 L2.000,45.000 C2.000,46.105 2.895,47.000 4.000,47.000 L27.000,47.000 C28.105,47.000 29.000,46.105 29.000,45.000 L29.000,4.000 Z" class="cls-1"/>
    <circle cx="8" cy="15" r="1" class="cls-2"/>
    <path d="M15.327,20.996 C13.460,20.996 11.705,20.217 10.108,18.681 C9.944,18.523 9.946,18.270 10.114,18.115 C10.281,17.961 10.549,17.963 10.713,18.120 C12.150,19.503 13.709,20.222 15.347,20.195 C18.126,20.186 20.251,18.143 20.272,18.123 C20.434,17.964 20.703,17.960 20.871,18.113 C21.040,18.266 21.045,18.519 20.883,18.678 C20.787,18.772 18.499,20.982 15.358,20.996 C15.348,20.996 15.338,20.996 15.327,20.996 Z" class="cls-1"/>
    <circle cx="23" cy="15" r="1" class="cls-2"/>
    <path d="M192.874,18.764 L192.874,32.512 L190.902,32.512 L190.902,18.764 L188.212,18.764 L188.212,17.043 L190.902,17.043 L190.902,11.300 L192.874,11.300 L192.874,17.043 L196.000,17.043 L196.000,18.764 L192.874,18.764 ZM176.433,30.252 C177.422,30.801 178.531,31.076 179.760,31.076 C182.010,31.076 183.849,30.171 185.274,28.360 L186.837,29.398 C186.105,30.511 185.121,31.375 183.887,31.989 C182.652,32.603 181.246,32.910 179.669,32.910 C177.247,32.910 175.238,32.133 173.642,30.578 C172.045,29.024 171.247,27.133 171.247,24.906 C171.247,23.408 171.621,22.017 172.367,20.733 C173.113,19.449 174.139,18.446 175.444,17.726 C176.749,17.006 178.209,16.646 179.824,16.646 C180.838,16.646 181.817,16.802 182.760,17.115 C183.704,17.427 184.504,17.835 185.161,18.337 C185.819,18.840 186.377,19.479 186.837,20.257 L185.274,21.237 C183.924,19.427 182.081,18.522 179.746,18.522 C177.880,18.522 176.330,19.128 175.097,20.340 C173.863,21.552 173.247,23.024 173.247,24.756 C173.247,25.883 173.531,26.944 174.098,27.937 C174.665,28.932 175.444,29.703 176.433,30.252 ZM167.028,29.853 C166.201,30.867 165.274,31.630 164.246,32.142 C163.218,32.654 162.094,32.910 160.873,32.910 C158.704,32.910 156.852,32.116 155.317,30.529 C153.782,28.941 153.015,27.010 153.015,24.735 C153.015,22.508 153.789,20.603 155.338,19.020 C156.888,17.437 158.751,16.646 160.929,16.646 C162.188,16.646 163.326,16.916 164.345,17.456 C165.363,17.996 166.258,18.807 167.028,19.887 L167.028,17.043 L168.971,17.043 L168.971,32.512 L167.028,32.512 L167.028,29.853 ZM165.403,20.368 C164.235,19.166 162.799,18.565 161.092,18.565 C159.994,18.565 158.981,18.837 158.053,19.381 C157.124,19.926 156.386,20.691 155.837,21.675 C155.288,22.660 155.014,23.701 155.014,24.799 C155.014,25.888 155.291,26.929 155.844,27.923 C156.397,28.917 157.140,29.691 158.074,30.245 C159.007,30.799 160.008,31.076 161.077,31.076 C162.156,31.076 163.178,30.801 164.144,30.252 C165.110,29.703 165.853,28.960 166.373,28.023 C166.894,27.086 167.154,26.030 167.154,24.856 C167.154,23.067 166.571,21.571 165.403,20.368 ZM151.401,18.579 C150.744,18.579 150.110,18.852 149.500,19.397 C148.889,19.941 148.425,20.787 148.105,21.934 C147.861,22.816 147.739,24.598 147.739,27.280 L147.739,32.512 L145.725,32.512 L145.725,17.043 L147.739,17.043 L147.739,19.304 C148.340,18.413 148.974,17.748 149.640,17.307 C150.307,16.866 151.002,16.646 151.725,16.646 C152.269,16.646 152.851,16.821 153.471,17.171 L152.443,18.849 C152.030,18.669 151.683,18.579 151.401,18.579 ZM132.156,29.353 C133.256,30.501 134.615,31.076 136.231,31.076 C137.012,31.076 137.771,30.939 138.509,30.665 C139.246,30.391 139.874,30.028 140.391,29.575 C140.908,29.122 141.468,28.390 142.069,27.379 L143.731,28.261 C143.186,29.342 142.556,30.213 141.842,30.877 C141.128,31.540 140.324,32.045 139.432,32.391 C138.538,32.737 137.528,32.910 136.401,32.910 C133.901,32.910 131.946,32.083 130.537,30.429 C129.127,28.775 128.422,26.905 128.422,24.820 C128.422,22.859 129.019,21.110 130.212,19.574 C131.726,17.622 133.750,16.646 136.287,16.646 C138.900,16.646 140.987,17.645 142.546,19.645 C143.656,21.058 144.219,22.820 144.238,24.934 L130.450,24.934 C130.487,26.731 131.057,28.203 132.156,29.353 ZM142.069,23.214 C141.806,22.152 141.423,21.304 140.920,20.669 C140.416,20.034 139.752,19.522 138.925,19.133 C138.097,18.745 137.228,18.551 136.316,18.551 C134.812,18.551 133.519,19.039 132.438,20.015 C131.648,20.726 131.051,21.792 130.647,23.214 L142.069,23.214 ZM124.527,32.512 L122.555,32.512 L122.555,18.764 L119.865,18.764 L119.865,17.043 L122.555,17.043 L122.555,11.300 L124.527,11.300 L124.527,17.043 L127.653,17.043 L127.653,18.764 L124.527,18.764 L124.527,32.512 ZM116.082,25.133 C116.082,23.351 116.008,22.162 115.863,21.565 C115.634,20.541 115.196,19.771 114.548,19.254 C113.901,18.738 113.055,18.479 112.013,18.479 C110.820,18.479 109.752,18.878 108.808,19.674 C107.865,20.470 107.243,21.455 106.942,22.631 C106.754,23.399 106.660,24.801 106.660,26.839 L106.660,32.512 L104.689,32.512 L104.689,17.043 L106.660,17.043 L106.660,19.816 C107.449,18.754 108.322,17.961 109.280,17.435 C110.238,16.909 111.280,16.646 112.406,16.646 C113.552,16.646 114.568,16.939 115.456,17.527 C116.343,18.115 116.998,18.906 117.420,19.901 C117.843,20.896 118.054,22.446 118.054,24.550 L118.054,32.512 L116.082,32.512 L116.082,25.133 ZM101.039,13.958 C100.600,13.958 100.221,13.797 99.903,13.475 C99.586,13.153 99.427,12.769 99.427,12.323 C99.427,11.869 99.586,11.480 99.903,11.158 C100.221,10.835 100.600,10.674 101.039,10.674 C101.488,10.674 101.871,10.835 102.189,11.158 C102.507,11.480 102.666,11.869 102.666,12.323 C102.666,12.769 102.507,13.153 102.189,13.475 C101.871,13.797 101.488,13.958 101.039,13.958 ZM90.258,32.910 C89.039,32.910 87.918,32.654 86.895,32.142 C85.873,31.630 84.949,30.867 84.124,29.853 L84.124,38.170 L82.152,38.170 L82.152,17.043 L84.124,17.043 L84.124,19.887 C84.903,18.807 85.798,17.996 86.811,17.456 C87.824,16.916 88.954,16.646 90.202,16.646 C92.377,16.646 94.240,17.437 95.787,19.020 C97.335,20.603 98.109,22.508 98.109,24.735 C98.109,27.010 97.342,28.941 95.809,30.529 C94.275,32.116 92.425,32.910 90.258,32.910 ZM95.287,21.675 C94.739,20.691 94.001,19.926 93.074,19.381 C92.147,18.837 91.135,18.565 90.039,18.565 C88.334,18.565 86.899,19.166 85.732,20.368 C84.566,21.571 83.983,23.067 83.983,24.856 C83.983,26.030 84.243,27.086 84.763,28.023 C85.283,28.960 86.028,29.703 86.997,30.252 C87.966,30.801 88.990,31.076 90.067,31.076 C91.126,31.076 92.120,30.799 93.053,30.245 C93.985,29.691 94.727,28.917 95.280,27.923 C95.833,26.929 96.109,25.888 96.109,24.799 C96.109,23.701 95.835,22.660 95.287,21.675 ZM94.731,39.337 L95.383,41.034 C95.005,41.183 88.933,43.509 80.777,43.509 C76.571,43.509 71.811,42.890 66.991,41.036 L67.633,39.335 C81.136,44.531 94.597,39.391 94.731,39.337 ZM72.026,32.910 C70.806,32.910 69.685,32.654 68.663,32.142 C67.641,31.630 66.716,30.867 65.891,29.853 L65.891,38.170 L63.919,38.170 L63.919,17.043 L65.891,17.043 L65.891,19.887 C66.670,18.807 67.566,17.996 68.579,17.456 C69.592,16.916 70.722,16.646 71.969,16.646 C74.145,16.646 76.007,17.437 77.555,19.020 C79.103,20.603 79.876,22.508 79.876,24.735 C79.876,27.010 79.110,28.941 77.576,30.529 C76.042,32.116 74.192,32.910 72.026,32.910 ZM77.055,21.675 C76.507,20.691 75.768,19.926 74.841,19.381 C73.914,18.837 72.902,18.565 71.806,18.565 C70.101,18.565 68.666,19.166 67.500,20.368 C66.334,21.571 65.750,23.067 65.750,24.856 C65.750,26.030 66.011,27.086 66.531,28.023 C67.051,28.960 67.795,29.703 68.764,30.252 C69.734,30.801 70.757,31.076 71.834,31.076 C72.893,31.076 73.888,30.799 74.820,30.245 C75.752,29.691 76.495,28.917 77.048,27.923 C77.600,26.929 77.876,25.888 77.876,24.799 C77.876,23.701 77.603,22.660 77.055,21.675 ZM58.954,29.853 C58.128,30.867 57.200,31.630 56.172,32.142 C55.144,32.654 54.020,32.910 52.799,32.910 C50.630,32.910 48.778,32.116 47.243,30.529 C45.708,28.941 44.941,27.010 44.941,24.735 C44.941,22.508 45.715,20.603 47.264,19.020 C48.814,17.437 50.677,16.646 52.856,16.646 C54.114,16.646 55.252,16.916 56.271,17.456 C57.290,17.996 58.184,18.807 58.954,19.887 L58.954,17.043 L60.897,17.043 L60.897,32.512 L58.954,32.512 L58.954,29.853 ZM57.329,20.368 C56.162,19.166 54.724,18.565 53.018,18.565 C51.920,18.565 50.907,18.837 49.979,19.381 C49.051,19.926 48.312,20.691 47.763,21.675 C47.215,22.660 46.941,23.701 46.941,24.799 C46.941,25.888 47.218,26.929 47.770,27.923 C48.324,28.917 49.067,29.691 50.000,30.245 C50.933,30.799 51.934,31.076 53.004,31.076 C54.082,31.076 55.104,30.801 56.070,30.252 C57.036,29.703 57.779,28.960 58.300,28.023 C58.820,27.086 59.081,26.030 59.081,24.856 C59.081,23.067 58.497,21.571 57.329,20.368 ZM102.032,32.512 L100.061,32.512 L100.061,17.043 L102.032,17.043 L102.032,32.512 Z" class="cls-1"/>
  </g>
</svg>
