<?xml version="1.0" standalone="no"?><!DOCTYPE svg PUBLIC "-//W3C//DTD SVG 1.1//EN" "http://www.w3.org/Graphics/SVG/1.1/DTD/svg11.dtd"><svg width="100%" height="100%" viewBox="0 0 20 22" version="1.1" xmlns="http://www.w3.org/2000/svg" xmlns:xlink="http://www.w3.org/1999/xlink" xml:space="preserve" style="fill-rule:evenodd;clip-rule:evenodd;stroke-linecap:round;stroke-linejoin:round;stroke-miterlimit:1.41421;"><g id="navigation"><path d="M1.751,17.727c0,-0.699 0.568,-1.267 1.267,-1.267c0.699,0 1.266,0.568 1.266,1.267c0,0.699 -0.567,1.267 -1.266,1.267c-0.699,0 -1.267,-0.568 -1.267,-1.267Z" style="fill:#652d91;"/><path d="M1.751,13.454c0,-0.699 0.568,-1.266 1.267,-1.266c0.699,0 1.266,0.567 1.266,1.266c0,0.699 -0.567,1.267 -1.266,1.267c-0.699,0 -1.267,-0.568 -1.267,-1.267Z" style="fill:#652d91;"/><path d="M1.751,9.182c0,-0.699 0.568,-1.267 1.267,-1.267c0.699,0 1.266,0.568 1.266,1.267c0,0.699 -0.567,1.266 -1.266,1.266c-0.699,0 -1.267,-0.567 -1.267,-1.266Z" style="fill:#652d91;"/><path d="M6.48,9.182l8.781,0" style="fill:none;stroke-width:1.1px;stroke:#652d91;"/><path d="M6.48,13.454l8.781,0" style="fill:none;stroke-width:1.1px;stroke:#652d91;"/><path d="M6.48,17.727l8.781,0" style="fill:none;stroke-width:1.1px;stroke:#652d91;"/><g><rect x="1" y="1.698" width="18" height="3" style="fill:none;stroke-width:1px;stroke-linecap:butt;stroke:#652d91;"/><rect x="1" y="1.698" width="5" height="3" style="fill:#652d91;"/></g><path d="M19,4.698l0,10.73" style="fill:none;stroke-width:1px;stroke:#652d91;"/><path d="M19,17.948l0,2.75" style="fill:none;stroke-width:1px;stroke:#652d91;"/></g></svg>