<?xml version="1.0" standalone="no"?><!DOCTYPE svg PUBLIC "-//W3C//DTD SVG 1.1//EN" "http://www.w3.org/Graphics/SVG/1.1/DTD/svg11.dtd"><svg width="100%" height="100%" viewBox="0 0 36 32" version="1.1" xmlns="http://www.w3.org/2000/svg" xmlns:xlink="http://www.w3.org/1999/xlink" xml:space="preserve" style="fill-rule:evenodd;clip-rule:evenodd;stroke-linecap:round;stroke-linejoin:round;stroke-miterlimit:10;"><g id="style"><path d="M12.362,17.128l-5.537,0c-0.729,0 -1.325,0.597 -1.325,1.325l0,6.779c0,0.729 0.596,1.325 1.325,1.325l19.106,0" style="fill:none;stroke-width:1px;stroke:#652d91;"/><path d="M21.071,12.504l-6.072,-6.072c-0.515,-0.515 -1.358,-0.515 -1.874,0l-4.793,4.793c-0.515,0.515 -0.515,1.359 0,1.874l13.099,13.099" style="fill:none;stroke-width:1px;stroke:#652d91;"/><path d="M29.175,26.557c0.729,0 1.325,-0.596 1.325,-1.325l0,-18.464c0,-0.729 -0.596,-1.325 -1.325,-1.325l-6.778,0c-0.729,0 -1.325,0.596 -1.325,1.325l0,18.464c0,0.729 0.596,1.325 1.325,1.325l6.778,0Z" style="fill:none;stroke-width:1px;stroke:#652d91;"/><path d="M24.549,24.025c0,0.443 -0.36,0.803 -0.803,0.803c-0.443,0 -0.803,-0.36 -0.803,-0.803c0,-0.443 0.36,-0.803 0.803,-0.803c0.443,0 0.803,0.36 0.803,0.803" style="fill:#652d91;fill-rule:nonzero;"/></g></svg>