<?xml version="1.0" standalone="no"?><!DOCTYPE svg PUBLIC "-//W3C//DTD SVG 1.1//EN" "http://www.w3.org/Graphics/SVG/1.1/DTD/svg11.dtd"><svg width="100%" height="100%" viewBox="0 0 22 32" version="1.1" xmlns="http://www.w3.org/2000/svg" xmlns:xlink="http://www.w3.org/1999/xlink" xml:space="preserve" style="fill-rule:evenodd;clip-rule:evenodd;stroke-linecap:round;stroke-linejoin:round;stroke-miterlimit:1.41421;"><g id="background"><path d="M7.646,20.48l-2.782,0l0,-2.782l2.782,0.001l0,2.781ZM13.973,20.48l-2.782,0l0,-2.782l2.782,0.001l0,2.781ZM10.809,17.337l-2.781,0l-0.001,-2.782l2.782,0.001l0,2.781ZM17.136,17.337l-2.781,0l-0.001,-2.782l2.782,0l0,2.782ZM7.646,14.174l-2.782,0l0,-2.783l2.782,0.001l0,2.782ZM13.973,14.174l-2.782,0l0,-2.783l2.782,0.001l0,2.782ZM17.136,11.01l-2.781,0l-0.001,-2.782l2.782,0.001l0,2.781ZM10.809,11.01l-2.781,0l-0.001,-2.782l2.782,0.001l0,2.781ZM13.973,7.847l-2.782,0l0,-2.782l2.782,0l0,2.782ZM7.646,7.847l-2.782,0l0,-2.782l2.782,0l0,2.782Z" style="fill:#652d91;"/><path d="M20.495,22.169l0,-17.541c0,-1.69 -1.372,-3.062 -3.063,-3.062l-12.864,0c-1.691,0 -3.063,1.372 -3.063,3.062l0,23.14c0,1.69 1.372,3.063 3.063,3.063l12.864,0c1.691,0 3.063,-1.373 3.063,-3.063l0,-2.966" style="fill:none;stroke-width:1.23px;stroke:#652d91;"/><circle cx="11" cy="26.236" r="0.919" style="fill:#fff;stroke-width:1.23px;stroke:#652d91;"/></g></svg>