<?xml version="1.0" standalone="no"?><!DOCTYPE svg PUBLIC "-//W3C//DTD SVG 1.1//EN" "http://www.w3.org/Graphics/SVG/1.1/DTD/svg11.dtd"><svg width="100%" height="100%" viewBox="0 0 28 28" version="1.1" xmlns="http://www.w3.org/2000/svg" xmlns:xlink="http://www.w3.org/1999/xlink" xml:space="preserve" style="fill-rule:evenodd;clip-rule:evenodd;stroke-linecap:round;stroke-linejoin:round;stroke-miterlimit:1.41421;"><g id="logo"><path d="M26.624,21.175l0,-3.375l0,-13.965c0,-1.515 -1.23,-2.745 -2.745,-2.745l-19.758,0c-1.515,0 -2.745,1.23 -2.745,2.745l0,20.307c0,1.515 1.23,2.744 2.745,2.744l19.758,0c1.515,0 2.745,-1.229 2.745,-2.744" style="fill:none;stroke-width:1.1px;stroke:#652d91;"/><g id="Isolation Mode"><path d="M10.407,12.396c0,-0.531 0.211,-1.04 0.586,-1.415c0.375,-0.375 0.884,-0.585 1.414,-0.585c0.994,0 2.192,0 3.186,0c0.53,0 1.039,0.21 1.414,0.585c0.375,0.375 0.586,0.884 0.586,1.415c0,0.993 0,2.191 0,3.185c0,0.531 -0.211,1.039 -0.586,1.414c-0.375,0.375 -0.884,0.586 -1.414,0.586c-0.994,0 -2.192,0 -3.186,0c-0.53,0 -1.039,-0.211 -1.414,-0.586c-0.375,-0.375 -0.586,-0.883 -0.586,-1.414c0,-0.994 0,-2.192 0,-3.185Z" style="fill:none;stroke-width:0.8px;stroke-miterlimit:10;stroke:#652d91;"/><path d="M8.395,19.594l11.211,-11.211" style="fill:none;stroke-width:0.8px;stroke-miterlimit:10;stroke:#652d91;"/></g></g></svg>